<?xml version="1.0" encoding="UTF-8" standalone="no"?>
<svg width="40px" height="41px" viewBox="0 0 40 41" version="1.1" xmlns="http://www.w3.org/2000/svg" xmlns:xlink="http://www.w3.org/1999/xlink" xmlns:sketch="http://www.bohemiancoding.com/sketch/ns">
    <!-- Generator: Sketch 3.4.3 (16044) - http://www.bohemiancoding.com/sketch -->
    <title>Shape</title>
    <desc>Created with Sketch.</desc>
    <defs></defs>
    <g id="Home" stroke="none" stroke-width="1" fill="none" fill-rule="evenodd" sketch:type="MSPage">
        <g id="Shop" sketch:type="MSArtboardGroup" transform="translate(-27.000000, -6520.000000)" fill="#F1F1F1">
            <g id="Footer" sketch:type="MSLayerGroup" transform="translate(0.000000, 6141.450928)">
                <g id="Group" transform="translate(27.000000, 278.109957)" sketch:type="MSShapeGroup">
                    <path d="M20.0421053,100.646574 C9.01052632,100.646574 0,109.6571 0,120.688679 C0,131.720258 9.01052632,140.646574 20.0421053,140.646574 C31.0736842,140.646574 40,131.720258 40,120.688679 C40,109.6571 31.0736842,100.646574 20.0421053,100.646574 L20.0421053,100.646574 Z M20.0421053,137.025521 C11.0315789,137.025521 3.70526316,129.699205 3.70526316,120.688679 C3.70526316,111.678152 11.0315789,104.351837 20.0421053,104.351837 C29.0526316,104.351837 36.3789474,111.678152 36.3789474,120.688679 C36.3789474,129.699205 29.0526316,137.025521 20.0421053,137.025521 Z M22.7368421,127.846574 L21.0526316,128.604468 L23.2421053,117.404468 C23.4947368,116.225521 22.2315789,114.962363 20.8842105,115.720258 L16.7578947,117.993942 C16,118.414995 15.7473684,119.425521 16.1684211,120.183416 C16.5894737,120.94131 17.6,121.193942 18.3578947,120.772889 L19.3684211,120.267626 L17.2631579,130.962363 C17.0947368,131.888679 17.8526316,132.899205 18.8631579,132.899205 C19.1157895,132.899205 19.3684211,132.814995 19.5368421,132.730784 L24,130.793942 C24.8421053,130.4571 25.1789474,129.530784 24.8421053,128.688679 C24.5052632,127.846574 23.5789474,127.509731 22.7368421,127.846574 Z M21.6421053,112.688679 C22.9052632,112.688679 23.9157895,111.678152 23.9157895,110.414995 C23.9157895,109.151837 22.9052632,108.14131 21.6421053,108.14131 C20.3789474,108.14131 19.3684211,109.151837 19.3684211,110.414995 C19.3684211,111.678152 20.3789474,112.688679 21.6421053,112.688679 Z" id="Shape"></path>
                </g>
            </g>
        </g>
    </g>
</svg>