<?xml version="1.0" encoding="UTF-8" standalone="no"?>
<svg width="40px" height="34px" viewBox="0 0 40 34" version="1.1" xmlns="http://www.w3.org/2000/svg" xmlns:xlink="http://www.w3.org/1999/xlink" xmlns:sketch="http://www.bohemiancoding.com/sketch/ns">
    <!-- Generator: Sketch 3.4.3 (16044) - http://www.bohemiancoding.com/sketch -->
    <title>Shape</title>
    <desc>Created with Sketch.</desc>
    <defs></defs>
    <g id="Home" stroke="none" stroke-width="1" fill="none" fill-rule="evenodd" sketch:type="MSPage">
        <g id="Shop" sketch:type="MSArtboardGroup" transform="translate(-27.000000, -6619.000000)" fill="#FFFFFE">
            <g id="Footer" sketch:type="MSLayerGroup" transform="translate(0.000000, 6141.450928)">
                <g id="Group" transform="translate(27.000000, 278.109957)" sketch:type="MSShapeGroup">
                    <path d="M34.584677,200.146007 L5.41657535,200.146007 C2.42462194,200.146007 0,202.570629 0,205.562583 L0,227.073588 C0,230.066794 2.42462194,232.490164 5.41657535,232.490164 L34.584677,232.490164 C37.5766305,232.490164 40,230.065542 40,227.073588 L40,205.562583 C40,202.570629 37.5766305,200.146007 34.584677,200.146007 L34.584677,200.146007 Z M37.4438774,227.073588 C37.4438774,228.650344 36.1614327,229.932789 34.584677,229.932789 L5.41657535,229.932789 C3.83981966,229.932789 2.557375,228.650344 2.557375,227.073588 L2.557375,205.562583 C2.557375,203.985827 3.83981966,202.703382 5.41657535,202.703382 L34.584677,202.703382 C36.1614327,202.703382 37.4438774,203.985827 37.4438774,205.562583 L37.4438774,227.073588 Z M30.7949529,208.937767 L20.2485989,208.937767 C20.552929,209.611551 20.7708444,210.440632 20.8610163,211.466337 C21.086446,211.605352 21.2555183,211.829529 21.3932809,212.100045 L30.7949529,212.100045 C31.283384,212.100045 31.6766336,211.705543 31.6766336,211.218364 L31.6766336,209.819447 C31.6766336,209.333521 31.283384,208.937767 30.7949529,208.937767 Z M30.7949529,214.700001 L21.6086916,214.700001 C21.3594665,215.641796 20.7457967,216.627425 19.8954257,216.890427 C19.8703779,216.936765 19.841573,216.976841 19.8152729,217.02318 L19.8152729,217.862279 L30.7937005,217.862279 C31.2808792,217.862279 31.6753812,217.467777 31.6753812,216.979346 L31.6753812,215.581682 C31.6766336,215.094503 31.283384,214.700001 30.7949529,214.700001 Z M30.7949529,220.462235 L23.6237828,220.462235 C24.0971853,221.211163 24.3752153,222.094096 24.3752153,223.044658 L24.3752153,223.624513 L30.7949529,223.624513 C31.283384,223.624513 31.6766336,223.230011 31.6766336,222.742833 L31.6766336,221.343916 C31.6766336,220.856737 31.283384,220.462235 30.7949529,220.462235 Z M19.5121951,219.276224 L18.5390901,219.276224 C18.034378,219.276224 17.6248474,218.867946 17.6248474,218.363234 C17.6248474,218.176628 17.6999906,217.996285 17.8339961,217.866036 C18.4000751,217.316238 18.8759823,216.576077 19.2203889,215.778307 C19.2905226,215.829654 19.3656658,215.867226 19.4508281,215.867226 C19.996869,215.867226 20.6405961,214.659925 20.6405961,213.837106 C20.6405961,213.014288 20.5642005,212.346765 20.0169072,212.346765 C19.9517831,212.346765 19.8841542,212.358037 19.8140205,212.37557 C19.7751965,210.143816 19.2116222,207.359759 15.8038761,207.359759 C12.2483484,207.359759 11.8338082,210.138806 11.7937318,212.368056 C11.7436363,212.358037 11.6935408,212.346765 11.6472025,212.346765 C11.0999092,212.346765 11.024766,213.014288 11.024766,213.837106 C11.024766,214.659925 11.6659883,215.867226 12.2132816,215.867226 C12.2809105,215.867226 12.3435299,215.84844 12.4023921,215.814626 C12.7455462,216.599873 13.2151915,217.325005 13.7725038,217.869793 C13.9065093,218.000042 13.9816525,218.177881 13.9816525,218.365739 C13.9816525,218.870451 13.5721219,219.279982 13.0674097,219.279982 L12.0930524,219.279982 C10.0115846,219.279982 8.3246188,220.966947 8.3246188,223.048415 L8.3246188,224.092906 C8.3246188,224.749157 8.85688343,225.282674 9.5143868,225.282674 L22.0908607,225.282674 C22.7471117,225.282674 23.2793763,224.749157 23.2793763,224.092906 L23.2793763,223.048415 C23.2806287,220.964443 21.5936629,219.276224 19.5121951,219.276224 L19.5121951,219.276224 Z" id="Shape"></path>
                </g>
            </g>
        </g>
    </g>
</svg>