<?xml version="1.0" encoding="UTF-8" standalone="no"?>
<svg width="48px" height="49px" viewBox="0 0 48 49" version="1.1" xmlns="http://www.w3.org/2000/svg" xmlns:xlink="http://www.w3.org/1999/xlink" xmlns:sketch="http://www.bohemiancoding.com/sketch/ns">
    <!-- Generator: Sketch 3.4.3 (16044) - http://www.bohemiancoding.com/sketch -->
    <title>Fill 123</title>
    <desc>Created with Sketch.</desc>
    <defs></defs>
    <g id="Home" stroke="none" stroke-width="1" fill="none" fill-rule="evenodd" sketch:type="MSPage">
        <g id="Shop" sketch:type="MSArtboardGroup" transform="translate(-449.000000, -6262.000000)" fill="#F3F3F3">
            <g id="Footer" sketch:type="MSLayerGroup" transform="translate(0.000000, 6141.450928)">
                <g id="Fill-123-+-Fill-12-+-Fill-5" transform="translate(253.000000, 121.000000)" sketch:type="MSShapeGroup">
                    <path d="M244,23.999 C244,37.254 233.254,48 220.001,48 C206.746,48 196,37.254 196,23.999 C196,10.744 206.746,0 220.001,0 C233.254,0 244,10.744 244,23.999 Z M229.201,9 L210.797,9 C207.6,9 205,11.599 205,14.796 L205,33.203 C205,36.4 207.6,39 210.797,39 L229.201,39 C232.398,39 235,36.4 235,33.203 L235,14.796 C235,11.599 232.398,9 229.201,9 Z M230.865,12.459 L231.527,12.455 L231.527,17.539 L226.461,17.556 L226.443,12.472 L230.865,12.459 Z M215.719,20.921 C216.68,19.591 218.238,18.72 220,18.72 C221.762,18.72 223.32,19.591 224.281,20.921 C224.906,21.789 225.281,22.851 225.281,24 C225.281,26.91 222.91,29.279 220,29.279 C217.088,29.279 214.719,26.91 214.719,24 C214.719,22.851 215.094,21.789 215.719,20.921 Z M232.078,33.203 C232.078,34.789 230.787,36.078 229.201,36.078 L210.797,36.078 C209.211,36.078 207.922,34.789 207.922,33.203 L207.922,20.921 L212.4,20.921 C212.014,21.873 211.797,22.912 211.797,24 C211.797,28.523 215.477,32.203 220,32.203 C224.523,32.203 228.203,28.523 228.203,24 C228.203,22.912 227.984,21.873 227.598,20.921 L232.078,20.921 L232.078,33.203 Z" id="Fill-123"></path>
                </g>
            </g>
        </g>
    </g>
</svg>