<?xml version="1.0" encoding="UTF-8" standalone="no"?>
<svg width="41px" height="41px" viewBox="0 0 41 41" version="1.1" xmlns="http://www.w3.org/2000/svg" xmlns:xlink="http://www.w3.org/1999/xlink" xmlns:sketch="http://www.bohemiancoding.com/sketch/ns">
    <!-- Generator: Sketch 3.4.3 (16044) - http://www.bohemiancoding.com/sketch -->
    <title>Shape</title>
    <desc>Created with Sketch.</desc>
    <defs></defs>
    <g id="Home" stroke="none" stroke-width="1" fill="none" fill-rule="evenodd" sketch:type="MSPage">
        <g id="Shop" sketch:type="MSArtboardGroup" transform="translate(-367.000000, -6517.000000)" fill="#F9F9F9">
            <g id="Footer" sketch:type="MSLayerGroup" transform="translate(0.000000, 6141.450928)">
                <g id="Group" transform="translate(27.000000, 278.109957)" sketch:type="MSShapeGroup">
                    <path d="M369.302899,136.457742 L369.302899,138 L350.795805,138 L350.795805,136.457742 C350.795805,135.607958 351.488279,134.915484 352.338063,134.915484 L355.442628,134.915484 C355.524368,132.990746 356.773597,131.383714 358.507094,130.768353 L358.507094,112.685379 C357.694324,112.171808 357.149907,111.271129 357.149907,110.237816 L358.507094,110.237816 L361.59161,110.237816 L362.948797,110.237816 C362.948797,111.271129 362.40438,112.171808 361.59161,112.685379 L361.59161,130.766811 C363.325108,131.382171 364.574337,132.989204 364.656076,134.913942 L367.760642,134.913942 C368.610426,134.915484 369.302899,135.607958 369.302899,136.457742 L369.302899,136.457742 Z M380.098705,122.575879 C378.968229,125.759099 375.957742,128.055521 372.387415,128.055521 C368.817088,128.055521 365.806601,125.757557 364.676126,122.575879 L366.455891,122.575879 L371.665638,108.768044 C371.890808,108.166564 372.88248,108.166564 373.109192,108.768044 L378.318939,122.575879 L380.098705,122.575879 L380.098705,122.575879 Z M376.670265,122.575879 L372.387415,111.226403 L368.104565,122.577421 L376.670265,122.577421 L376.670265,122.575879 Z M347.711289,107.170265 C348.409932,107.170265 348.979025,106.702961 349.176434,106.069093 C349.686922,105.874769 350.209747,105.612585 350.746453,105.341147 C351.92628,104.745836 353.263418,104.068785 354.65145,104.068785 C355.983961,104.068785 356.81678,104.684146 357.293337,105.208513 C357.27483,105.341147 357.253239,105.473782 357.253239,105.611043 C357.253239,107.154843 358.505552,108.407156 360.049352,108.407156 C361.593152,108.407156 362.845466,107.154843 362.845466,105.611043 C362.845466,105.473782 362.823874,105.34269 362.805367,105.210056 C363.280382,104.68723 364.113202,104.068785 365.447255,104.068785 C366.835287,104.068785 368.172424,104.744294 369.350709,105.339605 C369.888957,105.611043 370.411783,105.873226 370.92227,106.067551 C371.119679,106.701419 371.688772,107.168723 372.387415,107.168723 C373.247995,107.168723 373.945096,106.471622 373.945096,105.611043 C373.945096,104.750463 373.247995,104.053362 372.387415,104.053362 C371.943245,104.053362 371.546885,104.244602 371.263109,104.5438 C370.882171,104.383405 370.470389,104.178285 370.046268,103.963911 C368.713757,103.289944 367.203886,102.526527 365.447255,102.526527 C363.911166,102.526527 362.840839,103.111043 362.114436,103.740284 C361.789019,103.380938 361.37261,103.112585 360.899136,102.959901 C361.474399,102.65145 361.87847,102.063849 361.87847,101.368291 C361.87847,100.358112 360.049352,98 360.049352,98 C360.049352,98 358.220234,100.358112 358.220234,101.368291 C358.220234,102.065392 358.624306,102.65145 359.199568,102.959901 C358.726095,103.111043 358.309685,103.380938 357.984269,103.740284 C357.257866,103.111043 356.187539,102.526527 354.65145,102.526527 C352.894818,102.526527 351.383405,103.289944 350.050895,103.963911 C349.626774,104.179827 349.216533,104.384948 348.835595,104.5438 C348.55182,104.246144 348.15546,104.053362 347.711289,104.053362 C346.850709,104.053362 346.153609,104.750463 346.153609,105.611043 C346.153609,106.471622 346.850709,107.170265 347.711289,107.170265 L347.711289,107.170265 Z M347.711289,128.057064 C344.140962,128.057064 341.130475,125.759099 340,122.577421 L341.779766,122.577421 L346.989513,108.769587 C347.214682,108.168106 348.206354,108.168106 348.433066,108.769587 L353.642813,122.577421 L355.422579,122.577421 C354.292104,125.759099 351.281616,128.057064 347.711289,128.057064 L347.711289,128.057064 Z M351.994139,122.575879 L347.711289,111.226403 L343.428439,122.577421 L351.994139,122.577421 L351.994139,122.575879 Z" id="Shape"></path>
                </g>
            </g>
        </g>
    </g>
</svg>