<?xml version="1.0" encoding="UTF-8" standalone="no"?>
<svg width="32px" height="32px" viewBox="0 0 32 32" version="1.1" xmlns="http://www.w3.org/2000/svg" xmlns:xlink="http://www.w3.org/1999/xlink" xmlns:sketch="http://www.bohemiancoding.com/sketch/ns">
    <!-- Generator: Sketch 3.4.3 (16044) - http://www.bohemiancoding.com/sketch -->
    <title>Fill 178 Copy</title>
    <desc>Created with Sketch.</desc>
    <defs></defs>
    <g id="Home" stroke="none" stroke-width="1" fill="none" fill-rule="evenodd" sketch:type="MSPage">
        <g id="Shop" sketch:type="MSArtboardGroup" transform="translate(-372.000000, -6622.000000)" fill="#FFFFFF">
            <g id="Footer" sketch:type="MSLayerGroup" transform="translate(0.000000, 6141.450928)">
                <g id="Group" transform="translate(27.000000, 278.109957)" sketch:type="MSShapeGroup">
                    <path d="M375.160532,205.954914 L372.282532,203.084914 C371.488532,202.291914 370.199532,202.291914 369.404532,203.084914 L365.087532,208.824914 C364.428532,209.795914 364.293532,210.901914 365.087532,211.694914 L366.849532,213.451914 C365.543532,215.201914 363.975532,217.109914 362.210532,218.869914 C360.214532,220.859914 357.994532,222.668914 355.998532,224.154914 L354.295532,222.457914 C353.501532,221.664914 352.392532,221.798914 351.417532,222.457914 L345.661532,226.762914 C344.696532,227.427914 344.866532,228.839914 345.661532,229.632914 L348.539532,232.501914 C350.129532,234.087914 352.196532,233.579914 354.295532,232.501914 C354.295532,232.501914 360.648532,228.945914 366.087532,223.521914 C371.203532,218.419914 375.160532,211.694914 375.160532,211.694914 C375.985532,209.431914 376.750532,207.539914 375.160532,205.954914" id="Fill-178-Copy"></path>
                </g>
            </g>
        </g>
    </g>
</svg>