<?xml version="1.0" encoding="UTF-8" standalone="no"?>
<svg width="43px" height="41px" viewBox="0 0 43 41" version="1.1" xmlns="http://www.w3.org/2000/svg" xmlns:xlink="http://www.w3.org/1999/xlink" xmlns:sketch="http://www.bohemiancoding.com/sketch/ns">
    <!-- Generator: Sketch 3.4.3 (16044) - http://www.bohemiancoding.com/sketch -->
    <title>Shape</title>
    <desc>Created with Sketch.</desc>
    <defs></defs>
    <g id="Home" stroke="none" stroke-width="1" fill="none" fill-rule="evenodd" sketch:type="MSPage">
        <g id="Shop" sketch:type="MSArtboardGroup" transform="translate(-364.000000, -6420.000000)" fill="#FAFAFA">
            <g id="Footer" sketch:type="MSLayerGroup" transform="translate(0.000000, 6141.450928)">
                <g id="Group" transform="translate(27.000000, 278.109957)" sketch:type="MSShapeGroup">
                    <path d="M360.691671,1 C354.254628,1 348.55746,4.21345947 345.108966,9.11726523 C345.822657,9.58286458 346.518333,10.221353 347.191175,11.0421568 C349.763842,7.19537613 353.923583,4.49646399 358.736475,3.91628028 L360.691392,7.22442372 L362.646309,3.91621045 C370.044507,4.80781785 375.925107,10.6881393 376.817134,18.0862672 L373.508432,20.0414633 L376.817203,21.9967292 C376.22089,26.9429193 373.388191,31.2012541 369.369499,33.753462 C369.625481,34.3369973 369.769672,34.9336599 369.795158,35.5488265 C369.813941,35.9983658 369.767577,36.423117 369.674359,36.8263618 C375.656277,33.6121343 379.733484,27.2950515 379.733484,20.0418124 C379.733484,9.54187675 371.191607,1 360.691671,1 L360.691671,1 Z M365.550928,32.3600155 C361.161321,28.8321997 359.93385,30.5663269 357.942135,32.5577626 C356.551622,33.9487651 353.032813,31.0440759 349.994477,28.0056003 C346.955932,24.9667056 344.051801,21.448456 345.442175,20.0577328 C347.43403,18.0662272 349.167668,16.8380588 345.638875,12.4496383 C342.111269,8.05961175 339.759671,11.4299701 337.83031,13.3594702 C335.602863,15.5861496 337.712933,23.8840545 345.913989,32.0863677 C354.116163,40.2875637 362.413998,42.3962372 364.640119,40.1703958 C366.56927,38.2408258 369.940606,35.8895072 365.550928,32.3600155 L365.550928,32.3600155 Z M352.181984,23.021774 C352.181984,19.1199006 356.749997,18.4247834 356.749997,16.902159 C356.749997,16.1633307 356.158571,15.8531639 355.611555,15.8531639 C354.606271,15.8531639 354.04508,16.9761745 354.04508,16.9761745 L352.1234,15.6903298 C352.1234,15.6903298 353.099078,13.4140043 355.848335,13.4140043 C357.577644,13.4140043 359.454844,14.4044852 359.454844,16.6511347 C359.454844,19.9474776 355.197697,20.5833126 355.123681,21.9431727 L359.617679,21.9431727 L359.617679,24.1602161 L352.300479,24.1602161 C352.226394,23.7464276 352.181984,23.3771182 352.181984,23.021774 L352.181984,23.021774 Z M360.698305,20.036366 L364.778514,13.5910829 L367.941698,13.5910829 L367.941698,19.4597434 L369.197937,19.4597434 L369.197937,21.6027713 L367.941698,21.6027713 L367.941698,24.1603557 L365.384114,24.1603557 L365.384114,21.6027713 L360.698375,21.6027713 L360.698375,20.036366 L360.698305,20.036366 L360.698305,20.036366 Z M365.384044,19.4596736 L365.384044,17.0945993 C365.384044,16.5179767 365.472863,15.9117479 365.472863,15.9117479 L365.443257,15.9117479 C365.443257,15.9117479 365.221838,16.562386 364.925846,17.0058505 L363.329835,19.4302071 L363.329835,19.4598133 L365.384044,19.4596736 L365.384044,19.4596736 L365.384044,19.4596736 Z" id="Shape"></path>
                </g>
            </g>
        </g>
    </g>
</svg>