<?xml version="1.0" encoding="UTF-8" standalone="no"?>
<svg width="40px" height="41px" viewBox="0 0 40 41" version="1.1" xmlns="http://www.w3.org/2000/svg" xmlns:xlink="http://www.w3.org/1999/xlink" xmlns:sketch="http://www.bohemiancoding.com/sketch/ns">
    <!-- Generator: Sketch 3.4.3 (16044) - http://www.bohemiancoding.com/sketch -->
    <title>Shape</title>
    <desc>Created with Sketch.</desc>
    <defs></defs>
    <g id="Home" stroke="none" stroke-width="1" fill="none" fill-rule="evenodd" sketch:type="MSPage">
        <g id="Shop" sketch:type="MSArtboardGroup" transform="translate(-27.000000, -6419.000000)" fill="#F3F3F3">
            <g id="Footer" sketch:type="MSLayerGroup" transform="translate(0.000000, 6141.450928)">
                <g id="Group" transform="translate(27.000000, 278.109957)" sketch:type="MSShapeGroup">
                    <path d="M0,16.5921751 C0,18.9188157 1.59671875,20.8573313 3.75,21.4163938 L3.75,37.8421751 L1.25,37.8421751 C0.561484375,37.8421751 0,38.4012376 0,39.0921751 C0,39.7831126 0.5615625,40.3421751 1.25,40.3421751 L38.75,40.3421751 C39.4433594,40.3421751 40,39.7831126 40,39.0921751 C40,38.4012376 39.4433594,37.8421751 38.75,37.8421751 L36.25,37.8421751 L36.25,21.4163938 C38.4032813,20.8573313 40,18.9188157 40,16.5921751 L40,15.3421751 L0,15.3421751 L0,16.5921751 L0,16.5921751 Z M25,21.5921751 C27.7636719,21.5921751 30,19.3534251 30,16.5921751 C30,18.9188157 31.5967188,20.8573313 33.75,21.4163938 L33.75,37.8421751 L15,37.8421751 L15,21.5921751 C17.7636719,21.5921751 20,19.3534251 20,16.5921751 C20,19.3534251 22.24125,21.5921751 25,21.5921751 L25,21.5921751 Z M13.75,21.4163938 L13.75,37.8421751 L6.25,37.8421751 L6.25,21.4163938 C8.40335938,20.8573313 10,18.9188157 10,16.5921751 C10,18.9188157 11.5967188,20.8573313 13.75,21.4163938 L13.75,21.4163938 Z M35,4.09217507 L5,4.09217507 L0,14.0921751 L40,14.0921751 L35,4.09217507 L35,4.09217507 Z M10.5615625,6.87053444 L8.0615625,11.8705344 C7.94921875,12.0903001 7.72953125,12.2172532 7.5,12.2172532 C7.4071875,12.2172532 7.31203125,12.1977219 7.22164062,12.1513157 C6.91398437,11.9974876 6.78703125,11.6215501 6.94328125,11.3138938 L9.44328125,6.31389382 C9.59953125,6.00623757 9.97304687,5.88178444 10.2807031,6.03311257 C10.5908594,6.18694069 10.7128906,6.56287819 10.5615625,6.87053444 L10.5615625,6.87053444 Z M15.5615625,6.87053444 L13.0615625,11.8705344 C12.9492187,12.0903001 12.7295312,12.2172532 12.5,12.2172532 C12.4071875,12.2172532 12.3120312,12.1977219 12.2216406,12.1513157 C11.9139844,11.9974876 11.7870312,11.6215501 11.9432812,11.3138938 L14.4432812,6.31389382 C14.5995312,6.00623757 14.9755469,5.88178444 15.2807031,6.03311257 C15.5908594,6.18694069 15.7128906,6.56287819 15.5615625,6.87053444 L15.5615625,6.87053444 Z M20.625,11.5921751 C20.625,11.9388938 20.3467188,12.2171751 20,12.2171751 C19.6557813,12.2171751 19.375,11.9388157 19.375,11.5921751 L19.375,6.59217507 C19.375,6.24545632 19.6557813,5.96717507 20,5.96717507 C20.3467188,5.96717507 20.625,6.24553444 20.625,6.59217507 L20.625,11.5921751 L20.625,11.5921751 Z M27.8027344,12.1390501 C27.7050781,12.1928001 27.6025781,12.2171751 27.5,12.2171751 C27.2803125,12.2171751 27.0654688,12.0999876 26.953125,11.8924876 L24.21875,6.89248757 C24.0527344,6.58975319 24.165,6.20889382 24.4678125,6.04530007 C24.7657031,5.87928444 25.1514063,5.98670632 25.3174219,6.29186257 L28.0517969,11.2918626 C28.2128906,11.5945969 28.1054688,11.9754563 27.8027344,12.1390501 L27.8027344,12.1390501 Z M32.7782812,12.1512376 C32.6904687,12.1976438 32.5976562,12.2171751 32.5,12.2171751 C32.2704687,12.2171751 32.0507812,12.0902219 31.9433594,11.8704563 L29.4433594,6.87045632 C29.2871094,6.56280007 29.4140625,6.18686257 29.7216406,6.03303444 C30.024375,5.87920632 30.4052344,6.00373757 30.5614844,6.31381569 L33.0614844,11.3138157 C33.2128906,11.6214719 33.0907812,11.9974876 32.7782812,12.1512376 L32.7782812,12.1512376 Z M10.625,30.5326438 L10.625,27.6517844 C10.25875,27.4320969 10,27.0511594 10,26.5922532 C10,25.9013157 10.5615625,25.3422532 11.25,25.3422532 C11.9433594,25.3422532 12.5,25.9013157 12.5,26.5922532 C12.5,27.0512376 12.2436719,27.4320969 11.875,27.6517844 L11.875,30.5326438 C12.2436719,30.7524094 12.5,31.1332688 12.5,31.5922532 C12.5,32.2831907 11.9433594,32.8422532 11.25,32.8422532 C10.5614844,32.8422532 10,32.2831907 10,31.5922532 C10,31.1331907 10.2588281,30.7523313 10.625,30.5326438 L10.625,30.5326438 Z M5,1.59217507 C5,0.901237566 5.5615625,0.342175066 6.25,0.342175066 L33.75,0.342175066 C34.4433594,0.342175066 35,0.901237566 35,1.59217507 C35,2.28311257 34.4433594,2.84217507 33.75,2.84217507 L6.25,2.84217507 C5.5615625,2.84217507 5,2.28311257 5,1.59217507 L5,1.59217507 Z M21.9092187,28.2840501 L21.0254687,27.4002219 L24.560625,23.8650657 L25.444375,24.7488938 L21.9092187,28.2840501 L21.9092187,28.2840501 Z M21.9092187,31.8192063 L21.0254687,30.9353782 L28.0957812,23.8650657 L28.9795312,24.7488938 L21.9092187,31.8192063 L21.9092187,31.8192063 Z M28.0957031,27.4003001 L28.9794531,28.2841282 L25.4442969,31.8192844 L24.5605469,30.9354563 L28.0957031,27.4003001 L28.0957031,27.4003001 Z" id="Shape"></path>
                </g>
            </g>
        </g>
    </g>
</svg>