<?xml version="1.0" encoding="UTF-8" standalone="no"?>
<svg width="48px" height="49px" viewBox="0 0 48 49" version="1.1" xmlns="http://www.w3.org/2000/svg" xmlns:xlink="http://www.w3.org/1999/xlink" xmlns:sketch="http://www.bohemiancoding.com/sketch/ns">
    <!-- Generator: Sketch 3.4.3 (16044) - http://www.bohemiancoding.com/sketch -->
    <title>Fill 5</title>
    <desc>Created with Sketch.</desc>
    <defs></defs>
    <g id="Home" stroke="none" stroke-width="1" fill="none" fill-rule="evenodd" sketch:type="MSPage">
        <g id="Shop" sketch:type="MSArtboardGroup" transform="translate(-253.000000, -6262.000000)" fill="#F1F1F1">
            <g id="Footer" sketch:type="MSLayerGroup" transform="translate(0.000000, 6141.450928)">
                <g id="Fill-123-+-Fill-12-+-Fill-5" transform="translate(253.000000, 121.000000)" sketch:type="MSShapeGroup">
                    <path d="M48.003,24 C48.003,37.254 37.257,48 24.003,48 C10.746,48 0,37.254 0,24 C0,10.745 10.746,-2.27373675e-13 24.003,-2.27373675e-13 C37.257,-2.27373675e-13 48.003,10.745 48.003,24 Z M34.265,13.915 C33.144,12.737 31.544,12 29.772,12 C26.374,12 23.618,14.713 23.618,18.06 C23.618,18.535 23.673,18.996 23.776,19.44 C18.661,19.187 14.126,16.775 11.09,13.11 C10.561,14.004 10.256,15.045 10.256,16.156 C10.256,18.258 11.345,20.112 12.995,21.198 C11.987,21.167 11.037,20.895 10.207,20.441 L10.207,20.517 C10.207,23.452 12.329,25.901 15.145,26.459 C14.628,26.597 14.085,26.671 13.523,26.671 C13.126,26.671 12.741,26.633 12.364,26.563 C13.15,28.969 15.421,30.721 18.114,30.77 C16.007,32.395 13.354,33.364 10.469,33.364 C9.971,33.364 9.482,33.335 9,33.279 C11.726,34.998 14.962,36 18.437,36 C29.759,36 35.948,26.769 35.948,18.763 C35.948,18.5 35.944,18.238 35.933,17.978 C37.134,17.124 38.179,16.057 39.003,14.841 C37.9,15.324 36.714,15.649 35.468,15.795 C36.739,15.046 37.714,13.859 38.175,12.443 C36.985,13.138 35.667,13.643 34.265,13.915 Z" id="Fill-5"></path>
                </g>
            </g>
        </g>
    </g>
</svg>