<?xml version="1.0" encoding="UTF-8" standalone="no"?>
<svg width="18px" height="30px" viewBox="0 0 18 30" version="1.1" xmlns="http://www.w3.org/2000/svg" xmlns:xlink="http://www.w3.org/1999/xlink" xmlns:sketch="http://www.bohemiancoding.com/sketch/ns">
    <!-- Generator: Sketch 3.4.3 (16044) - http://www.bohemiancoding.com/sketch -->
    <title>Rectangle 13</title>
    <desc>Created with Sketch.</desc>
    <defs></defs>
    <g id="Entry" stroke="none" stroke-width="1" fill="none" fill-rule="evenodd" sketch:type="MSPage">
        <g id="Sign-up" sketch:type="MSArtboardGroup" transform="translate(-34.000000, -130.000000)" fill="#424242">
            <path d="M34.781725,144.880639 C34.7376113,144.321135 34.9314108,143.747009 35.3602502,143.318169 L47.6278892,131.05053 C48.4041368,130.274283 49.660733,130.273551 50.4353266,131.048144 C51.2153206,131.828138 51.2088521,133.079671 50.4329409,133.855582 L39.4042252,144.884298 L50.9812056,156.461278 C51.7494939,157.229566 51.7532628,158.489199 50.9786691,159.263793 C50.1986752,160.043787 48.9507839,160.04096 48.1793639,159.26954 C48.1793639,159.26954 46.5064312,157.596607 45.4590643,156.54924 C40.6477481,151.737924 35.3527413,146.442917 35.3527413,146.442917 C34.9244314,146.014607 34.7345242,145.439852 34.781725,144.880639 Z" id="Rectangle-13" sketch:type="MSShapeGroup"></path>
        </g>
    </g>
</svg>