<?xml version="1.0" encoding="UTF-8" standalone="no"?>
<svg width="17px" height="30px" viewBox="0 0 17 30" version="1.1" xmlns="http://www.w3.org/2000/svg" xmlns:xlink="http://www.w3.org/1999/xlink" xmlns:sketch="http://www.bohemiancoding.com/sketch/ns">
    <!-- Generator: Sketch 3.4.3 (16044) - http://www.bohemiancoding.com/sketch -->
    <title>Rectangle 13</title>
    <desc>Created with Sketch.</desc>
    <defs></defs>
    <g id="Item" stroke="none" stroke-width="1" fill="none" fill-rule="evenodd" sketch:type="MSPage">
        <g id="Item-Click1" sketch:type="MSArtboardGroup" transform="translate(-79.000000, -3246.000000)" fill="#FFFFFF">
            <g id="Rectangle-13-+-Button-bg-+-Place-The-Order" sketch:type="MSLayerGroup" transform="translate(30.000000, 3211.000000)">
                <g id="Rectangle-13-+-Button-bg" sketch:type="MSShapeGroup">
                    <path d="M49.0070459,49.4128682 C48.9629322,48.8533634 49.1567317,48.2792373 49.585571,47.850398 L61.85321,35.582759 C62.6294577,34.8065113 63.8860539,34.8057795 64.6606475,35.5803732 C65.4406415,36.3603671 65.434173,37.6118994 64.6582617,38.3878107 L53.6295461,49.4165263 L65.2065265,60.9935066 C65.9748148,61.7617949 65.9785836,63.0214282 65.20399,63.7960218 C64.423996,64.5760158 63.1761047,64.5731883 62.4046848,63.8017683 C62.4046848,63.8017683 60.7317521,62.1288356 59.6843852,61.0814687 C54.8730689,56.2701525 49.5780621,50.9751457 49.5780621,50.9751457 C49.1497523,50.5468358 48.959845,49.9720807 49.0070459,49.4128682 Z" id="Rectangle-13"></path>
                </g>
            </g>
        </g>
    </g>
</svg>