<?xml version="1.0" encoding="UTF-8" standalone="no"?>
<svg width="242px" height="93px" viewBox="0 0 242 93" version="1.1" xmlns="http://www.w3.org/2000/svg" xmlns:xlink="http://www.w3.org/1999/xlink">
    <!-- Generator: Sketch 3.6.1 (26313) - http://www.bohemiancoding.com/sketch -->
    <title>Group 7</title>
    <desc>Created with Sketch.</desc>
    <defs>
        <path id="path-1" d="M6.18003902e-05,44.6988699 L211.804743,44.6988699 L211.804743,0.000154109589 L6.18003902e-05,0.000154109589 L6.18003902e-05,44.6988699 L6.18003902e-05,44.6988699 Z"></path>
    </defs>
    <g id="About" stroke="none" stroke-width="1" fill="none" fill-rule="evenodd">
        <g transform="translate(-247.000000, -3930.000000)" id="Group-7">
            <g transform="translate(247.000000, 3930.000000)">
                <g id="Page-1" transform="translate(0.000000, 48.000000)">
                    <mask id="mask-2" fill="white">
                        <use xlink:href="#path-1"></use>
                    </mask>
                    <g id="Clip-2"></g>
                    <path d="M117.20632,25.5351884 C114.09874,25.5351884 111.928294,23.2318664 111.928294,19.9339212 C111.928294,16.5851199 114.09874,14.246661 117.20632,14.246661 C120.239313,14.246661 122.440708,16.6384418 122.440708,19.9339212 C122.440708,23.2318664 120.288212,25.5351884 117.20632,25.5351884 L117.20632,25.5351884 Z M122.741841,9.05378425 L122.032183,9.94792808 C120.430886,8.97241438 118.622542,8.84234589 117.20632,8.84234589 C110.753164,8.84234589 106.069047,13.5072432 106.069047,19.9339212 C106.069047,26.7224486 110.336592,30.9391952 117.20632,30.9391952 C119.664901,30.9391952 122.311032,32.179161 122.311032,34.9013527 C122.311032,37.4916267 120.3074,39.1655651 117.20632,39.1655651 C114.350974,39.1655651 112.165981,37.5138185 111.949648,35.2681336 C109.4954,37.188339 108.428592,40.55625 108.281584,41.0537158 C110.245292,43.3320719 113.389701,44.699024 117.20632,44.699024 C123.790081,44.699024 128.213608,40.761524 128.213608,34.9013527 C128.213608,32.8430651 127.779394,29.920839 124.158373,27.8779623 C127.990775,25.7620377 128.299955,21.2996404 128.299955,19.9339212 C128.299955,17.4210103 127.592773,15.3550171 126.139102,13.6277568 L128.52712,10.6007363 C126.414238,9.32162671 123.807412,9.09169521 122.741841,9.05378425 L122.741841,9.05378425 Z M93.8615609,9.18755137 C91.356866,9.18755137 89.2430558,10.0724486 87.0787988,12.0422774 L86.9574791,11.0297774 C85.4892631,10.0804623 83.7440543,9.66806507 82.4358441,9.48960616 L81.4680718,9.48960616 L81.4680718,27.5219692 C81.5714412,27.5712842 81.6803813,27.6652911 81.7964397,27.8138527 C83.4828455,29.9800171 86.3174558,31.071113 87.3273185,31.405839 L87.3273185,20.235976 C87.3273185,17.0181678 89.5407842,14.5915582 92.4756689,14.5915582 C95.4637857,14.5915582 97.3204105,16.6550856 97.3204105,19.9770719 L97.3204105,27.7081336 C97.3841653,27.7605308 97.4500864,27.8289555 97.5184835,27.9167979 C99.0705711,29.9100514 101.594454,30.9928253 102.774227,31.4138527 L103.222986,31.4138527 L103.222986,19.9339212 C103.222986,12.5104623 98.521228,9.18755137 93.8615609,9.18755137 L93.8615609,9.18755137 Z M200.147219,26.2252911 C196.866945,26.2252911 194.393199,23.7616952 194.393199,20.4945719 C194.393199,17.1208048 196.759552,14.764161 200.147219,14.764161 C203.535505,14.764161 205.902168,17.1208048 205.902168,20.4945719 C205.902168,23.7616952 203.428113,26.2252911 200.147219,26.2252911 L200.147219,26.2252911 Z M200.537794,9.05809932 C198.440387,9.05809932 195.668294,9.84128425 193.826215,11.9867979 L193.535914,9.53275685 L188.01432,9.53275685 L188.01432,40.2991952 C188.01432,40.2991952 191.838057,39.2626541 193.917205,36.5922432 L193.917205,29.4951884 C195.586589,31.2760788 198.431412,31.9313527 200.710489,31.9313527 C207.346554,31.9313527 211.804743,27.3351884 211.804743,20.4945719 C211.804743,13.8678596 207.066466,9.05809932 200.537794,9.05809932 L200.537794,9.05809932 Z M178.008848,4.41878425 C177.869578,4.59755137 177.740212,4.69864726 177.618892,4.73563356 L177.618892,18.2519692 C177.618892,23.346524 175.032183,26.2684418 170.522308,26.2684418 C165.807243,26.2684418 162.99244,23.2716267 162.99244,18.2519692 L162.99244,0.647106164 L162.911354,0.647106164 L162.977584,0.711832192 C162.977584,0.711832192 159.153847,1.74868151 157.0747,4.41878425 C156.941619,4.59015411 156.816586,4.69125 156.699908,4.73193493 L156.699908,18.2519692 C156.699908,26.6404623 162.108229,32.0608048 170.47867,32.0608048 C178.764311,32.0608048 183.911424,26.7696062 183.911424,18.2519692 L183.911424,0.711832192 C183.911424,0.711832192 180.087686,1.74868151 178.008848,4.41878425 L178.008848,4.41878425 Z M136.381952,17.6848459 C137.185076,15.4382363 139.186232,14.1600514 141.936352,14.1600514 C144.811505,14.1600514 146.679581,15.439161 147.118127,17.6848459 L136.381952,17.6848459 Z M141.763657,8.88549658 C134.791178,8.88549658 130.106133,13.481661 130.106133,20.3222774 C130.106133,27.5096404 134.722472,31.9745034 142.153304,31.9745034 C145.839938,31.9745034 149.443628,30.6161815 151.558367,28.4293664 L151.603862,28.3822089 C149.741356,26.5698801 147.186215,25.7102568 146.567856,25.5219349 C145.276977,26.2071062 143.552813,26.5704966 142.239961,26.5704966 C139.000539,26.5704966 136.736936,25.0811815 136.238349,22.6576541 L152.830057,22.6576541 L152.856364,22.3780993 C153.267984,17.9961473 152.358705,14.4473116 150.226016,12.1156336 C148.293567,10.0024829 145.367348,8.88549658 141.763657,8.88549658 L141.763657,8.88549658 Z M35.8738353,0.603955479 L35.8710499,0.603955479 L35.8738353,0.606421233 L35.8738353,0.603955479 Z M183.911424,0.711832192 L183.911424,0.647106164 L183.845193,0.647106164 L183.911424,0.711832192 Z M70.3249185,24.7060788 C69.2522295,25.9540582 67.7162353,26.6136473 65.8825127,26.6136473 C62.3416485,26.6136473 59.8685215,24.0797774 59.8685215,20.4514212 C59.8685215,16.7916267 62.2856309,14.3326541 65.8825127,14.3326541 C69.9550791,14.3326541 71.809847,17.5156336 71.809847,20.4729966 C71.809847,22.0889897 71.2824777,23.5921747 70.3249185,24.7060788 L70.3249185,24.7060788 Z M72.0608426,11.203613 C72.035155,11.2184075 72.0110149,11.2295034 71.9865653,11.241524 L71.950355,11.8564212 C70.5381565,10.1069692 68.0733857,9.01494863 65.4077565,9.01494863 L65.3019112,9.01464041 C58.4154704,9.01464041 53.9656368,13.5038527 53.9656368,20.4514212 C53.9656368,24.0720719 55.0686558,27.0642637 57.1552309,29.1049829 C59.1325565,31.0390582 61.9046499,32.061113 65.1716164,32.061113 L65.281485,32.0608048 C67.6283404,32.0182705 70.4985419,30.94875 71.9763521,28.9665925 L72.1812339,31.4138527 L77.7557507,31.4138527 L77.7557507,9.53275685 L76.8641127,9.53275685 C75.5645682,9.74296233 73.7791258,10.2019007 72.0608426,11.203613 L72.0608426,11.203613 Z M23.7824076,23.1668322 C21.9409477,25.0001199 19.1038616,26.1389897 16.3781915,26.1389897 C8.97366599,26.1389897 6.29101489,21.0160788 6.24923387,16.2220377 C6.22478423,13.3404966 7.26064409,10.6334075 9.09127182,8.79488014 C10.8782616,6.99981164 13.3984309,6.05111301 16.3781915,6.05111301 C19.1329536,6.05111301 21.6555988,7.03094178 23.4815842,8.80998288 L23.6963696,9.01957192 L27.9521536,4.92580479 L27.7265361,4.70419521 C24.5929594,1.62693493 20.6686382,0.000154109589 16.3781915,0.000154109589 C11.5811112,0.000154109589 7.49987912,1.5477226 4.57551708,4.47611301 C1.64279883,7.41282534 -0.0247281752,11.6955308 0.000340437956,16.2260445 C0.0408835036,23.5508733 4.3545419,32.1039555 16.3781915,32.1039555 C21.0100047,32.1039555 25.0689536,30.5221747 28.1161828,27.5293664 L28.3368485,27.3126884 L24.0024543,22.9476884 L23.7824076,23.1668322 Z M42.2344543,9.23070205 C39.6118441,9.23070205 37.522793,10.1014212 35.8738353,11.8866267 L35.8738353,0.743270548 C35.2415492,0.933441781 31.9522996,2.01251712 30.0789623,4.41878425 C30.0424426,4.46594178 30.0062324,4.50662671 29.9709507,4.54330479 L29.9709507,27.7922774 C30.0062324,27.8289555 30.0424426,27.8696404 30.0789623,27.9167979 C31.6310499,29.9100514 34.1549331,30.9928253 35.3350149,31.4138527 L35.8738353,31.4138527 L35.8738353,20.235976 C35.8738353,17.0918322 38.0124047,14.7210103 40.8485623,14.7210103 C43.7772572,14.7210103 45.3900047,16.5721747 45.3900047,19.9339212 L45.3900047,27.9167979 C46.9420923,29.9100514 49.4659755,30.9928253 50.6457477,31.4138527 L51.2925799,31.4138527 L51.2925799,19.8907705 C51.2925799,13.0165582 48.0757507,9.23070205 42.2344543,9.23070205 L42.2344543,9.23070205 Z" id="Fill-1" fill="#161616" mask="url(#mask-2)"></path>
                </g>
                <g id="Group-2" transform="translate(182.000000, 0.000000)">
                    <circle id="Oval-1" fill="#FC6E5E" cx="30" cy="30" r="30"></circle>
                    <path d="M8.41228416,39.1590909 L8.41228416,36.6372292 L11.6207913,36.6372292 L11.6207913,24.2027033 C10.4305999,24.7603455 9.21961897,25.2347504 7.98781239,25.6259322 L7.98781239,22.7545055 C9.21129596,22.3633237 10.5429588,21.7723983 11.9828408,20.9817116 L14.7918451,20.9817116 L14.7918451,36.6871671 L18.0627747,36.6871671 L18.0627747,39.1590909 L8.41228416,39.1590909 Z M22.0203497,39.1590909 L22.0203497,35.7758012 L25.6408442,35.7758012 L25.6408442,39.1590909 L22.0203497,39.1590909 Z M35.1290366,39.4462336 C34.0803364,39.4462336 33.0503785,39.2319191 32.0391319,38.8032837 C31.0278852,38.3746483 30.1394164,37.7566735 29.3736988,36.9493408 L31.0341325,34.5772927 C31.6084207,35.2764262 32.2534449,35.811172 32.9692244,36.1815463 C33.6850039,36.5519206 34.3841269,36.7371049 35.0666143,36.7371049 C35.9987923,36.7371049 36.7894671,36.4333194 37.4386624,35.8257391 C38.0878578,35.2181588 38.4124506,34.352578 38.4124506,33.2289706 C38.4124506,32.3384077 38.1939747,31.5747823 37.7570163,30.9380715 C37.3200579,30.3013607 36.7353746,29.98301 36.0029491,29.98301 C34.987541,29.98301 34.2925794,30.253504 33.9180437,30.7945002 L30.7594743,30.3700284 L30.7594743,20.9817116 L40.8594055,20.9817116 L40.8594055,23.6908403 L33.5559942,23.6908403 L33.4061806,28.3475453 C33.9971149,27.5651816 35.0749295,27.1740057 36.6396568,27.1740057 C38.0129546,27.1740057 39.1968861,27.7607696 40.1914867,28.9343151 C41.1860873,30.1078605 41.6833801,31.5560439 41.6833801,33.2789085 C41.6833801,34.0779181 41.5606175,34.8186556 41.3150884,35.501143 C41.0695594,36.1836305 40.7366437,36.7641522 40.3163313,37.2427257 C39.896019,37.7212992 39.4049683,38.129121 38.8431646,38.4662032 C38.2813609,38.8032854 37.6862741,39.0508914 37.0578863,39.2090288 C36.4294985,39.3671661 35.786555,39.4462336 35.1290366,39.4462336 L35.1290366,39.4462336 Z M52.1952986,39.2839355 C51.5044882,39.2839355 50.9489351,39.0612982 50.5286227,38.6160167 C50.1083103,38.1707353 49.8981573,37.6047786 49.8981573,36.9181297 C49.8981573,36.2439652 50.1083103,35.6790489 50.5286227,35.2233637 C50.9489351,34.7676785 51.5024075,34.5398393 52.1890564,34.5398393 C52.8757053,34.5398393 53.4312584,34.7687189 53.8557323,35.2264848 C54.2802062,35.6842508 54.49244,36.2481268 54.49244,36.9181297 C54.49244,37.6089401 54.2822869,38.1759372 53.8619745,38.6191379 C53.4416622,39.0623385 52.8861091,39.2839355 52.1952986,39.2839355 L52.1952986,39.2839355 Z M52.1890564,38.3101474 C52.5178156,38.3101474 52.7643813,38.199869 52.9287609,37.9793091 C53.0931405,37.7587491 53.175329,37.4050262 53.175329,36.9181297 C53.175329,36.4520407 53.0962616,36.1024792 52.9381242,35.8694347 C52.7799869,35.6363902 52.5303001,35.5198697 52.1890564,35.5198697 C51.8519742,35.5198697 51.6043681,35.6343095 51.4462308,35.8631925 C51.2880935,36.0920755 51.209026,36.4416369 51.209026,36.9118874 C51.209026,37.398784 51.2901742,37.7535472 51.452473,37.976188 C51.6147719,38.1988287 51.8602972,38.3101474 52.1890564,38.3101474 L52.1890564,38.3101474 Z M45.6534396,39.1590909 L51.4649575,30.0704013 L52.7321306,30.0704013 L46.9206127,39.1590909 L45.6534396,39.1590909 Z M46.1465759,34.6958951 C45.4391194,34.6958951 44.8794049,34.4867824 44.4674155,34.0685508 C44.0554262,33.6503192 43.8494346,33.0708378 43.8494346,32.3300892 C43.8494346,31.6018252 44.0554262,31.0244245 44.4674155,30.5978699 C44.8794049,30.1713152 45.4391194,29.9580411 46.1465759,29.9580411 C46.8498709,29.9580411 47.4085451,30.1723556 47.8226152,30.600991 C48.2366853,31.0296264 48.4437173,31.6059867 48.4437173,32.3300892 C48.4437173,33.0749993 48.2377257,33.655521 47.8257363,34.0716719 C47.4137469,34.4878228 46.8540324,34.6958951 46.1465759,34.6958951 L46.1465759,34.6958951 Z M46.1465759,33.7221069 C46.4753351,33.7221069 46.7208605,33.612869 46.8831593,33.3943898 C47.0454581,33.1759106 47.1266063,32.823228 47.1266063,32.3363315 C47.1266063,31.866081 47.0485792,31.5144388 46.8925226,31.2813943 C46.7364661,31.0483498 46.4878196,30.9318293 46.1465759,30.9318293 C45.8053322,30.9318293 45.5566858,31.0473094 45.4006292,31.2782731 C45.2445726,31.5092369 45.1665455,31.8598387 45.1665455,32.3300892 C45.1665455,32.8169857 45.2476937,33.1707087 45.4099926,33.3912686 C45.5722914,33.6118286 45.8178167,33.7221069 46.1465759,33.7221069 L46.1465759,33.7221069 Z" id="1.5%" fill="#FFFFFF"></path>
                </g>
            </g>
        </g>
    </g>
</svg>