<?xml version="1.0" encoding="UTF-8" standalone="no"?>
<svg width="128px" height="117px" viewBox="0 0 128 117" version="1.1" xmlns="http://www.w3.org/2000/svg" xmlns:xlink="http://www.w3.org/1999/xlink">
    <!-- Generator: Sketch 3.6.1 (26313) - http://www.bohemiancoding.com/sketch -->
    <title>Group 4</title>
    <desc>Created with Sketch.</desc>
    <defs></defs>
    <g id="About" stroke="none" stroke-width="1" fill="none" fill-rule="evenodd">
        <g transform="translate(-986.000000, -3930.000000)" id="Group-4">
            <g transform="translate(986.000000, 3930.000000)">
                <path d="M98.7560837,32.2941566 C98.5491524,32.9912656 97.3471898,39.4127398 98.2394892,41.1283616 C98.4985202,41.6266111 98.5256708,43.2350983 98.0017384,45.7035978 C97.9070783,46.1490138 97.6678599,47.173397 97.3787431,48.4127834 C96.2098014,53.4194933 95.6880704,55.7493048 95.6880704,56.3260708 C95.6880704,56.7186532 95.5677274,57.4113594 95.4393126,58.1451583 C95.3549257,58.6324007 95.2654023,59.1475276 95.1949576,59.6560502 C95.0841539,60.4573586 93.3509209,62.2375548 92.3749684,62.7057185 C91.0761443,63.3294475 89.380335,65.1500026 88.8593378,65.7553867 C87.9721749,66.0606471 86.8186431,66.6983183 84.4514078,70.1097494 C81.5551035,74.2843314 81.4442999,75.4356619 81.4817236,77.4462709 C81.4853926,77.6275192 81.4890616,77.8175731 81.4890616,78.0215692 C81.4890616,79.9463238 82.4407988,108.270962 82.6491977,114.451016 L58.932817,114.451016 C59.2600913,106.72338 60.3351067,80.7234168 60.0702053,79.0488877 C59.8214475,77.4719538 59.3591542,76.5877262 57.6391296,73.2966381 C57.210591,72.4762509 56.6991332,71.4966294 56.0856773,70.3078751 C55.5463351,69.2614779 55.0627616,67.9964086 54.6356906,66.5537599 C60.6264249,60.2548301 71.6891772,48.6189809 74.7689312,45.3455039 C81.9058594,37.7594909 82.4488706,33.4594293 82.4826253,32.6162943 C82.6044359,31.8164535 83.2890703,26.3988162 80.7413205,20.491735 C80.7200403,18.995519 80.681149,17.5455324 80.6716096,17.2754944 C80.6510632,16.6737793 80.4522037,15.7924868 80.2005107,14.6778463 C79.8233381,13.0091876 79.3074774,10.7248716 79.2531763,8.62987569 C79.1570487,4.92125602 80.8616635,4.84567473 81.5903258,4.81338758 C82.9008907,4.75394987 83.9003248,6.47030551 84.2386061,7.63777957 C84.6135773,8.92779804 86.3049838,19.5179839 86.4935701,20.9797113 L86.5750218,21.5909658 C86.7694785,23.0321468 87.1312414,25.7163832 86.9565972,26.7994704 C86.7709461,27.9537361 86.7760827,30.2020959 86.7980967,32.405694 C86.8017657,32.7637879 86.8047009,33.0690483 86.8047009,33.2935907 C86.8047009,33.7793656 86.8531316,34.3319162 86.9081665,34.971055 C87.0028266,36.0578112 87.1202344,37.4094688 87.0358475,38.9577845 C86.9140369,41.1900007 87.5421688,44.8068956 87.8444939,46.5445314 C87.898795,46.8556621 87.9406216,47.0948805 87.9619017,47.2401727 C88.2194652,48.9535932 89.1381814,49.1025543 89.522692,49.0842094 C89.6386322,49.0790728 90.6600803,48.9961535 90.7444672,47.6488987 C90.7884951,46.9444518 90.9983616,44.4297229 91.0533965,43.8779061 C91.1025611,43.7729729 91.2339111,43.564574 91.3234345,43.422217 C91.5523798,43.0589866 91.7893968,42.6825477 91.8979991,42.2840949 C92.0080689,41.8805055 92.0080689,41.2531074 91.9985295,40.2632127 C91.9941267,39.8698965 91.9882563,39.2747856 92.0110041,39.1228892 C92.069708,38.8014853 92.7293932,36.5135003 94.0546341,33.2495628 C95.1516634,30.5462476 97.1475965,30.4545227 97.9540414,30.5418448 C98.1257504,30.5601898 98.3238761,30.7157552 98.4853119,30.9564412 C98.7531485,31.358563 98.8661535,31.920653 98.7560837,32.2941566 M49.9056229,68.3324885 C46.1368317,64.4910512 30.1634971,48.1647593 26.7256492,43.9006539 C20.048813,35.6182657 19.7486892,32.2405893 19.7479554,32.2361865 L19.7288767,32.0512692 C19.7068627,31.9338613 17.6500244,20.2532504 28.1925133,12.7420848 C30.8217147,10.8701637 33.6373011,9.93163495 36.6121219,9.93163495 C38.5273371,9.93163495 40.5093279,10.3212822 42.5478213,11.1013104 C46.5316155,12.6239431 49.2554771,15.135003 49.2826276,15.1599522 L50.0421095,15.8658667 L50.7927858,15.1526142 C50.8192025,15.1269312 53.4850939,12.6195403 57.4087167,11.0983752 C62.5350359,9.11271537 67.3230737,9.66526595 71.6429479,12.7420848 C82.1612214,20.2356392 80.3795577,31.8458055 80.2988398,32.3345155 L80.28343,32.5091597 C80.2826962,32.548051 80.1021817,36.463602 73.1655806,43.8368134 C69.3938542,47.8462906 53.6215805,64.4272107 49.9056229,68.3324885 M44.9143227,70.3078751 C44.3008668,71.498097 43.7879414,72.4784523 43.358669,73.2995733 C41.640112,76.58846 41.1785525,77.4726876 40.9297947,79.0488877 C40.6648933,80.7234168 41.7399087,106.72338 42.067183,114.451016 L18.3500685,114.451016 C18.5584674,108.270962 19.5109384,79.9463238 19.5109384,78.0215692 C19.5109384,77.8175731 19.5146074,77.6275192 19.5182764,77.4462709 C19.5557001,75.4356619 19.4448965,74.2843314 16.5485922,70.1097494 C14.1813569,66.6983183 13.0278251,66.0606471 12.1406622,65.7553867 C11.6189312,65.1500026 9.9223881,63.3287137 8.62503163,62.7064523 C7.64834529,62.2375548 5.91511227,60.4573586 5.80504244,59.6560502 C5.73459774,59.14606 5.64434048,58.6301993 5.5599536,58.1414893 C5.43153879,57.4098918 5.31119577,56.7179194 5.31119577,56.3260708 C5.31119577,55.7493048 4.78946475,53.4187595 3.62125689,48.410582 C3.33140633,47.1719294 3.09292168,46.1490138 2.99826162,45.702864 C2.4743292,43.2350983 2.50147976,41.6266111 2.76051078,41.1283616 C3.65207645,39.4142074 2.45084764,32.9912656 2.24391635,32.2941566 C2.13311271,31.920653 2.24685154,31.358563 2.51468814,30.957175 C2.6753901,30.7157552 2.87424961,30.5601898 3.04595855,30.5418448 C3.85313735,30.453789 5.84833657,30.5469814 6.94536594,33.2495628 C8.27060676,36.5157017 8.93029198,38.8014853 8.98826209,39.1170188 C9.01174366,39.2740518 9.00513947,39.8691627 9.00220427,40.2624789 C8.99193109,41.2523737 8.99119729,41.8797717 9.10200092,42.2840949 C9.21060316,42.6832815 9.44688641,43.0582528 9.67583167,43.422217 C9.76608893,43.564574 9.89743894,43.7729729 9.94660346,43.8779061 C10.0038398,44.4524707 10.2137063,46.9855445 10.2555328,47.6488987 C10.3399197,48.9961535 11.3613678,49.0790728 11.4780418,49.0842094 C11.860351,49.1040219 12.7805348,48.954327 13.0380983,47.2401727 C13.0593784,47.0963481 13.1004712,46.8585973 13.1547723,46.549668 C13.4570974,44.8105645 14.0859631,41.1922021 13.9641525,38.9577845 C13.8797656,37.4094688 13.9971734,36.0578112 14.0910997,34.9717888 C14.1468684,34.3319162 14.1945653,33.7793656 14.1945653,33.2935907 C14.1945653,33.0690483 14.1982343,32.7623203 14.2011695,32.4034926 C14.2231835,30.2006283 14.2297877,27.9537361 14.0434028,26.7994704 C13.8687586,25.7163832 14.2305215,23.0321468 14.4249782,21.5909658 L14.5064299,20.9797113 C14.6950162,19.5172501 16.3871565,8.92633045 16.7613939,7.63777957 C17.100409,6.46957171 18.0925051,4.7356049 19.410408,4.81338758 C20.1383365,4.84567473 21.8436851,4.92125602 21.7468237,8.62987569 C21.6925226,10.7248716 21.1766619,13.0091876 20.7994893,14.6771125 C20.5470625,15.7924868 20.348203,16.6737793 20.3276566,17.2754944 C20.3232538,17.3958374 20.3137144,17.7348525 20.3027074,18.1912754 C16.5243769,24.8556371 17.4225467,31.5603577 17.5516953,32.3756083 C17.607464,33.1160114 18.2392649,36.8811336 25.011495,45.2823972 C28.0589619,49.0621954 40.2480955,61.6094229 46.0524448,67.545856 C45.7060917,68.5805125 45.3267177,69.5087681 44.9143227,70.3078751 M31.0785444,2.20326487 C31.8475656,2.17978331 32.386174,2.34488806 32.6606148,2.69637774 C33.1463897,3.31643781 33.1170377,4.60645629 32.5747603,6.52900942 L32.5483436,6.62220188 C32.4676257,6.90985105 32.3399447,7.5475223 32.1909835,8.37157847 C30.4570167,8.86836033 28.6856261,9.68874751 26.9157032,10.949414 C26.6419962,11.1446045 26.3829652,11.343464 26.1246679,11.5437911 C26.4130509,9.9646559 26.6456652,8.61593351 26.6889593,8.23142288 C26.6955635,8.17198517 27.4477074,2.3184713 31.0785444,2.20326487 M68.4516564,6.62220188 L68.4259735,6.53047702 C67.8829623,4.60719009 67.8536103,3.31717161 68.3386514,2.69637774 C68.6130922,2.34488806 69.1443626,2.1827185 69.9214556,2.20326487 C73.5522926,2.3184713 74.3044365,8.17198517 74.3110407,8.23068908 C74.3638742,8.70472318 74.7065583,10.6507579 75.0866661,12.6848484 C74.4211105,12.0897375 73.704189,11.5085688 72.919758,10.949414 C71.565899,9.98520227 70.2142414,9.28002152 68.8816626,8.77736927 C68.7011481,7.75518739 68.5448489,6.95534659 68.4516564,6.62220188 M100.316874,29.7353998 C99.7819345,28.9333576 99.0261217,28.4424461 98.1888571,28.3529227 C96.0901922,28.1247112 93.3699997,29.0793836 92.0146731,32.4218376 C90.7055759,35.64615 89.9556334,38.1205199 89.8448297,38.7288392 C89.7875934,39.0443727 89.789061,39.5022633 89.7971328,40.2852267 C89.8015356,40.74752 89.8088736,41.5209441 89.7758526,41.6992572 C89.7420979,41.8027228 89.5659862,42.0815664 89.4610529,42.2481388 L89.4221616,42.3097779 C89.2798046,41.130563 89.1858783,39.9491468 89.2335753,39.0781275 C89.3267677,37.3742464 89.2020219,35.9360006 89.1014914,34.7810011 C89.0501255,34.1924944 89.0060976,33.6847055 89.0060976,33.2935907 C89.0060976,33.0639117 89.0031624,32.7505795 88.9994934,32.3836801 C88.9855512,30.9270892 88.9576669,28.2157023 89.1301096,27.1502263 C89.3392423,25.8536036 89.0603987,23.5472736 88.756606,21.2967124 L88.6773557,20.6979325 C88.493906,19.276564 86.7988305,8.56016479 86.3526807,7.02432368 C85.8603017,5.32704681 84.2738284,2.49751823 81.4927306,2.61419226 C79.7771087,2.68977355 76.9196958,3.58060542 77.0525134,8.6878458 C77.1119511,10.9985786 77.6564299,13.405439 78.0534151,15.1621535 C78.1348668,15.5239164 78.2141171,15.8761399 78.2816266,16.19681 C78.1605498,16.0317053 78.0394729,15.8666005 77.9117919,15.7022295 C77.3797877,13.087704 76.5696737,8.6203363 76.499229,7.98706785 C76.1983715,5.28742167 74.4519301,0.144225141 69.9911665,0.00333575064 C68.4729366,-0.0436273793 67.3355483,0.405457551 66.6046846,1.34031736 C65.1855175,3.15573585 66.0007681,6.04250075 66.307496,7.12852313 L66.3317114,7.2158452 C66.3742717,7.36627397 66.438846,7.67373571 66.5173625,8.0853969 C58.8579695,6.49525467 52.2075501,11.1512087 50.0266997,12.9137937 C47.9295024,11.2495378 41.7333045,6.96782117 34.520795,7.888005 C34.5824341,7.57540666 34.6330663,7.34132481 34.6682886,7.2158452 L34.6932378,7.12705553 C34.9999657,6.04103315 35.8144825,3.15500205 34.3953154,1.34031736 C33.6637179,0.405457551 32.5204592,-0.0428935804 31.0088335,0.00333575064 C26.5480699,0.144225141 24.8016285,5.28742167 24.500771,7.98706785 C24.4442684,8.49559049 23.9115304,11.4689437 23.4286908,13.9741331 C23.3318293,14.076865 23.2371692,14.178863 23.143243,14.2823287 C23.5035383,12.6452233 23.8968545,10.6346143 23.9474866,8.6878458 C24.0803042,3.58060542 21.2228913,2.68977355 19.5080032,2.61419226 C16.7276392,2.50559002 15.1396983,5.32778061 14.6473193,7.02358988 C14.2011695,8.5579634 12.506094,19.2758302 12.3226443,20.6979325 L12.243394,21.2967124 C11.9396013,23.5472736 11.6614915,25.8536036 11.8698904,27.1502263 C12.0423331,28.2157023 12.0151826,30.9256216 11.9997728,32.3814787 C11.9968376,32.7491119 11.9931686,33.0631779 11.9931686,33.2935907 C11.9931686,33.6847055 11.9491407,34.1924944 11.8977748,34.7817349 C11.7979781,35.9367344 11.6732323,37.3742464 11.7664247,39.0781275 C11.8141217,39.9498806 11.7201954,41.130563 11.5778384,42.3097779 C11.5646301,42.2892315 11.5514217,42.2686851 11.5389471,42.2481388 C11.4340138,42.0815664 11.2579021,41.801989 11.2307515,41.7249401 C11.1903926,41.5209441 11.1984644,40.7467862 11.2028672,40.2844929 C11.210939,39.5022633 11.2124066,39.0443727 11.1551703,38.7288392 C11.0443666,38.1212537 10.2944241,35.6476176 8.9853269,32.4218376 C7.62853272,29.0793836 4.90613878,28.125445 2.8118767,28.3529227 C1.97314455,28.4424461 1.21733168,28.9340914 0.683126074,29.7361336 C0.0454548248,30.6922736 -0.165145461,31.9125812 0.133510693,32.9193533 C0.526093108,34.2445941 1.15275737,39.2336929 0.807138089,40.1127839 C0.0755405799,41.5194765 0.42409506,44.1780299 0.844561833,46.1600207 C0.94068949,46.6127747 1.18357693,47.6525677 1.47709649,48.9117666 C2.03404986,51.2966131 3.07090771,55.7375641 3.10979906,56.3260708 C3.10979906,56.9087071 3.23968146,57.6557144 3.39084404,58.5193957 C3.47156192,58.9831566 3.55741639,59.4733343 3.62419209,59.9569078 C3.87955411,61.8104838 6.38988017,64.0749872 7.67256065,64.6906445 C8.51716319,65.0964353 10.0874929,66.7063901 10.543182,67.2743505 C10.8322987,67.6368471 11.1896588,67.7571901 11.4031943,67.8291024 C11.7187278,67.9362371 12.55746,68.2194834 14.7397779,71.3645456 C17.35944,75.1399409 17.3454978,75.8972214 17.3176135,77.4059119 C17.3132107,77.5996349 17.3095417,77.8028972 17.3095417,78.0215692 C17.3095417,80.0996877 16.1237227,115.160599 16.1119819,115.515024 L16.0730905,116.652413 L44.3639735,116.652413 L44.3155428,115.504751 C43.7292375,101.769503 42.9235263,80.8158755 43.1040408,79.3923056 C43.2962961,78.171998 43.643383,77.5086438 45.3105741,74.3195537 C45.7405803,73.4947638 46.2549733,72.5114732 46.8706306,71.3168486 C47.1861641,70.7055941 47.4818851,70.0253626 47.7621963,69.2915636 C48.5216781,70.0664553 49.0177262,70.5705751 49.1336664,70.6887168 L49.9313058,71.4988308 L50.7150031,70.6755084 C50.7546282,70.6336818 51.5845548,69.7619287 52.9053928,68.3728474 C53.2781627,69.4706106 53.6861548,70.4575701 54.1293694,71.3168486 C54.7442929,72.5100056 55.2579521,73.4932962 55.6886921,74.3166186 C57.356617,77.50791 57.7029701,78.171998 57.8952254,79.3857014 C58.0764737,80.8158755 57.2707625,101.769503 56.685191,115.504751 L56.6360265,116.652413 L84.9269095,116.652413 L84.8880181,115.515024 C84.8762773,115.160599 83.6904583,80.0996877 83.6904583,78.0215692 C83.6904583,77.8028972 83.6867893,77.5989011 83.6823865,77.4051781 C83.6545022,75.8964876 83.64056,75.1399409 86.2602221,71.3645456 C88.44254,68.2194834 89.2812722,67.9362371 89.5968057,67.8291024 C89.8103412,67.7571901 90.1677013,67.6368471 90.456818,67.2750843 C90.9117733,66.7063901 92.4813692,65.0971691 93.3281731,64.6906445 C94.609386,64.075721 97.1204459,61.8104838 97.3758079,59.9569078 C97.4418498,59.4748019 97.5277043,58.9860918 97.6084222,58.5230647 C97.7595847,57.657182 97.8894671,56.9094409 97.8887333,56.3510199 C97.9290923,55.7375641 98.9659501,51.2980807 99.5221697,48.9132342 C99.8164231,47.6540353 100.059311,46.6127747 100.155438,46.1600207 C100.575905,44.1772961 100.924459,41.5187427 100.200934,40.1303951 C99.8465088,39.2329591 100.473907,34.2445941 100.866489,32.9200871 C101.165145,31.9118474 100.954545,30.6915398 100.316874,29.7353998 Z M52.289442,33.2557267 C52.0421518,33.1867496 51.8227459,33.1185063 51.6319582,33.050263 C51.4404367,32.9820197 51.2217646,32.9020356 50.9744744,32.8110446 L50.9744744,25.3996756 C51.621685,25.6044055 52.0847121,25.9683698 52.3642895,26.4923022 C52.6431331,27.0162346 52.7832887,27.6076765 52.7832887,28.2680955 C52.7832887,28.5197886 52.7664113,28.729655 52.7326566,28.8998964 C52.6996356,29.0708715 52.6490035,29.2477171 52.5822278,29.4296992 C52.6710174,29.7716495 52.844194,30.0563635 53.1010236,30.2838411 C53.3578532,30.5113188 53.6755881,30.6250576 54.055696,30.6250576 C54.5245935,30.6250576 54.9149745,30.4489459 55.2275728,30.0959886 C55.5401712,29.7430313 55.6964703,29.3269674 55.6964703,28.8492643 C55.6964703,27.7331561 55.2444502,26.8335187 54.34041,26.1503519 C53.4363697,25.4671851 52.3143912,25.0349775 50.9744744,24.8522616 L51.0082291,20.8215042 L50.3720255,20.8215042 L50.4050464,24.7847521 C50.2736964,24.7612706 50.1313394,24.7502636 49.9787093,24.7502636 L49.5846592,24.7502636 L49.1583221,24.7502636 C49.0262383,24.7502636 48.8948883,24.7612706 48.7642721,24.7847521 L48.7980268,20.8215042 L48.1618232,20.8215042 L48.1948441,24.8522616 C47.5028717,24.9667343 46.8556611,25.1597234 46.2524784,25.4326966 C45.6500295,25.7071373 45.1304999,26.0600946 44.6953571,26.4923022 C44.2602144,26.9252435 43.9138613,27.4315648 43.6570317,28.0119997 C43.4002021,28.5924346 43.2725211,29.2477171 43.2725211,29.9763794 C43.2725211,31.0917537 43.6122699,32.0317501 44.2932353,32.7941672 C44.9742007,33.557318 45.8173357,34.1318826 46.8219064,34.5185946 C46.9774717,34.5648239 47.184403,34.6382038 47.4412326,34.7409357 C47.6980623,34.8436675 47.9490215,34.9287882 48.1948441,34.9977653 L48.1948441,42.5808432 C47.3018108,42.3988611 46.6986281,42.0290264 46.3867636,41.4706054 C46.0734315,40.9121845 45.9178661,40.2921244 45.9178661,39.6089576 C45.9178661,39.3579984 45.9347435,39.1473981 45.9677644,38.9771568 C46.0015192,38.8061816 46.0521513,38.6300699 46.1181932,38.447354 C46.0294035,38.1054037 45.84522,37.8206897 45.5663764,37.593212 C45.2867991,37.3657344 44.9573233,37.2519955 44.5779493,37.2519955 C44.1310658,37.2519955 43.7406848,37.4281073 43.4060725,37.7817983 C43.0714602,38.1347556 42.904154,38.549352 42.904154,39.0277889 C42.904154,40.1893926 43.3833247,41.1227848 44.3438675,41.8286993 C45.3036764,42.5346139 46.5878245,42.9448074 48.1948441,43.0585463 L48.1618232,47.908957 L48.7980268,47.908957 L48.7642721,43.1267896 L49.487064,43.1267896 L49.9456883,43.1267896 C50.0983185,43.1267896 50.2516825,43.1150488 50.4050464,43.0930348 L50.3720255,47.908957 L51.0082291,47.908957 L50.9744744,43.0240577 C52.5242577,42.8193278 53.7768524,42.2557703 54.7329924,41.333385 C55.6876647,40.4117336 56.1653678,39.3014959 56.1653678,38.0026718 C56.1653678,36.8418019 55.8226837,35.8577776 55.1373156,35.0483974 C54.4519474,34.2404848 53.5024116,33.6424387 52.289442,33.2557267 Z M48.1948441,31.9913912 C47.480124,31.6956702 46.8945525,31.291347 46.4366619,30.7791554 C45.9795052,30.26623 45.75056,29.5779266 45.75056,28.7120439 C45.75056,27.8476288 45.9677644,27.1358438 46.403641,26.5774229 C46.8387837,26.0197357 47.4353622,25.6271533 48.1948441,25.3996756 L48.1948441,31.9913912 Z M52.8750135,41.1631437 C52.4450074,41.789808 51.8117389,42.2271521 50.9744744,42.4781113 L50.9744744,35.8174187 C51.6759861,36.0683779 52.274766,36.4382125 52.7730155,36.9276564 C53.2705311,37.4178341 53.5200228,38.1054037 53.5200228,38.9940341 C53.5200228,39.8136875 53.3042859,40.5364794 52.8750135,41.1631437 Z" id="Combined-Shape" fill="#000000"></path>
                <g id="Group-2-Copy-2" transform="translate(68.000000, 0.000000)">
                    <circle id="Oval-1" fill="#FC6E5E" cx="30" cy="30" r="30"></circle>
                    <path d="M23.9154746,30.9181019 L28.1477079,30.9181019 L28.1477079,24.001709 C27.9646015,24.2930146 26.5538712,26.5984559 23.9154746,30.9181019 L23.9154746,30.9181019 Z M28.09777,38.1590909 L28.09777,33.4025102 L20.3948558,33.4025102 L20.3948558,31.0429466 L27.6857827,19.9817116 L31.2563393,19.9817116 L31.2563393,30.9181019 L34.1152815,30.9181019 L34.1152815,33.4025102 L31.3187617,33.4025102 L31.3187617,38.1590909 L28.09777,38.1590909 Z M43.8906167,38.2839355 C43.1998062,38.2839355 42.6442531,38.0612982 42.2239408,37.6160167 C41.8036284,37.1707353 41.5934753,36.6047786 41.5934753,35.9181297 C41.5934753,35.2439652 41.8036284,34.6790489 42.2239408,34.2233637 C42.6442531,33.7676785 43.1977255,33.5398393 43.8843744,33.5398393 C44.5710234,33.5398393 45.1265765,33.7687189 45.5510504,34.2264848 C45.9755243,34.6842508 46.187758,35.2481268 46.187758,35.9181297 C46.187758,36.6089401 45.977605,37.1759372 45.5572926,37.6191379 C45.1369802,38.0623385 44.5814271,38.2839355 43.8906167,38.2839355 L43.8906167,38.2839355 Z M43.8843744,37.3101474 C44.2131336,37.3101474 44.4596993,37.199869 44.6240789,36.9793091 C44.7884585,36.7587491 44.8706471,36.4050262 44.8706471,35.9181297 C44.8706471,35.4520407 44.7915796,35.1024792 44.6334423,34.8694347 C44.4753049,34.6363902 44.2256182,34.5198697 43.8843744,34.5198697 C43.5472922,34.5198697 43.2996862,34.6343095 43.1415489,34.8631925 C42.9834115,35.0920755 42.904344,35.4416369 42.904344,35.9118874 C42.904344,36.398784 42.9854922,36.7535472 43.1477911,36.976188 C43.3100899,37.1988287 43.5556153,37.3101474 43.8843744,37.3101474 L43.8843744,37.3101474 Z M37.3487577,38.1590909 L43.1602755,29.0704013 L44.4274486,29.0704013 L38.6159307,38.1590909 L37.3487577,38.1590909 Z M37.841894,33.6958951 C37.1344375,33.6958951 36.574723,33.4867824 36.1627336,33.0685508 C35.7507442,32.6503192 35.5447526,32.0708378 35.5447526,31.3300892 C35.5447526,30.6018252 35.7507442,30.0244245 36.1627336,29.5978699 C36.574723,29.1713152 37.1344375,28.9580411 37.841894,28.9580411 C38.545189,28.9580411 39.1038631,29.1723556 39.5179332,29.600991 C39.9320034,30.0296264 40.1390353,30.6059867 40.1390353,31.3300892 C40.1390353,32.0749993 39.9330437,32.655521 39.5210544,33.0716719 C39.109065,33.4878228 38.5493505,33.6958951 37.841894,33.6958951 L37.841894,33.6958951 Z M37.841894,32.7221069 C38.1706532,32.7221069 38.4161785,32.612869 38.5784773,32.3943898 C38.7407762,32.1759106 38.8219244,31.823228 38.8219244,31.3363315 C38.8219244,30.866081 38.7438973,30.5144388 38.5878407,30.2813943 C38.4317841,30.0483498 38.1831377,29.9318293 37.841894,29.9318293 C37.5006503,29.9318293 37.2520038,30.0473094 37.0959473,30.2782731 C36.9398907,30.5092369 36.8618636,30.8598387 36.8618636,31.3300892 C36.8618636,31.8169857 36.9430118,32.1707087 37.1053106,32.3912686 C37.2676095,32.6118286 37.5131348,32.7221069 37.841894,32.7221069 L37.841894,32.7221069 Z" id="4%" fill="#FFFFFF"></path>
                </g>
            </g>
        </g>
    </g>
</svg>