<?xml version="1.0" encoding="UTF-8" standalone="no"?>
<svg width="35px" height="35px" viewBox="0 0 35 35" version="1.1" xmlns="http://www.w3.org/2000/svg" xmlns:xlink="http://www.w3.org/1999/xlink" xmlns:sketch="http://www.bohemiancoding.com/sketch/ns">
    <!-- Generator: Sketch 3.4.2 (15857) - http://www.bohemiancoding.com/sketch -->
    <title>ok3</title>
    <desc>Created with Sketch.</desc>
    <defs></defs>
    <g id="Page-1" stroke="none" stroke-width="1" fill="none" fill-rule="evenodd" sketch:type="MSPage">
        <g id="transfers" sketch:type="MSArtboardGroup" transform="translate(-133.000000, -267.000000)" fill="#9B9B9B">
            <g id="row-1" sketch:type="MSLayerGroup" transform="translate(132.000000, 246.000000)">
                <g id="ok3" transform="translate(1.000000, 21.000000)" sketch:type="MSShapeGroup">
                    <g id="Group">
                        <path d="M32.55,8.77555556 C30.9958333,6.11277778 28.8875,4.00444444 26.2247222,2.45027778 C23.5613889,0.896111111 20.6538889,0.119166667 17.5002778,0.119166667 C14.3469444,0.119166667 11.4386111,0.896111111 8.77583333,2.45027778 C6.11277778,4.00416667 4.00444444,6.1125 2.45027778,8.77555556 C0.895833333,11.4386111 0.118888889,14.3469444 0.118888889,17.5 C0.118888889,20.6533333 0.896111111,23.5611111 2.45,26.2244444 C4.00416667,28.8869444 6.1125,30.9955556 8.77555556,32.5497222 C11.4386111,34.1038889 14.3466667,34.8808333 17.5,34.8808333 C20.6533333,34.8808333 23.5616667,34.1038889 26.2244444,32.5497222 C28.8872222,30.9958333 30.9955556,28.8872222 32.5497222,26.2244444 C34.1036111,23.5613889 34.8805556,20.6530556 34.8805556,17.5 C34.8805556,14.3466667 34.1036111,11.4383333 32.55,8.77555556 L32.55,8.77555556 Z M28.1594444,23.6783333 C27.0580556,25.5641667 25.5644444,27.0580556 23.6783333,28.1594444 C21.7925,29.2608333 19.7330556,29.8111111 17.5,29.8111111 C15.2672222,29.8111111 13.2077778,29.2608333 11.3216667,28.1594444 C9.43583333,27.0580556 7.94222222,25.5641667 6.84083333,23.6783333 C5.73916667,21.7925 5.18861111,19.7330556 5.18861111,17.5 C5.18861111,15.2669444 5.73944444,13.2075 6.84083333,11.3216667 C7.94194444,9.43583333 9.43583333,7.94194444 11.3216667,6.84055556 C13.2075,5.73916667 15.2669444,5.18861111 17.5,5.18861111 C19.7330556,5.18861111 21.7925,5.73916667 23.6783333,6.84055556 C25.5644444,7.94194444 27.0580556,9.43583333 28.1594444,11.3216667 C29.2608333,13.2075 29.8111111,15.2669444 29.8111111,17.5 C29.8111111,19.7330556 29.2608333,21.7925 28.1594444,23.6783333 L28.1594444,23.6783333 Z" id="Shape"></path>
                        <path d="M24.3119444,11.2763889 C24.0255556,10.9897222 23.6858333,10.8463889 23.2936111,10.8463889 C22.9013889,10.8463889 22.5622222,10.9897222 22.2752778,11.2763889 L16.0516667,17.5 L12.7247222,14.1730556 C12.4380556,13.8863889 12.0988889,13.7430556 11.7063889,13.7430556 C11.3138889,13.7430556 10.9744444,13.8863889 10.6877778,14.1730556 L8.37944444,16.4816667 C8.09277778,16.7680556 7.94944444,17.1077778 7.94944444,17.5 C7.94944444,17.8922222 8.09277778,18.2316667 8.37944444,18.5183333 L15.0330556,25.1719444 C15.3197222,25.4583333 15.6591667,25.6019444 16.0513889,25.6019444 C16.4438889,25.6019444 16.7833333,25.4583333 17.07,25.1719444 L26.6205556,15.6213889 C26.9072222,15.335 27.0508333,14.9955556 27.0508333,14.6033333 C27.0508333,14.2111111 26.9075,13.8716667 26.6208333,13.585 L24.3119444,11.2763889 L24.3119444,11.2763889 Z" id="Shape"></path>
                    </g>
                </g>
            </g>
        </g>
    </g>
</svg>