<?xml version="1.0" encoding="UTF-8" standalone="no"?>
<svg width="29px" height="36px" viewBox="0 0 29 36" version="1.1" xmlns="http://www.w3.org/2000/svg" xmlns:xlink="http://www.w3.org/1999/xlink" xmlns:sketch="http://www.bohemiancoding.com/sketch/ns">
    <!-- Generator: Sketch 3.4.3 (16044) - http://www.bohemiancoding.com/sketch -->
    <title>Fill 198</title>
    <desc>Created with Sketch.</desc>
    <defs></defs>
    <g id="Home" stroke="none" stroke-width="1" fill="none" fill-rule="evenodd" sketch:type="MSPage">
        <g id="Cart" sketch:type="MSArtboardGroup" transform="translate(-691.000000, -374.000000)" fill="#919191">
            <g id="Group" sketch:type="MSLayerGroup" transform="translate(155.000000, 218.000000)">
                <g id="Fill-198-+-Fill-212-Copy-4" transform="translate(531.000000, 0.000000)" sketch:type="MSShapeGroup">
                    <path d="M12.8076923,172.730769 C12.8076923,172.115077 13.3073846,171.615385 13.9230769,171.615385 C14.5387692,171.615385 15.0384615,172.115077 15.0384615,172.730769 L15.0384615,186.115385 C15.0384615,186.732192 14.5387692,187.230769 13.9230769,187.230769 C13.3073846,187.230769 12.8076923,186.732192 12.8076923,186.115385 L12.8076923,172.730769 L12.8076923,172.730769 Z M18.3846154,172.730769 C18.3846154,172.115077 18.8843077,171.615385 19.5,171.615385 C20.1156923,171.615385 20.6153846,172.115077 20.6153846,172.730769 L20.6153846,186.115385 C20.6153846,186.732192 20.1156923,187.230769 19.5,187.230769 C18.8843077,187.230769 18.3846154,186.732192 18.3846154,186.115385 L18.3846154,172.730769 L18.3846154,172.730769 Z M23.9615385,172.730769 C23.9615385,172.115077 24.4612308,171.615385 25.0769231,171.615385 C25.6926154,171.615385 26.1923077,172.115077 26.1923077,172.730769 L26.1923077,186.115385 C26.1923077,186.732192 25.6926154,187.230769 25.0769231,187.230769 C24.4612308,187.230769 23.9615385,186.732192 23.9615385,186.115385 L23.9615385,172.730769 L23.9615385,172.730769 Z M7.23076923,187.230769 C7.23076923,189.694654 9.22842308,191.692308 11.6923077,191.692308 L27.3076923,191.692308 C29.7715769,191.692308 31.7692308,189.694654 31.7692308,187.230769 L31.7692308,169.384615 L7.23076923,169.384615 L7.23076923,187.230769 L7.23076923,187.230769 Z M22.8461538,160.461538 L16.1538462,160.461538 L16.1538462,159.346154 C16.1538462,158.729346 16.6535385,158.230769 17.2692308,158.230769 L21.7307692,158.230769 C22.3464615,158.230769 22.8461538,158.729346 22.8461538,159.346154 L22.8461538,160.461538 L22.8461538,160.461538 Z M31.7692308,160.461538 L25.0769231,160.461538 L25.0769231,158.230769 C25.0769231,156.999385 24.0775385,156 22.8461538,156 L16.1538462,156 C14.9224615,156 13.9230769,156.999385 13.9230769,158.230769 L13.9230769,160.461538 L7.23076923,160.461538 C5.99938462,160.461538 5,161.460923 5,162.692308 L5,164.923077 C5,166.154462 5.99826923,167.152731 7.22965385,167.153846 L31.7714615,167.153846 C33.0017308,167.152731 34,166.154462 34,164.923077 L34,162.692308 C34,161.460923 33.0006154,160.461538 31.7692308,160.461538 L31.7692308,160.461538 Z" id="Fill-198"></path>
                </g>
            </g>
        </g>
    </g>
</svg>