<?xml version="1.0" encoding="UTF-8" standalone="no"?>
<svg width="18px" height="36px" viewBox="0 0 18 36" version="1.1" xmlns="http://www.w3.org/2000/svg" xmlns:xlink="http://www.w3.org/1999/xlink" xmlns:sketch="http://www.bohemiancoding.com/sketch/ns">
    <!-- Generator: Sketch 3.4.3 (16044) - http://www.bohemiancoding.com/sketch -->
    <title>Fill 4</title>
    <desc>Created with Sketch.</desc>
    <defs></defs>
    <g id="Entry" stroke="none" stroke-width="1" fill="none" fill-rule="evenodd" sketch:type="MSPage">
        <g sketch:type="MSArtboardGroup" transform="translate(-77.000000, -1003.000000)" id="Social-Login-Copy" fill="#FFFFFF">
            <g sketch:type="MSLayerGroup" transform="translate(30.000000, 971.000000)">
                <path d="M47,43.905 L50.721,43.905 L50.721,40.289 C50.721,38.693 50.761,36.233 51.919,34.709 C53.14,33.096 54.815,32 57.697,32 C62.392,32 64.369,32.669 64.369,32.669 L63.438,38.184 C63.438,38.184 61.888,37.734 60.441,37.734 C58.993,37.734 57.697,38.253 57.697,39.7 L57.697,43.905 L63.632,43.905 L63.218,49.291 L57.697,49.291 L57.697,68 L50.721,68 L50.721,49.291 L47,49.291 L47,43.905" id="Fill-4" sketch:type="MSShapeGroup"></path>
            </g>
        </g>
    </g>
</svg>