<?xml version="1.0" encoding="UTF-8" standalone="no"?>
<svg width="253px" height="211px" viewBox="0 0 253 211" version="1.1" xmlns="http://www.w3.org/2000/svg" xmlns:xlink="http://www.w3.org/1999/xlink" xmlns:sketch="http://www.bohemiancoding.com/sketch/ns">
    <!-- Generator: Sketch 3.4.3 (16044) - http://www.bohemiancoding.com/sketch -->
    <title>Placeholder Copy 5</title>
    <desc>Created with Sketch.</desc>
    <defs></defs>
    <g id="Home" stroke="none" stroke-width="1" fill="none" fill-rule="evenodd" sketch:type="MSPage">
        <g id="Shop" sketch:type="MSArtboardGroup" transform="translate(-249.000000, -5205.000000)" fill="#666666">
            <path d="M401.691112,5415.2738 C370.588155,5415.2738 339.485198,5415.19279 308.383415,5415.35951 C303.647115,5415.38534 301.113417,5414.16546 299.293569,5409.3681 C283.030002,5366.49719 266.590321,5323.69085 249.801933,5281.02423 C247.851761,5276.06837 249.625818,5274.95533 253.314826,5273.53468 C272.615777,5266.09913 291.868591,5258.54031 311.18011,5251.13177 C350.527564,5236.03525 389.943115,5221.1125 429.208382,5205.80464 C433.534923,5204.11747 435.047158,5205.06379 436.486599,5208.83029 C442.96056,5225.7807 449.66934,5242.64306 455.983624,5259.65218 C457.433632,5263.55839 459.274613,5265.20799 463.549494,5265.09645 C474.10461,5264.82172 484.677338,5265.18686 495.234802,5264.92621 C500.173047,5264.80528 501.64184,5266.73667 501.630099,5271.49293 C501.509167,5317.4611 501.496252,5363.43163 501.652407,5409.3998 C501.66767,5414.11145 500.141346,5415.38417 495.585857,5415.35951 C464.288,5415.19514 432.988969,5415.2738 401.691112,5415.2738 L401.691112,5415.2738 Z M401.756861,5282.60221 C376.141625,5282.60221 350.525215,5282.73489 324.913502,5282.49068 C319.753353,5282.44136 318.251685,5283.92542 318.283386,5289.10553 C318.497071,5323.51826 318.498245,5357.93334 318.283386,5392.3449 C318.251685,5397.5344 319.778009,5398.97149 324.922895,5398.95388 C376.152192,5398.77776 427.38149,5398.77776 478.610788,5398.95505 C483.77211,5398.97384 485.269082,5397.51444 485.237381,5392.3402 C485.023696,5357.92747 485.023696,5323.51239 485.237381,5289.10083 C485.270256,5283.91133 483.750977,5282.44254 478.600221,5282.49068 C452.987333,5282.73371 427.370923,5282.60221 401.756861,5282.60221 L401.756861,5282.60221 Z M324.852449,5264.37204 C326.425736,5264.76536 326.917682,5264.99666 327.410802,5264.99666 C363.169047,5265.01075 398.927292,5264.95322 434.685536,5265.07415 C438.885275,5265.08824 439.286816,5263.57248 437.974177,5260.21926 C434.065614,5250.23711 430.103043,5240.27138 426.439866,5230.19882 C425.074393,5226.44641 423.441226,5226.21277 419.897807,5227.60994 C400.679042,5235.18873 381.327604,5242.43172 362.046612,5249.85318 C349.93582,5254.51433 337.869643,5259.28586 324.852449,5264.37204 L324.852449,5264.37204 Z M300.559244,5365.68119 C301.028882,5365.64362 301.49852,5365.60605 301.968158,5365.56848 C301.968158,5352.37752 301.968158,5339.18656 301.966984,5325.9956 C301.966984,5309.99151 301.871883,5293.98507 302.030386,5277.98215 C302.069131,5274.07124 300.90208,5273.08617 297.303478,5274.52796 C289.714126,5277.57122 282.105989,5280.57455 274.446192,5283.4323 C270.707873,5284.82713 269.814386,5286.90997 271.478079,5290.58724 C273.48226,5295.01592 275.123645,5299.61251 276.874221,5304.15391 C284.77823,5324.65948 292.665802,5345.17092 300.559244,5365.68119 Z M340.651074,5383.47578 C349.091645,5372.45455 359.137204,5362.88098 368.394945,5352.59708 C370.214793,5350.57528 371.213948,5351.50517 372.732053,5352.53015 C376.938836,5355.37029 381.468495,5357.80536 385.352403,5361.02356 C388.8923,5363.95645 390.612349,5362.66612 392.724547,5359.55359 C402.692615,5344.86331 412.802749,5330.26931 422.813085,5315.60838 C427.132582,5309.28353 427.382664,5309.25535 430.733532,5315.89134 C432.319735,5319.03439 434.188894,5322.07647 435.387645,5325.36159 C437.317858,5330.65206 440.666378,5331.87312 445.363933,5329.32064 C450.594527,5326.47933 452.791259,5328.30857 454.329324,5333.65422 C458.699306,5348.8341 463.549494,5363.87544 468.104983,5379.00248 C469.774547,5384.54773 468.82353,5385.89442 463.349898,5385.89559 C422.47612,5385.90029 381.603516,5385.85215 340.729739,5385.82162 C340.702735,5385.03968 340.676904,5384.25773 340.651074,5383.47578 Z M339.527465,5316.43964 C339.557992,5308.08478 347.021715,5300.45198 354.99617,5300.61871 C364.022614,5300.80774 371.305527,5308.30668 371.233907,5317.33665 C371.170506,5325.25475 363.164351,5333.14467 355.253297,5333.08361 C345.798308,5333.00965 339.492242,5326.33374 339.527465,5316.43964 Z M340.651074,5383.47578 C340.676904,5384.25773 340.702735,5385.03968 340.729739,5385.82162 C339.447627,5385.08077 339.710624,5384.28943 340.651074,5383.47578 Z" id="Placeholder-Copy-5" sketch:type="MSShapeGroup"></path>
        </g>
    </g>
</svg>