<?xml version="1.0" encoding="UTF-8" standalone="no"?>
<svg width="26px" height="26px" viewBox="0 0 26 26" version="1.1" xmlns="http://www.w3.org/2000/svg" xmlns:xlink="http://www.w3.org/1999/xlink">
    <!-- Generator: Sketch 3.8.2 (29753) - http://www.bohemiancoding.com/sketch -->
    <title>Combined Shape Copy 2</title>
    <desc>Created with Sketch.</desc>
    <defs></defs>
    <g id="Shop" stroke="none" stroke-width="1" fill="none" fill-rule="evenodd">
        <g id="-shop_category_mobile" transform="translate(-34.000000, -1651.000000)" fill="#FC6E5E">
            <path d="M51.997135,1664.44264 C51.7503533,1664.19644 51.4223515,1664.06076 51.0735688,1664.06076 C50.988847,1664.06076 50.9055715,1664.06912 50.8244274,1664.08455 L45.0787994,1658.3474 L46.1920572,1657.23542 C46.3704829,1657.05725 46.3704829,1656.76871 46.1920572,1656.59054 L45.9104886,1656.30937 L50.1372143,1652.08828 C50.2638783,1651.9618 50.3049071,1651.77329 50.2418796,1651.60583 C50.1791565,1651.43838 50.024252,1651.32314 49.8455218,1651.31068 C47.4201042,1651.14497 45.0425662,1652.01584 43.300099,1653.7027 L43.017008,1653.42001 C42.9313728,1653.3345 42.8151373,1653.28638 42.6941062,1653.28638 C42.5730751,1653.28638 42.4568395,1653.3345 42.3712043,1653.42001 L37.8352023,1657.94925 C37.6570811,1658.12742 37.6570811,1658.41627 37.8352023,1658.59444 L38.2722844,1659.0306 L37.4718806,1659.82994 L37.0347224,1659.39378 C36.8563728,1659.21561 36.5673444,1659.21561 36.3889187,1659.39378 L34.7559123,1661.02446 C34.6702771,1661.10998 34.622093,1661.22605 34.622093,1661.34691 C34.622093,1661.46807 34.6702771,1661.58384 34.7559123,1661.66935 L37.9309615,1664.83988 C38.0201744,1664.92897 38.1370188,1664.97351 38.2538633,1664.97351 C38.3707078,1664.97351 38.4875523,1664.92897 38.5767652,1664.83988 L40.2097716,1663.2092 C40.2954068,1663.12369 40.3435909,1663.00792 40.3435909,1662.88676 C40.3435909,1662.7659 40.2954068,1662.64983 40.2097716,1662.56431 L39.7726895,1662.12785 L40.5731694,1661.32851 L41.010556,1661.76497 C41.0958867,1661.85049 41.2121222,1661.8986 41.3334578,1661.8986 C41.4544889,1661.8986 41.5707244,1661.85049 41.6563596,1661.76497 L42.7696174,1660.6533 L48.5155498,1666.39098 C48.4361565,1666.80198 48.5556652,1667.24406 48.8738475,1667.56149 L55.6877462,1674.36577 C55.9342234,1674.6122 56.2625298,1674.74788 56.6113125,1674.74788 C56.9600952,1674.74788 57.2880971,1674.6122 57.5348787,1674.36577 L58.8110337,1673.09135 C59.3201255,1672.58298 59.3201255,1671.75552 58.8110337,1671.24685 L51.997135,1664.44264 Z M48.7108742,1652.22252 L45.2643805,1655.66411 L43.9459027,1654.34728 C45.243219,1653.09635 46.9318693,1652.35022 48.7108742,1652.22252 L48.7108742,1652.22252 Z M38.2538633,1663.87255 L35.7246178,1661.34691 L36.7118206,1660.36111 L39.2410661,1662.88676 L38.2538633,1663.87255 Z M39.1268858,1661.48289 L38.1176843,1660.47513 L38.9181642,1659.67556 L39.9272896,1660.68363 L39.1268858,1661.48289 Z M41.3334578,1660.79765 L38.8042123,1658.272 L42.6941062,1654.38734 L45.2233517,1656.91298 L41.3334578,1660.79765 Z M44.4329958,1658.99236 L50.0206743,1664.57209 L49.0031757,1665.58784 L43.4154972,1660.00811 L44.4329958,1658.99236 Z M58.1649255,1672.44647 L56.8887705,1673.72081 C56.8147056,1673.79507 56.7159777,1673.83574 56.611008,1673.83574 C56.5063427,1673.83574 56.4076148,1673.79476 56.333626,1673.72081 L49.5196512,1666.9166 C49.3668019,1666.76397 49.3664974,1666.51541 49.5193467,1666.36248 L50.7961107,1665.08722 C50.8704801,1665.01357 50.968599,1664.9729 51.0735688,1664.9729 C51.178234,1664.9729 51.2769619,1665.01357 51.3510268,1665.08753 L58.16523,1671.89181 C58.3180793,1672.04467 58.3180793,1672.29353 58.1649255,1672.44647 Z M49.7548626,1661.56369 C49.5764369,1661.74179 49.5764369,1662.03041 49.7548626,1662.20858 C49.9332883,1662.38675 50.2222406,1662.38675 50.4006663,1662.20858 L51.3762987,1661.23441 C52.5338584,1660.0785 53.0960822,1658.50627 52.9188744,1656.92157 C52.8127628,1655.97173 53.1796621,1655.0272 53.9001397,1654.39448 C54.1071105,1654.21281 54.3381353,1654.06284 54.5866677,1653.9473 L54.2114713,1655.14867 C54.0559577,1655.64602 54.1038373,1656.17422 54.3461279,1656.63569 C54.5884946,1657.09708 54.9964227,1657.43678 55.4944771,1657.59177 C56.5227086,1657.91216 57.6202094,1657.33728 57.941056,1656.31051 L58.3288123,1655.06939 C58.6002569,1655.51064 58.7492241,1656.01779 58.7575212,1656.54987 C58.7703094,1657.3483 58.4658286,1658.09892 57.9005601,1658.66361 C57.5684477,1658.99502 57.1750586,1659.23553 56.7314301,1659.37835 C55.9045365,1659.64409 55.1516317,1660.10016 54.5534032,1660.69723 L52.166883,1663.08036 C51.9885334,1663.25853 51.9885334,1663.54707 52.166883,1663.72524 C52.2560959,1663.81433 52.3729404,1663.85887 52.4897849,1663.85887 C52.6067055,1663.85887 52.72355,1663.81433 52.8127628,1663.72524 L55.1995113,1661.34219 C55.6955105,1660.8469 56.3219796,1660.46806 57.0112479,1660.24656 C57.5860315,1660.06155 58.1170459,1659.73728 58.5464399,1659.30857 C59.2883072,1658.56776 59.6876338,1657.58288 59.6709634,1656.53528 C59.6545976,1655.48776 59.2232245,1654.51504 58.4569226,1653.7965 C58.3421333,1653.68901 58.1800734,1653.64804 58.0281375,1653.6881 C57.8758972,1653.72793 57.7551705,1653.84339 57.7082044,1653.99337 L57.0692515,1656.03885 C56.8982856,1656.58545 56.313987,1656.89162 55.7665306,1656.7212 C55.5013279,1656.63835 55.2842331,1656.45752 55.1552094,1656.21192 C55.0261857,1655.9661 55.0006093,1655.68524 55.0832758,1655.42034 L55.7151495,1653.39804 C55.7621156,1653.24716 55.7279377,1653.08267 55.6238053,1652.96333 C55.5200534,1652.84399 55.3615712,1652.78668 55.2057532,1652.81222 C54.4936488,1652.92798 53.833839,1653.23826 53.2971156,1653.70954 C52.3527685,1654.53852 51.8719173,1655.77729 52.011065,1657.02252 C52.157368,1658.33045 51.6905229,1659.63041 50.7301145,1660.58945 L49.7548626,1661.56369 Z M47.5197455,1667.72119 C46.3618813,1668.8771 45.7995815,1670.44903 45.9767893,1672.03433 C46.0829008,1672.98387 45.716306,1673.92839 44.9955239,1674.56112 C44.7888576,1674.74278 44.5575284,1674.89306 44.3093004,1675.00829 L44.6844969,1673.80693 C44.8400104,1673.30958 44.7921308,1672.78168 44.5498402,1672.31991 C44.3071691,1671.85851 43.8995455,1671.51912 43.4014911,1671.36383 C42.9031322,1671.20854 42.3744775,1671.25635 41.9123518,1671.49837 C41.4499978,1671.74032 41.1101212,1672.14774 40.9546076,1672.64508 L40.5669275,1673.88621 C40.2954068,1673.44496 40.1464396,1672.93811 40.1381425,1672.40572 C40.1256588,1671.60729 40.429835,1670.85668 40.995408,1670.29199 C41.3275204,1669.96027 41.7209096,1669.72007 42.164538,1669.57725 C42.9911271,1669.31181 43.7443364,1668.85544 44.3422605,1668.25836 L46.7671452,1665.83693 C46.9455709,1665.65883 46.9455709,1665.37022 46.7671452,1665.19204 C46.5887195,1665.01387 46.2996911,1665.01387 46.1212654,1665.19204 L43.6964568,1667.6134 C43.2004577,1668.1087 42.5739885,1668.48754 41.8847202,1668.70911 C41.3099367,1668.89405 40.7789222,1669.21832 40.3495282,1669.64702 C39.6076609,1670.38784 39.2083344,1671.3728 39.2250047,1672.42032 C39.2413705,1673.46784 39.6725153,1674.44056 40.4390456,1675.1591 C40.5538348,1675.26658 40.7158947,1675.30755 40.8678306,1675.26749 C41.020071,1675.22766 41.1407976,1675.1122 41.1877638,1674.96223 L41.8267166,1672.91675 C41.9093831,1672.65193 42.0904731,1672.43514 42.3364174,1672.3063 C42.5825901,1672.17738 42.8641587,1672.15192 43.1294375,1672.2347 C43.3946403,1672.31725 43.611735,1672.49808 43.7407588,1672.74367 C43.8697825,1672.98949 43.8953589,1673.27066 43.8126923,1673.53526 L43.1808948,1675.55756 C43.1338525,1675.70844 43.1681066,1675.87293 43.2718584,1675.99227 C43.3595489,1676.09291 43.4856039,1676.14931 43.616759,1676.14931 C43.6411174,1676.14931 43.6658565,1676.14756 43.690215,1676.14338 C44.4020148,1676.02761 45.0621291,1675.71733 45.5988526,1675.24636 C46.5431996,1674.41707 47.0240508,1673.17831 46.8849031,1671.93308 C46.7386001,1670.62515 47.2054453,1669.32519 48.1655492,1668.36615 C48.3439749,1668.18828 48.3439749,1667.89936 48.1655492,1667.72119 C47.9871235,1667.54309 47.6980951,1667.54309 47.5197455,1667.72119 Z" id="Combined-Shape-Copy-2"></path>
        </g>
    </g>
</svg>