<?xml version="1.0" encoding="UTF-8" standalone="no"?>
<svg width="19px" height="27px" viewBox="0 0 19 27" version="1.1" xmlns="http://www.w3.org/2000/svg" xmlns:xlink="http://www.w3.org/1999/xlink">
    <!-- Generator: Sketch 3.8.2 (29753) - http://www.bohemiancoding.com/sketch -->
    <title>Combined Shape Copy</title>
    <desc>Created with Sketch.</desc>
    <defs></defs>
    <g id="Shop" stroke="none" stroke-width="1" fill="none" fill-rule="evenodd">
        <g id="-shop_category_mobile" transform="translate(-36.000000, -1491.000000)" fill="#FC6E5E">
            <path d="M39.6518087,1505.22693 C39.6518087,1504.97518 39.4471976,1504.77086 39.1950876,1504.77086 L38.6850823,1504.77086 C38.0752835,1503.80855 37.7157678,1502.34768 37.7157678,1500.80342 C37.7157678,1499.15138 38.1266646,1497.59641 38.8150195,1496.64329 C39.2221103,1496.07967 39.2051355,1495.30655 38.7742952,1494.76253 C38.5298733,1494.45438 38.4008495,1494.08291 38.4008495,1493.68886 C38.4008495,1493.20284 38.5970874,1492.7524 38.9533299,1492.42076 C39.3095723,1492.08935 39.7751995,1491.92577 40.2631299,1491.96051 C41.1146865,1492.02048 41.8042593,1492.70664 41.8666778,1493.55675 C41.899105,1493.99679 41.7665037,1494.42701 41.4935367,1494.76846 C41.2523879,1495.06985 41.1358479,1495.45021 41.164393,1495.83977 C41.1831185,1496.09099 41.4013551,1496.28011 41.6534652,1496.2608 C41.9050424,1496.24241 42.0942011,1496.02357 42.0753994,1495.77243 C42.0638291,1495.61326 42.1104908,1495.45888 42.2071634,1495.33771 C42.6246066,1494.81597 42.8270863,1494.15983 42.7777604,1493.48994 C42.6820012,1492.1909 41.6288023,1491.14216 40.3276037,1491.05042 C39.5833767,1490.9982 38.874241,1491.24759 38.3306667,1491.7533 C37.7948567,1492.25239 37.4874073,1492.95755 37.4874073,1493.68886 C37.4874073,1494.29073 37.6845586,1494.85755 38.0580042,1495.32852 C38.2367344,1495.55412 38.2432807,1495.87542 38.0740656,1496.10969 C37.2658975,1497.22881 36.8023256,1498.93961 36.8023256,1500.80342 C36.8023256,1502.6645 37.2649841,1504.37393 38.0717058,1505.49328 C38.1573411,1505.61239 38.2952708,1505.68301 38.4424873,1505.68301 L39.1950876,1505.68301 C39.4471976,1505.68301 39.6518087,1505.47876 39.6518087,1505.22693 Z M53.7072493,1496.10969 C53.5380341,1495.87542 53.5445804,1495.55412 53.7236151,1495.32852 C54.0967563,1494.85755 54.2939076,1494.29073 54.2939076,1493.68886 C54.2939076,1492.95755 53.9864581,1492.25239 53.4506481,1491.75353 C52.9070739,1491.24789 52.1985471,1490.9982 51.4537111,1491.05042 C50.1525126,1491.14216 49.0990092,1492.1909 49.0035545,1493.48994 C48.9542286,1494.15983 49.1570128,1494.81597 49.5741514,1495.33802 C49.670824,1495.45888 49.7177902,1495.61326 49.7059154,1495.77243 C49.6871899,1496.02387 49.8762724,1496.24241 50.1278497,1496.2608 C50.3799597,1496.28011 50.5981963,1496.09099 50.6169219,1495.83977 C50.6457714,1495.45021 50.5289269,1495.06985 50.2877782,1494.76876 C50.0148112,1494.42701 49.8822098,1493.99679 49.914637,1493.55706 C49.9770556,1492.70664 50.6666283,1492.02048 51.5181849,1491.96051 C52.0070287,1491.92577 52.4718186,1492.08965 52.827985,1492.42076 C53.1842275,1492.7524 53.3804653,1493.20284 53.3804653,1493.68886 C53.3804653,1494.08321 53.2514416,1494.45438 53.0073241,1494.76253 C52.5761794,1495.30624 52.5592046,1496.07967 52.9662954,1496.64329 C53.6546502,1497.59641 54.065547,1499.15138 54.065547,1500.80342 C54.065547,1502.34768 53.7060314,1503.80825 53.0962325,1504.77086 L52.4420556,1504.77086 C52.1896411,1504.77086 51.9853345,1504.97518 51.9853345,1505.22693 C51.9853345,1505.47876 52.1896411,1505.68301 52.4420556,1505.68301 L53.3388276,1505.68301 C53.4857395,1505.68301 53.6239738,1505.61239 53.709609,1505.49328 C54.5163308,1504.37393 54.9789893,1502.6645 54.9789893,1500.80342 C54.9789893,1498.93961 54.5154173,1497.22881 53.7072493,1496.10969 Z M43.9451396,1495.81932 C43.9106571,1496.06872 44.0848963,1496.29911 44.3349511,1496.33354 C44.3560364,1496.33651 44.3771978,1496.33803 44.3982831,1496.33803 C44.622457,1496.33803 44.818162,1496.17263 44.8499803,1495.94459 C44.9082122,1495.52478 44.7910632,1495.09394 44.5285247,1494.76253 C44.2844073,1494.45438 44.1553835,1494.08321 44.1553835,1493.68886 C44.1553835,1493.20284 44.3516214,1492.7524 44.7077878,1492.42076 C45.0640302,1492.08965 45.5296574,1491.92577 46.0175878,1491.96051 C46.8692205,1492.02048 47.5584888,1492.70664 47.6212118,1493.55706 C47.653639,1493.99679 47.5209616,1494.42701 47.2477662,1494.76876 C46.9857605,1495.0963 46.8701339,1495.52561 46.9304973,1495.94642 C46.9661215,1496.19581 47.1972224,1496.36919 47.4472772,1496.33324 C47.6970276,1496.29767 47.8703532,1496.06667 47.834729,1495.8172 C47.8096854,1495.64442 47.8561187,1495.46982 47.961393,1495.33802 C48.3788361,1494.81627 48.5813158,1494.15983 48.5319899,1493.48994 C48.4365352,1492.1909 47.3830318,1491.14216 46.0818333,1491.05042 C45.3376062,1490.9982 44.6283944,1491.24789 44.0852007,1491.75353 C43.5490862,1492.25209 43.2416368,1492.95755 43.2416368,1493.68886 C43.2416368,1494.29042 43.4390926,1494.85755 43.8122337,1495.32852 C43.9210856,1495.46564 43.969498,1495.64473 43.9451396,1495.81932 Z M40.364522,1499.02725 C40.364522,1499.62881 40.5619778,1500.19594 40.935119,1500.66683 C41.1138492,1500.89221 41.1206239,1501.21351 40.9514848,1501.44778 C40.4281585,1502.17225 40.0436754,1503.15683 39.8396733,1504.29495 C39.7953714,1504.54313 39.9607044,1504.77983 40.2090085,1504.8243 C40.2360312,1504.82909 40.2634344,1504.83144 40.2898481,1504.83144 C40.5069429,1504.83144 40.6996031,1504.67646 40.7391856,1504.45557 C40.9163934,1503.46559 41.2550521,1502.58704 41.6921342,1501.9813 C42.099225,1501.41775 42.0822502,1500.64456 41.6514099,1500.10062 C41.406988,1499.79239 41.2779643,1499.42122 41.2779643,1499.02725 C41.2779643,1498.54085 41.4742021,1498.09079 41.8307491,1497.75907 C42.186611,1497.42774 42.6523143,1497.26416 43.1405492,1497.29859 C43.9921057,1497.35856 44.681374,1498.04503 44.7440971,1498.89515 C44.7765243,1499.33487 44.6439229,1499.76541 44.3706514,1500.10685 C43.9406485,1500.64425 43.9258051,1501.41539 44.3346466,1501.9813 C44.4327655,1502.11729 44.5273068,1502.26901 44.6156823,1502.43175 C44.7358,1502.65325 45.0128775,1502.7358 45.2346917,1502.61585 C45.4565059,1502.49621 45.538868,1502.21945 45.4190548,1501.99765 C45.3120298,1501.80047 45.1966316,1501.61553 45.0756766,1501.44778 C44.905548,1501.21229 44.9091257,1500.89517 45.0842782,1500.67603 C45.5017213,1500.15436 45.704201,1499.49815 45.6548751,1498.82833 C45.5594204,1497.52929 44.505917,1496.48055 43.2047185,1496.38881 C42.4598825,1496.33651 41.7513558,1496.58598 41.2077815,1497.09161 C40.6719715,1497.5904 40.364522,1498.29594 40.364522,1499.02725 Z M46.1201978,1498.82058 C46.070872,1499.49047 46.2736561,1500.1466 46.6907948,1500.66835 C46.8659473,1500.88742 46.869525,1501.20484 46.6994725,1501.44033 C46.5781369,1501.60839 46.4627387,1501.79333 46.3560182,1501.9902 C46.236205,1502.2117 46.3188715,1502.48845 46.5406858,1502.6084 C46.7625,1502.72804 47.0395775,1502.6455 47.1596951,1502.424 C47.2474617,1502.26164 47.342003,1502.11014 47.4404264,1501.97385 C47.8492679,1501.40764 47.8344245,1500.63688 47.4044215,1500.0991 C47.1314546,1499.75765 46.9988532,1499.32712 47.0309759,1498.88739 C47.0936989,1498.03728 47.7832717,1497.35081 48.6345238,1497.29114 C49.1233676,1497.25641 49.588462,1497.41998 49.9446284,1497.75139 C50.3008708,1498.08303 50.4971087,1498.53348 50.4971087,1499.0195 C50.4971087,1499.41355 50.368085,1499.78471 50.123663,1500.09317 C49.6928228,1500.63688 49.675848,1501.4103 50.0829387,1501.97363 C50.5203253,1502.57929 50.8586796,1503.45791 51.0361919,1504.44781 C51.0757744,1504.66878 51.2681301,1504.82377 51.4852249,1504.82377 C51.511943,1504.82377 51.5390418,1504.82134 51.5660645,1504.81662 C51.8143685,1504.77208 51.9797016,1504.53515 51.9353996,1504.2872 C51.7313975,1503.14907 51.3469145,1502.16449 50.8235882,1501.44002 C50.6544491,1501.20575 50.6612238,1500.88445 50.839954,1500.65915 C51.2133997,1500.18788 51.4105509,1499.62106 51.4105509,1499.0195 C51.4105509,1498.28819 51.1031015,1497.58272 50.5672915,1497.08386 C50.0237172,1496.57823 49.314886,1496.32883 48.5703545,1496.38105 C47.269156,1496.4728 46.215957,1497.52153 46.1201978,1498.82058 Z M45.8906955,1502.95699 C41.9204948,1502.95699 38.6907913,1506.18248 38.6907913,1510.14665 C38.6907913,1514.11113 41.9204948,1517.33631 45.8906955,1517.33631 C49.8605155,1517.33631 53.0905235,1514.11113 53.0905235,1510.14665 C53.0905235,1506.18248 49.86082,1502.95699 45.8906955,1502.95699 Z M45.8906955,1516.42417 C42.4241821,1516.42417 39.6042336,1513.60816 39.6042336,1510.14665 C39.6042336,1506.68545 42.4241821,1503.86913 45.8906955,1503.86913 C49.3571327,1503.86913 52.1770812,1506.68545 52.1770812,1510.14665 C52.1770812,1513.60816 49.3571327,1516.42417 45.8906955,1516.42417 Z M48.0654493,1505.58746 C47.3098803,1505.58746 46.6952859,1506.20118 46.6952859,1506.95567 C46.6952859,1507.71009 47.3098803,1508.32389 48.0654493,1508.32389 C48.8210183,1508.32389 49.4356127,1507.71009 49.4356127,1506.95567 C49.4356127,1506.20118 48.8210183,1505.58746 48.0654493,1505.58746 Z M48.0654493,1507.41174 C47.8135676,1507.41174 47.6087281,1507.20712 47.6087281,1506.95567 C47.6087281,1506.70415 47.8135676,1506.4996 48.0654493,1506.4996 C48.3172548,1506.4996 48.5221704,1506.70415 48.5221704,1506.95567 C48.5221704,1507.20712 48.3172548,1507.41174 48.0654493,1507.41174 Z M48.0654493,1508.93198 C47.3098803,1508.93198 46.6952859,1509.5457 46.6952859,1510.3002 C46.6952859,1511.05461 47.3098803,1511.66841 48.0654493,1511.66841 C48.8210183,1511.66841 49.4356127,1511.05461 49.4356127,1510.3002 C49.4356127,1509.5457 48.8210183,1508.93198 48.0654493,1508.93198 Z M48.0654493,1510.75627 C47.8135676,1510.75627 47.6087281,1510.55164 47.6087281,1510.3002 C47.6087281,1510.04867 47.8135676,1509.84412 48.0654493,1509.84412 C48.3172548,1509.84412 48.5221704,1510.04867 48.5221704,1510.3002 C48.5221704,1510.55164 48.3172548,1510.75627 48.0654493,1510.75627 Z M44.9596695,1507.25972 C44.2041005,1507.25972 43.5895061,1507.87344 43.5895061,1508.62793 C43.5895061,1509.38235 44.2041005,1509.99615 44.9596695,1509.99615 C45.7152384,1509.99615 46.3298328,1509.38235 46.3298328,1508.62793 C46.3298328,1507.87344 45.7152384,1507.25972 44.9596695,1507.25972 Z M44.9596695,1509.08401 C44.7077878,1509.08401 44.5029483,1508.87938 44.5029483,1508.62793 C44.5029483,1508.37641 44.7077878,1508.17186 44.9596695,1508.17186 C45.2115512,1508.17186 45.4163906,1508.37641 45.4163906,1508.62793 C45.4163906,1508.87938 45.2115512,1509.08401 44.9596695,1509.08401 Z" id="Combined-Shape-Copy"></path>
        </g>
    </g>
</svg>