<?xml version="1.0" encoding="UTF-8" standalone="no"?>
<svg width="24px" height="29px" viewBox="0 0 24 29" version="1.1" xmlns="http://www.w3.org/2000/svg" xmlns:xlink="http://www.w3.org/1999/xlink">
    <!-- Generator: Sketch 3.8.2 (29753) - http://www.bohemiancoding.com/sketch -->
    <title>Combined Shape</title>
    <desc>Created with Sketch.</desc>
    <defs></defs>
    <g id="Shop" stroke="none" stroke-width="1" fill="none" fill-rule="evenodd">
        <g id="-shop_category_mobile" transform="translate(-35.000000, -1729.000000)" fill="#FC6E5E">
            <path d="M43.174652,1754.18598 L43.174652,1749.00767 C46.8257568,1748.77165 49.7239569,1745.73117 49.7239569,1742.02704 L49.7239569,1741.9885 C49.7239569,1741.74496 49.5330474,1741.54695 49.2925076,1741.53357 C49.3659636,1741.24792 49.4043282,1740.95337 49.4043282,1740.65145 C49.4043282,1738.78764 47.9568267,1737.25615 46.1258317,1737.1166 C45.6895869,1735.61954 44.3120398,1734.56754 42.7182353,1734.56754 C41.1242025,1734.56754 39.7462748,1735.61954 39.3101061,1737.1166 C37.479035,1737.25646 36.031838,1738.78764 36.031838,1740.65145 C36.031838,1740.95337 36.0698981,1741.24792 36.143354,1741.53357 C35.9031187,1741.54695 35.7122093,1741.74496 35.7122093,1741.9885 L35.7122093,1742.02704 C35.7122093,1745.73117 38.6104094,1748.77165 42.2612097,1749.00767 L42.2612097,1754.18598 C40.8328144,1754.33595 39.5654894,1755.18363 38.8845943,1756.47317 C38.8099204,1756.61455 38.8150204,1756.78467 38.8976869,1756.92157 C38.9803535,1757.05839 39.1287117,1757.14185 39.2886402,1757.14185 L46.1475259,1757.14185 C46.3074545,1757.14185 46.4558888,1757.05839 46.5385553,1756.92157 C46.6211457,1756.78467 46.6262458,1756.61455 46.5515719,1756.47317 C45.8706768,1755.18363 44.6034279,1754.33595 43.174652,1754.18598 L43.174652,1754.18598 Z M48.4908859,1740.65145 C48.4908859,1740.95634 48.4397332,1741.25149 48.3398635,1741.53243 L43.3682256,1741.53243 C43.3206505,1741.3985 43.2828949,1741.2613 43.257623,1741.1209 C43.2296869,1740.96675 43.2156808,1740.8088 43.2156808,1740.65145 C43.2156808,1739.21612 44.3402804,1738.0596 45.7767445,1738.01832 C45.8023209,1738.01772 45.8278973,1738.01718 45.8534736,1738.01718 C47.3077498,1738.01718 48.4908859,1739.19887 48.4908859,1740.65145 L48.4908859,1740.65145 Z M42.7182353,1735.47968 C43.8288289,1735.47968 44.7978389,1736.16675 45.1811801,1737.16942 C44.4722728,1737.3048 43.8213691,1737.65195 43.3084713,1738.17841 C43.0715091,1738.42126 42.8740534,1738.69293 42.7179308,1738.98482 C42.5621128,1738.69293 42.3644287,1738.42126 42.1273904,1738.1781 C41.6144926,1737.65164 40.9632844,1737.30427 40.2547577,1737.16912 C40.6383273,1736.16675 41.6076418,1735.47968 42.7182353,1735.47968 L42.7182353,1735.47968 Z M39.5830731,1738.01718 C39.6086495,1738.01718 39.6339214,1738.01772 39.6600306,1738.01832 C41.0956574,1738.0593 42.2204854,1739.21582 42.2204854,1740.65145 C42.2204854,1740.8091 42.2061748,1740.96705 42.1782387,1741.12174 C42.1529668,1741.2616 42.1152112,1741.3988 42.0679406,1741.53243 L37.0963788,1741.53243 C36.9961285,1741.25149 36.9452802,1740.95634 36.9452802,1740.65145 C36.9452802,1739.19887 38.1284163,1738.01718 39.5830731,1738.01718 L39.5830731,1738.01718 Z M36.6399622,1742.44457 L48.7962801,1742.44457 C48.5810122,1745.6053 45.9369775,1748.11073 42.7179308,1748.11073 C39.4991887,1748.11073 36.8555345,1745.6053 36.6399622,1742.44457 L36.6399622,1742.44457 Z M40.1539745,1756.22971 C40.7947543,1755.50311 41.7218221,1755.0741 42.7179308,1755.0741 C43.7143441,1755.0741 44.641488,1755.50311 45.2822678,1756.22971 L40.1539745,1756.22971 Z M58.3832373,1731.18235 L55.0949212,1729.81413 C54.965593,1729.76039 54.8183766,1729.76868 54.6958992,1729.83724 C54.5733457,1729.90588 54.4895374,1730.02666 54.4680715,1730.16508 L53.9614155,1733.42736 L50.4054609,1733.42736 L49.8181937,1731.13423 C49.7557751,1730.89046 49.5074711,1730.74315 49.2628208,1730.80556 C49.0183988,1730.86789 48.8708779,1731.11637 48.9333726,1731.36014 L49.4626363,1733.42736 L46.8632079,1733.42736 C46.7350977,1733.42736 46.6128486,1733.4811 46.5263,1733.57551 C46.4398275,1733.67022 46.3969718,1733.7967 46.4086182,1733.9241 L46.6482445,1736.59493 C46.6708522,1736.84577 46.8935799,1737.03108 47.1439392,1737.00851 C47.3951358,1736.98593 47.5807168,1736.76443 47.5581091,1736.51352 L47.510534,1735.9844 L56.0802971,1735.9844 L55.8013927,1739.08249 L50.0658888,1739.08249 C49.8137787,1739.08249 49.6091676,1739.28681 49.6091676,1739.53856 C49.6091676,1739.79039 49.8137787,1739.99463 50.0658888,1739.99463 L55.7193352,1739.99463 L55.6209118,1741.08936 L50.5532863,1741.08936 C50.3007957,1741.08936 50.0965652,1741.29337 50.0965652,1741.54543 C50.0965652,1741.79726 50.3007957,1742.0015 50.5532863,1742.0015 L55.5388542,1742.0015 L55.3217594,1744.41252 L49.9847446,1744.41252 C49.7326346,1744.41252 49.5280235,1744.61684 49.5280235,1744.86859 C49.5280235,1745.12042 49.7326346,1745.32466 49.9847446,1745.32466 L55.2397018,1745.32466 L55.0627985,1747.29117 L48.4834262,1747.29117 C48.3990089,1747.13352 48.2253787,1747.03409 48.0350783,1747.05332 C47.78411,1747.07886 47.6012693,1747.30249 47.6267696,1747.5531 L47.6922329,1748.19708 C47.7844145,1749.22293 48.2545328,1750.17072 49.0157346,1750.86555 C49.6635936,1751.457 50.4753393,1751.82132 51.3385422,1751.91694 L51.3385422,1754.74003 C50.2895299,1754.88232 49.3656591,1755.51915 48.8616674,1756.47317 C48.7870696,1756.61455 48.7920935,1756.78467 48.87476,1756.92157 C48.9574266,1757.05816 49.1057848,1757.14185 49.2657895,1757.14185 L54.3084475,1757.14185 C54.468376,1757.14185 54.6168103,1757.05816 54.6994769,1756.92157 C54.7820673,1756.78467 54.7871673,1756.61455 54.7124934,1756.47317 C54.2111659,1755.52424 53.2944504,1754.88909 52.2519845,1754.74215 L52.2519845,1751.91694 C53.1151874,1751.82132 53.9272376,1751.457 54.5748681,1750.86555 C55.33607,1750.17072 55.8061883,1749.22324 55.8983698,1748.19768 L57.1828219,1733.9241 C57.1941638,1733.7967 57.1513081,1733.67022 57.0648356,1733.57551 C56.978287,1733.4811 56.856114,1733.42736 56.7279277,1733.42736 L54.8855907,1733.42736 L55.2813396,1730.87975 L58.0317904,1732.02441 C58.2645659,1732.12117 58.5322045,1732.01133 58.6291055,1731.77881 C58.7260826,1731.54607 58.6160889,1731.27911 58.3832373,1731.18235 Z M53.8196036,1734.3395 L53.7060323,1735.07226 L50.8265578,1735.07226 L50.6389215,1734.3395 L53.8196036,1734.3395 Z M47.3627847,1734.3395 L49.6960208,1734.3395 L49.883657,1735.07226 L47.4284765,1735.07226 L47.3627847,1734.3395 Z M50.1920199,1756.22971 C50.6234691,1755.84402 51.1875197,1755.62192 51.7872707,1755.62192 C52.3870217,1755.62192 52.9507678,1755.84402 53.382217,1756.22971 L50.1920199,1756.22971 Z M51.7952633,1751.03118 C50.1557106,1751.03118 48.8039683,1749.82396 48.6122215,1748.20361 L54.9786096,1748.20361 C54.7895271,1749.82153 53.4369474,1751.03118 51.7952633,1751.03118 Z M56.2283509,1734.3395 L56.1623547,1735.07226 L54.6301314,1735.07226 L54.7440072,1734.3395 L56.2283509,1734.3395 Z" id="Combined-Shape"></path>
        </g>
    </g>
</svg>