<?xml version="1.0" encoding="UTF-8" standalone="no"?>
<svg width="258px" height="113px" viewBox="0 0 258 113" version="1.1" xmlns="http://www.w3.org/2000/svg" xmlns:xlink="http://www.w3.org/1999/xlink">
    <!-- Generator: Sketch 3.6.1 (26313) - http://www.bohemiancoding.com/sketch -->
    <title>Group 6</title>
    <desc>Created with Sketch.</desc>
    <defs></defs>
    <g id="About" stroke="none" stroke-width="1" fill="none" fill-rule="evenodd">
        <g transform="translate(-586.000000, -3930.000000)" id="Group-6">
            <g transform="translate(586.000000, 3930.000000)">
                <g id="Group" transform="translate(0.000000, 28.000000)">
                    <rect id="Rectangle-17" stroke="#000000" stroke-width="3" fill="#000000" x="0" y="0" width="229" height="85" rx="18"></rect>
                    <path d="M172.461755,42.9261393 C172.461755,38.8428246 171.571189,35.3468068 169.820027,33.074502 C168.038894,30.7680272 165.362913,29.5827554 161.963346,29.5827554 C154.995092,29.5827554 150.670707,34.7210687 150.670707,42.956038 C150.670707,47.566852 151.82673,51.0265642 154.104525,53.2326646 C156.151116,55.2081176 159.090413,56.1969118 162.888165,56.1969118 C166.386208,56.1969118 169.623074,55.3746963 171.669665,54.0228458 L170.779098,48.4232375 C168.76462,49.5102706 166.42046,50.1039743 163.778732,50.1039743 C162.194551,50.1039743 161.104892,49.775088 160.310661,49.0831456 C159.452206,48.3570332 158.957685,47.4387145 158.792844,45.7601134 L172.363279,45.7601134 C172.395391,45.3628872 172.461755,43.519843 172.461755,42.9261393 L172.461755,42.9261393 Z M158.72648,40.7520732 C158.957685,37.0958835 159.948868,35.1161593 161.830618,35.1161593 C163.680256,35.1161593 164.637187,37.1300535 164.769915,40.7520732 L158.72648,40.7520732 Z M145.440769,32.3825595 C143.987176,30.5053453 141.972698,29.5827554 139.397334,29.5827554 C137.021063,29.5827554 134.94022,30.5715497 132.992106,32.6452414 L132.561808,30.0760847 L125.36449,30.0760847 L125.36449,65.388641 L133.552991,64.0389262 L133.552991,55.6053438 C134.807491,56.0004344 136.096244,56.1969118 137.252268,56.1969118 C139.298858,56.1969118 142.270267,55.6694125 144.582315,53.1664602 C146.793745,50.7617467 147.915517,47.0393526 147.915517,42.1316868 C147.915517,37.7835547 147.091314,34.4904212 145.440769,32.3825595 Z M138.637355,48.19259 C137.977994,49.4440662 136.954698,50.1039743 135.764422,50.1039743 C134.94022,50.1039743 134.214494,49.9395311 133.552991,49.6085093 L133.552991,37.4226341 C134.94022,35.9725449 136.19472,35.8081017 136.657129,35.8081017 C138.737972,35.8081017 139.761267,38.0483722 139.761267,42.4285387 C139.761267,44.931491 139.397334,46.8749095 138.637355,48.19259 Z M117.377221,28.0087999 C119.755633,28.0087999 121.671636,26.0632457 121.671636,23.6927022 C121.671636,21.2879886 119.755633,19.3787401 117.377221,19.3787401 C114.968839,19.3787401 113.052836,21.2879886 113.052836,23.6927022 C113.052836,26.0632457 114.968839,28.0087999 117.377221,28.0087999 Z M113.251929,55.7014469 L121.472543,55.7014469 L121.472543,30.0760847 L113.251929,30.0760847 L113.251929,55.7014469 Z M108.914699,29.7237067 C106.604792,29.7237067 104.821519,30.9324703 104.095793,33.1065364 L103.59913,30.0760847 L96.4360645,30.0760847 L96.4360645,55.7035825 L104.624566,55.7035825 L104.624566,39.0692008 C105.647862,37.8177247 107.032949,37.3649722 109.015316,37.3649722 C109.443473,37.3649722 109.905882,37.3649722 110.466768,37.463211 L110.466768,29.9201841 C109.905882,29.789911 109.411361,29.7237067 108.914699,29.7237067 Z M92.6768464,36.4722811 L93.665889,30.0760847 L88.4359517,30.0760847 L88.4359517,22.9858104 L81.4056145,24.1411834 L80.3908825,30.0760847 L77.918276,30.4775822 L76.993457,36.4722811 L80.3801785,36.4722811 L80.3801785,48.0281469 C80.3801785,51.1248029 81.1722689,53.264699 82.7907022,54.5823795 C84.145819,55.6694125 86.0939332,56.1969118 88.8341377,56.1969118 C90.9470923,56.1969118 92.233704,55.8359913 93.1264112,55.6053438 L93.1264112,49.1813843 C92.6297492,49.3137931 91.5079779,49.5444406 90.7479993,49.5444406 C89.129566,49.5444406 88.4359517,48.7200894 88.4359517,46.8428752 L88.4359517,36.4722811 L92.6768464,36.4722811 Z M68.2162393,39.7269733 C65.8057156,38.8385534 64.4869922,38.1466109 64.4869922,37.0595779 C64.4869922,36.136988 65.24483,35.6116243 66.5999468,35.6116243 C69.074694,35.6116243 71.6179464,36.5662486 73.3669675,37.4226341 L74.3581509,31.3275609 C72.9709223,30.6697884 70.1322417,29.5827554 66.2039016,29.5827554 C63.4294445,29.5827554 61.1173969,30.3067322 59.4668518,31.6585827 C57.7499424,33.074502 56.8593759,35.1161593 56.8593759,37.5870772 C56.8593759,42.0654825 59.5995805,43.9768667 64.0566944,45.591399 C66.9296276,46.6122277 67.8865584,47.3362045 67.8865584,48.4574075 C67.8865584,49.5444406 66.9617394,50.1701786 65.2790826,50.1701786 C63.1982397,50.1701786 59.7644209,49.1472143 57.5187377,47.8316695 L56.5275543,53.9908114 C58.4435567,55.0778444 62.0101042,56.1969118 65.7072395,56.1969118 C68.6465371,56.1969118 71.0891725,55.5049694 72.7397176,54.1872889 C74.5893557,52.7393353 75.5462865,50.5973036 75.5462865,47.8316695 C75.5462865,43.2528898 72.7397176,41.3415056 68.2162393,39.7269733 Z" id="Combined-Shape" fill="#FFFFFF"></path>
                </g>
                <g id="Group-2-Copy" transform="translate(198.000000, 0.000000)">
                    <circle id="Oval-1" fill="#FC6E5E" cx="30" cy="30" r="30"></circle>
                    <path d="M26.8243547,38.4462336 C26.1335442,38.4462336 25.4656321,38.3942155 24.8205983,38.2901778 C24.1755644,38.1861401 23.6408186,38.0592159 23.2163447,37.9094016 C22.7918708,37.7595873 22.4152599,37.6076945 22.0865007,37.4537187 C21.7577415,37.2997429 21.5184583,37.1686573 21.368644,37.0604581 L21.1439237,36.9106445 L22.1052274,34.5261119 C22.2300726,34.6093421 22.4485486,34.7279433 22.7606617,34.8819192 C23.0727749,35.035895 23.5804713,35.2169179 24.2837663,35.4249933 C24.9870613,35.6330688 25.6549734,35.7371049 26.2875227,35.7371049 C27.4111301,35.7371049 28.2725495,35.481176 28.8718068,34.9693104 C29.471064,34.4574448 29.7706881,33.7562411 29.7706881,32.8656783 C29.7706881,31.9168543 29.3649471,31.2073277 28.5534529,30.7370772 C27.7419587,30.2668267 26.6162875,30.031705 25.1764055,30.031705 L24.7769026,30.031705 L23.977897,30.0566739 L23.952928,27.3725142 L24.8518094,27.3725142 C26.4664748,27.3725142 27.6046304,27.1602804 28.2663103,26.7358066 C28.9279901,26.3113327 29.2588251,25.5539494 29.2588251,24.4636341 C29.2588251,23.7977927 28.9467167,23.2796927 28.3224903,22.9093184 C27.698264,22.5389441 26.9783338,22.3537598 26.1626781,22.3537598 C25.7714963,22.3537598 25.3969661,22.3870513 25.0390764,22.4536355 C24.6811866,22.5202196 24.3565938,22.6138522 24.0652882,22.7345359 C23.7739826,22.8552197 23.5367801,22.9634173 23.3536738,23.059132 C23.1705674,23.1548467 22.9666565,23.2734479 22.741935,23.4149392 C22.5172136,23.5564305 22.3798858,23.6438209 22.3299477,23.6771129 L20.9192033,21.3924561 C21.8929964,20.7432607 22.7564965,20.289663 23.5097296,20.0316495 C24.2629626,19.773636 25.2887592,19.6446311 26.5871499,19.6446311 C27.3528675,19.6446311 28.0790399,19.7445058 28.7656888,19.9442583 C29.4523378,20.1440107 30.0723933,20.4332312 30.6258739,20.8119285 C31.1793546,21.1906258 31.6204679,21.6879186 31.9492271,22.3038219 C32.2779863,22.9197252 32.4423634,23.6146867 32.4423634,24.3887274 C32.4423634,25.0295997 32.3320851,25.6371709 32.1115251,26.2114591 C31.8909651,26.7857473 31.516435,27.2996859 30.9879234,27.7532903 C30.4594118,28.2068948 29.8123069,28.4919539 29.0465892,28.6084761 C30.2367807,28.8248746 31.1710254,29.3388132 31.8493514,30.1503074 C32.5276773,30.9618016 32.8668352,31.9126921 32.8668352,33.0030074 C32.8668352,33.8353091 32.702458,34.5989345 32.3736988,35.2939065 C32.0449397,35.9888784 31.6038263,36.563158 31.0503457,37.0167625 C30.496865,37.4703669 29.8560023,37.8220091 29.1277383,38.0716997 C28.3994742,38.3213902 27.6316874,38.4462336 26.8243547,38.4462336 L26.8243547,38.4462336 Z M43.8906167,38.2839355 C43.1998062,38.2839355 42.6442531,38.0612982 42.2239408,37.6160167 C41.8036284,37.1707353 41.5934753,36.6047786 41.5934753,35.9181297 C41.5934753,35.2439652 41.8036284,34.6790489 42.2239408,34.2233637 C42.6442531,33.7676785 43.1977255,33.5398393 43.8843744,33.5398393 C44.5710234,33.5398393 45.1265765,33.7687189 45.5510504,34.2264848 C45.9755243,34.6842508 46.187758,35.2481268 46.187758,35.9181297 C46.187758,36.6089401 45.977605,37.1759372 45.5572926,37.6191379 C45.1369802,38.0623385 44.5814271,38.2839355 43.8906167,38.2839355 L43.8906167,38.2839355 Z M43.8843744,37.3101474 C44.2131336,37.3101474 44.4596993,37.199869 44.6240789,36.9793091 C44.7884585,36.7587491 44.8706471,36.4050262 44.8706471,35.9181297 C44.8706471,35.4520407 44.7915796,35.1024792 44.6334423,34.8694347 C44.4753049,34.6363902 44.2256182,34.5198697 43.8843744,34.5198697 C43.5472922,34.5198697 43.2996862,34.6343095 43.1415489,34.8631925 C42.9834115,35.0920755 42.904344,35.4416369 42.904344,35.9118874 C42.904344,36.398784 42.9854922,36.7535472 43.1477911,36.976188 C43.3100899,37.1988287 43.5556153,37.3101474 43.8843744,37.3101474 L43.8843744,37.3101474 Z M37.3487577,38.1590909 L43.1602755,29.0704013 L44.4274486,29.0704013 L38.6159307,38.1590909 L37.3487577,38.1590909 Z M37.841894,33.6958951 C37.1344375,33.6958951 36.574723,33.4867824 36.1627336,33.0685508 C35.7507442,32.6503192 35.5447526,32.0708378 35.5447526,31.3300892 C35.5447526,30.6018252 35.7507442,30.0244245 36.1627336,29.5978699 C36.574723,29.1713152 37.1344375,28.9580411 37.841894,28.9580411 C38.545189,28.9580411 39.1038631,29.1723556 39.5179332,29.600991 C39.9320034,30.0296264 40.1390353,30.6059867 40.1390353,31.3300892 C40.1390353,32.0749993 39.9330437,32.655521 39.5210544,33.0716719 C39.109065,33.4878228 38.5493505,33.6958951 37.841894,33.6958951 L37.841894,33.6958951 Z M37.841894,32.7221069 C38.1706532,32.7221069 38.4161785,32.612869 38.5784773,32.3943898 C38.7407762,32.1759106 38.8219244,31.823228 38.8219244,31.3363315 C38.8219244,30.866081 38.7438973,30.5144388 38.5878407,30.2813943 C38.4317841,30.0483498 38.1831377,29.9318293 37.841894,29.9318293 C37.5006503,29.9318293 37.2520038,30.0473094 37.0959473,30.2782731 C36.9398907,30.5092369 36.8618636,30.8598387 36.8618636,31.3300892 C36.8618636,31.8169857 36.9430118,32.1707087 37.1053106,32.3912686 C37.2676095,32.6118286 37.5131348,32.7221069 37.841894,32.7221069 L37.841894,32.7221069 Z" id="3%" fill="#FFFFFF"></path>
                </g>
            </g>
        </g>
    </g>
</svg>