<?xml version="1.0" encoding="UTF-8" standalone="no"?>
<svg width="35px" height="44px" viewBox="0 0 35 44" version="1.1" xmlns="http://www.w3.org/2000/svg" xmlns:xlink="http://www.w3.org/1999/xlink" xmlns:sketch="http://www.bohemiancoding.com/sketch/ns">
    <!-- Generator: Sketch 3.4.3 (16044) - http://www.bohemiancoding.com/sketch -->
    <title>Shape</title>
    <desc>Created with Sketch.</desc>
    <defs></defs>
    <g id="Home" stroke="none" stroke-width="1" fill="none" fill-rule="evenodd" sketch:type="MSPage">
        <g id="Shop" sketch:type="MSArtboardGroup" transform="translate(-686.000000, -1370.000000)" fill="#FC6E5E">
            <path d="M706.563573,1373.11396 C707.730061,1373.11408 708.926817,1373.90702 709.282431,1375.74948 C710.560772,1382.373 707.457901,1387.33141 707.457901,1387.33141 L714.177321,1387.33141 C716.157299,1387.33141 717.885794,1388.9356 717.885794,1390.91508 C717.885794,1392.89368 716.536081,1394.49874 715.245284,1394.49874 C715.562907,1395.03422 715.74825,1395.65601 715.74825,1396.32302 C715.74825,1397.84363 714.800237,1399.14041 713.462232,1399.66106 C713.818842,1400.21871 714.028474,1400.87812 714.028474,1401.58885 C714.028474,1403.34051 712.772179,1404.79622 711.112316,1405.10911 C711.415491,1405.63525 711.591492,1406.24371 711.591492,1406.89403 C711.591492,1408.87264 709.986683,1410.4777 708.007701,1410.4777 L704.205311,1410.48144 C692.955333,1410.48144 695.073696,1406.5784 689.113957,1406.5784 L689.113957,1391.79383 C692.921454,1391.79383 696.233209,1391.59193 699.554306,1386.34242 C701.880805,1382.66533 703.377248,1380.35241 704.003278,1375.37681 C704.181022,1373.96307 705.35623,1373.11396 706.563573,1373.11396 L706.563573,1373.11396 Z M706.563822,1370 L706.563822,1370 C705.22781,1370 703.928169,1370.46971 702.904176,1371.32268 C701.802458,1372.24055 701.09559,1373.54231 700.91361,1374.98818 C700.382369,1379.21046 699.185364,1381.10225 697.012196,1384.53632 L696.922888,1384.67745 C694.390743,1388.67988 692.404537,1388.67988 689.113957,1388.67988 C687.394181,1388.67988 686,1390.07406 686,1391.79383 L686,1406.5784 C686,1408.2983 687.394181,1409.69236 689.113957,1409.69236 C690.709797,1409.69236 691.19682,1410.00562 692.26416,1410.69181 C693.175303,1411.27761 694.423253,1412.08014 696.376326,1412.67067 C698.434029,1413.29296 700.994946,1413.59539 704.205311,1413.59539 L708.010691,1413.5919 C711.700978,1413.5919 714.705573,1410.58731 714.705573,1406.89428 C714.705573,1406.84869 714.705075,1406.80311 714.704203,1406.75727 C716.205752,1405.51829 717.14268,1403.6458 717.14268,1401.5891 C717.14268,1401.34048 717.128854,1401.09323 717.101451,1400.84797 C717.30199,1400.62888 717.488827,1400.39558 717.660967,1400.14945 C718.447054,1399.02295 718.862456,1397.70001 718.862456,1396.32352 C718.862456,1396.2433 718.860961,1396.16371 718.858096,1396.08387 C720.156118,1394.84402 721,1392.96991 721,1390.91533 C721,1389.10574 720.26274,1387.40565 718.923863,1386.12818 C717.632567,1384.89605 715.947045,1384.21758 714.17757,1384.21758 L712.028317,1384.21758 C712.803693,1381.24163 712.912806,1378.12531 712.340211,1375.15945 C712.042891,1373.61929 711.330168,1372.31853 710.278648,1371.39804 C709.249049,1370.49649 707.929603,1370.00012 706.563822,1370 L706.563822,1370 L706.563822,1370 Z" id="Shape" sketch:type="MSShapeGroup"></path>
        </g>
    </g>
</svg>
