<?xml version="1.0" encoding="UTF-8" standalone="no"?>
<svg width="36px" height="29px" viewBox="0 0 36 29" version="1.1" xmlns="http://www.w3.org/2000/svg" xmlns:xlink="http://www.w3.org/1999/xlink" xmlns:sketch="http://www.bohemiancoding.com/sketch/ns">
    <!-- Generator: Sketch 3.4.3 (16044) - http://www.bohemiancoding.com/sketch -->
    <title>Fill 6</title>
    <desc>Created with Sketch.</desc>
    <defs></defs>
    <g id="Entry" stroke="none" stroke-width="1" fill="none" fill-rule="evenodd" sketch:type="MSPage">
        <g sketch:type="MSArtboardGroup" transform="translate(-71.000000, -1137.000000)" id="Social-Login" fill="#FFFFFF">
            <g sketch:type="MSLayerGroup" transform="translate(30.000000, 1101.000000)">
                <path d="M70.8949799,38.2659365 C69.5685491,36.8720602 67.6753385,36 65.5786076,36 C61.5579015,36 58.2968461,39.2101754 58.2968461,43.1705354 C58.2968461,43.7325824 58.3619252,44.2780637 58.4838006,44.8034297 C52.4314427,44.5040657 47.0653737,41.6500506 43.4730064,37.3134149 C42.8470637,38.3712464 42.4861704,39.6030166 42.4861704,40.9176147 C42.4861704,43.4048203 43.7747369,45.5985781 45.7271104,46.8835949 C44.5343877,46.8469139 43.4102938,46.5250681 42.4281908,45.9878696 L42.4281908,46.0777971 C42.4281908,49.5506554 44.9390615,52.448451 48.2711123,53.1087083 C47.6593686,53.2719977 47.0168602,53.3595587 46.3518699,53.3595587 C45.882117,53.3595587 45.4265632,53.3145949 44.9804755,53.2317669 C45.9105152,56.0786825 48.5976911,58.1517482 51.7842013,58.2097278 C49.2910795,60.1325199 46.1518996,61.2790956 42.7382041,61.2790956 C42.1489422,61.2790956 41.5703297,61.2447811 41,61.1785188 C44.2255577,63.212537 48.0545763,64.3981602 52.1663932,64.3981602 C65.5632253,64.3981602 72.8864009,53.4755178 72.8864009,44.0023649 C72.8864009,43.6911684 72.8816678,43.3811551 72.868652,43.0735084 C74.2897433,42.0630072 75.5262465,40.8004723 76.50125,39.3616322 C75.1961179,39.9331452 73.7927755,40.3177036 72.3184377,40.4904591 C73.8223569,39.6041998 74.9760321,38.1996742 75.5215135,36.5241827 C74.113438,37.3465461 72.5539057,37.9440907 70.8949799,38.2659365 Z" id="Fill-6" sketch:type="MSShapeGroup"></path>
            </g>
        </g>
    </g>
</svg>