<?xml version="1.0" encoding="UTF-8" standalone="no"?>
<svg width="281px" height="203px" viewBox="0 0 281 203" version="1.1" xmlns="http://www.w3.org/2000/svg" xmlns:xlink="http://www.w3.org/1999/xlink" xmlns:sketch="http://www.bohemiancoding.com/sketch/ns">
    <!-- Generator: Sketch 3.4.4 (17249) - http://www.bohemiancoding.com/sketch -->
    <title>Shape</title>
    <desc>Created with Sketch.</desc>
    <defs></defs>
    <g id="Add-Product" stroke="none" stroke-width="1" fill="none" fill-rule="evenodd" sketch:type="MSPage">
        <g id="add-product" sketch:type="MSArtboardGroup" transform="translate(-235.000000, -319.000000)" fill="#FFFFFF">
            <path d="M477.239562,391.830375 C469.108125,370.219719 448.243875,354.84375 423.796875,354.84375 C418.168094,354.84375 412.7325,355.660406 407.586688,357.179562 C393.659625,334.690781 368.764781,319.71875 340.375,319.71875 C297.31175,319.71875 262.274563,354.176375 261.361312,397.020094 C245.598969,406.143813 235,423.188219 235,442.65625 C235,471.73975 258.604,495.34375 287.6875,495.34375 L340.375,495.34375 L340.375,477.78125 L287.661156,477.78125 C268.316062,477.78125 252.5625,462.054031 252.5625,442.65625 C252.5625,426.033344 264.127406,412.079938 279.670219,408.4445 C279.160906,405.292031 278.90625,402.05175 278.90625,398.75 C278.90625,364.801688 306.426688,337.28125 340.375,337.28125 C368.141313,337.28125 391.604812,355.695531 399.226937,380.967969 C405.979719,375.602625 414.497531,372.40625 423.796875,372.40625 C444.13425,372.40625 460.897656,387.773438 463.075406,407.53125 L463.338844,407.53125 C482.683937,407.53125 498.4375,423.258469 498.4375,442.65625 C498.4375,462.018906 482.727844,477.78125 463.338844,477.78125 L410.625,477.78125 L410.625,495.34375 L463.3125,495.34375 C492.396,495.34375 516,471.695844 516,442.65625 C516,418.376094 499.579062,397.933344 477.239562,391.830375 Z M375.5,398.75 L331.59375,451.4375 L357.9375,451.4375 L357.9375,521.6875 L393.0625,521.6875 L393.0625,451.4375 L419.40625,451.4375 L375.5,398.75 Z" id="Shape" sketch:type="MSShapeGroup"></path>
        </g>
    </g>
</svg>