<?xml version="1.0" encoding="UTF-8" standalone="no"?>
<svg width="45px" height="40px" viewBox="0 0 45 40" version="1.1" xmlns="http://www.w3.org/2000/svg" xmlns:xlink="http://www.w3.org/1999/xlink" xmlns:sketch="http://www.bohemiancoding.com/sketch/ns">
    <!-- Generator: Sketch 3.4.3 (16044) - http://www.bohemiancoding.com/sketch -->
    <title>Shape</title>
    <desc>Created with Sketch.</desc>
    <defs></defs>
    <g id="Home" stroke="none" stroke-width="1" fill="none" fill-rule="evenodd" sketch:type="MSPage">
        <g id="Shop" sketch:type="MSArtboardGroup" transform="translate(-674.000000, -113.000000)" fill="#666666">
            <g id="Group" sketch:type="MSLayerGroup" transform="translate(0.000000, 78.000000)">
                <path d="M718.010514,42.6052445 C717.743135,42.2534294 717.316201,42.0452318 716.862509,42.0452318 L684.893381,42.0452318 C684.831442,42.0452318 684.769602,42.048846 684.710041,42.05655 L683.394354,38.4166577 C683.257989,38.040209 682.957708,37.7401342 682.571802,37.5943293 L675.941042,35.0944357 C675.210259,34.8198507 674.385626,35.1643422 674.098624,35.8648336 C673.812119,36.5657055 674.170969,37.3575984 674.901356,37.6330394 L680.923626,39.9035256 L688.29498,60.2951968 C687.969626,60.4040036 687.693923,60.6435878 687.56836,60.9787585 L685.437058,66.6605856 C685.306441,67.0089766 685.360253,67.3960778 685.582541,67.6988156 C685.804531,68.0015534 686.165562,68.1817885 686.551071,68.1817885 L687.645561,68.1817885 C686.967302,68.9061527 686.551071,69.8601145 686.551071,70.9090921 C686.551071,73.1649313 688.463554,75 690.813674,75 C693.163794,75 695.076277,73.1649313 695.076277,70.9090921 C695.076277,69.8601145 694.660046,68.9061527 693.981788,68.1817885 L703.275238,68.1817885 C702.596682,68.9061527 702.180352,69.8601145 702.180352,70.9090921 C702.180352,73.1649313 704.092438,75 706.443054,75 C708.793571,75 710.705658,73.1649313 710.705658,70.9090921 C710.705658,69.8601145 710.289426,68.9061527 709.611267,68.1817885 L710.942513,68.1817885 C711.596491,68.1817885 712.126492,67.6730406 712.126492,67.0454041 C712.126492,66.4177676 711.596392,65.9091147 710.942513,65.9091147 L688.235816,65.9091147 L689.555764,62.3903937 C689.726221,62.459254 689.910353,62.4999614 690.103108,62.4999614 L710.942216,62.4999614 C711.560022,62.4999614 712.106771,62.11695 712.294967,61.5527525 L718.21526,43.8253264 C718.354103,43.4102627 718.277893,42.9570595 718.010514,42.6052445 L718.010514,42.6052445 Z M690.813674,72.7272311 C689.768835,72.7272311 688.919228,71.9118458 688.919228,70.9090921 C688.919228,69.9063384 689.768835,69.090858 690.813674,69.090858 C691.858513,69.090858 692.70812,69.9063384 692.70812,70.9090921 C692.70812,71.9118458 691.858513,72.7272311 690.813674,72.7272311 L690.813674,72.7272311 Z M706.442955,72.7272311 C705.398116,72.7272311 704.54841,71.9118458 704.54841,70.9090921 C704.54841,69.9063384 705.398116,69.090858 706.442955,69.090858 C707.487695,69.090858 708.337401,69.9063384 708.337401,70.9090921 C708.337401,71.9118458 707.487695,72.7272311 706.442955,72.7272311 L706.442955,72.7272311 Z M713.890817,47.8407163 L706.640368,47.8407163 L706.640368,44.7725354 L714.91534,44.7725354 L713.890817,47.8407163 L713.890817,47.8407163 Z M711.803021,54.0906405 L706.640368,54.0906405 L706.640368,50.5679248 L712.979667,50.5679248 L711.803021,54.0906405 L711.803021,54.0906405 Z M697.246625,54.0906405 L697.246625,50.5679248 L703.798599,50.5679248 L703.798599,54.0906405 L697.246625,54.0906405 L697.246625,54.0906405 Z M703.798599,56.8181343 L703.798599,59.7726578 L697.246625,59.7726578 L697.246625,56.8181343 L703.798599,56.8181343 L703.798599,56.8181343 Z M687.786683,50.5679248 L694.405154,50.5679248 L694.405154,54.0906405 L689.060251,54.0906405 L687.786683,50.5679248 L687.786683,50.5679248 Z M697.246625,47.8407163 L697.246625,44.7725354 L703.798599,44.7725354 L703.798599,47.8407163 L697.246625,47.8407163 L697.246625,47.8407163 Z M694.405055,44.7725354 L694.405055,47.8407163 L686.800512,47.8407163 L685.691454,44.7725354 L694.405055,44.7725354 L694.405055,44.7725354 Z M690.046322,56.8181343 L694.405055,56.8181343 L694.405055,59.7726578 L691.114252,59.7726578 L690.046322,56.8181343 L690.046322,56.8181343 Z M706.640368,59.7727529 L706.640368,56.8182295 L710.892763,56.8182295 L709.906196,59.7727529 L706.640368,59.7727529 L706.640368,59.7727529 Z" id="Shape" sketch:type="MSShapeGroup"></path>
            </g>
        </g>
    </g>
</svg>