<?xml version="1.0" encoding="UTF-8" standalone="no"?>
<svg width="56px" height="40px" viewBox="0 0 56 40" version="1.1" xmlns="http://www.w3.org/2000/svg" xmlns:xlink="http://www.w3.org/1999/xlink" xmlns:sketch="http://www.bohemiancoding.com/sketch/ns">
    <!-- Generator: Sketch 3.4.4 (17249) - http://www.bohemiancoding.com/sketch -->
    <title>Shape</title>
    <desc>Created with Sketch.</desc>
    <defs></defs>
    <g id="Add-Product" stroke="none" stroke-width="1" fill="none" fill-rule="evenodd" sketch:type="MSPage">
        <g id="edit-product" sketch:type="MSArtboardGroup" transform="translate(-654.000000, -785.000000)" fill="#666666">
            <path d="M701.844469,799.242687 C700.238438,794.974391 696.117562,791.9375 691.289062,791.9375 C690.177328,791.9375 689.10375,792.098797 688.087406,792.398844 C685.336688,787.957109 680.419734,785 674.8125,785 C666.307125,785 659.386969,791.805687 659.206594,800.267703 C656.093391,802.069719 654,805.436141 654,809.28125 C654,815.0255 658.662,819.6875 664.40625,819.6875 L674.8125,819.6875 L674.8125,816.21875 L664.401047,816.21875 C660.580219,816.21875 657.46875,813.112484 657.46875,809.28125 C657.46875,805.998078 659.752922,803.242156 662.822766,802.524125 C662.722172,801.901484 662.671875,801.2615 662.671875,800.609375 C662.671875,793.904281 668.107406,788.46875 674.8125,788.46875 C680.296594,788.46875 684.930844,792.105734 686.436281,797.097266 C687.770016,796.037563 689.452359,795.40625 691.289062,795.40625 C695.305875,795.40625 698.616797,798.441406 699.046922,802.34375 L699.098953,802.34375 C702.919781,802.34375 706.03125,805.450016 706.03125,809.28125 C706.03125,813.105547 702.928453,816.21875 699.098953,816.21875 L688.6875,816.21875 L688.6875,819.6875 L699.09375,819.6875 C704.838,819.6875 709.5,815.016828 709.5,809.28125 C709.5,804.485703 706.256719,800.448078 701.844469,799.242687 Z M681.75,800.609375 L673.078125,811.015625 L678.28125,811.015625 L678.28125,824.890625 L685.21875,824.890625 L685.21875,811.015625 L690.421875,811.015625 L681.75,800.609375 Z" id="Shape" sketch:type="MSShapeGroup"></path>
        </g>
    </g>
</svg>