<?xml version="1.0" encoding="UTF-8" standalone="no"?>
<svg width="287px" height="412px" viewBox="0 0 287 412" version="1.1" xmlns="http://www.w3.org/2000/svg" xmlns:xlink="http://www.w3.org/1999/xlink" xmlns:sketch="http://www.bohemiancoding.com/sketch/ns">
    <!-- Generator: Sketch 3.4.3 (16044) - http://www.bohemiancoding.com/sketch -->
    <title>Page 1 + Page 1</title>
    <desc>Created with Sketch.</desc>
    <defs>
        <path id="path-1" d="M0,0.0875869669 L217.471465,0.0875869669 L217.471465,316.818482 L0,316.818482 L0,0.0875869669 Z"></path>
    </defs>
    <g id="Entry" stroke="none" stroke-width="1" fill="none" fill-rule="evenodd" sketch:type="MSPage">
        <g id="Sign-in" sketch:type="MSArtboardGroup" transform="translate(-232.000000, -208.000000)">
            <g id="Page-1-+-Page-1" sketch:type="MSLayerGroup" transform="translate(232.000000, 208.000000)">
                <g id="Page-1" transform="translate(35.364929, 0.000000)">
                    <path d="M214.505372,108.96349 C214.505372,50.465318 167.150788,3.0431339 108.736006,3.0431339 C50.3208816,3.0431339 2.96629801,50.465318 2.96629801,108.96349 C2.96629801,132.762511 10.8047481,154.72768 24.0364673,172.41272 L24.034759,172.411694 C24.034759,172.411694 44.6433607,203.517042 75.7429742,221.928096 C75.7429742,221.928096 87.2534664,217.572355 108.894531,217.562775 C130.535937,217.572355 142.046429,221.928096 142.046429,221.928096 C173.145701,203.517042 193.754644,172.411694 193.754644,172.411694 L193.238071,172.670007 C206.587318,154.940489 214.505372,132.878838 214.505372,108.96349" id="Fill-1" fill="#F3F4F4" sketch:type="MSShapeGroup"></path>
                    <path d="M90.6126264,218.726211 C90.6126264,218.726211 21.0054268,172.830982 14.8560887,59.4185194 C14.8560887,59.4185194 0.36197698,91.0398094 2.96636634,109.942856 C2.96636634,109.942856 1.22156554,132.082857 10.2113723,150.428905 C19.2011791,168.774953 27.5216957,177.343764 27.5216957,177.343764 C27.5216957,177.343764 49.0243925,202.214699 54.9390178,206.938579 C60.853643,211.662117 75.7430425,221.927925 75.7430425,221.927925 C75.7430425,221.927925 87.082027,218.624596 90.6126264,218.726211" id="Fill-3" fill="#4B73B8" sketch:type="MSShapeGroup"></path>
                    <path d="M85.7158073,5.59112772 C72.2777322,7.92894703 55.5037975,17.2798822 55.5037975,17.2798822 C45.5628403,118.266286 105.98686,217.562878 105.98686,217.562878 L108.735767,217.562878 L108.735767,3.0428944 C97.989543,2.88961721 85.7158073,5.59112772 85.7158073,5.59112772" id="Fill-5" fill="#4B73B8" sketch:type="MSShapeGroup"></path>
                    <path d="M161.987244,17.2799164 C161.987244,17.2799164 145.213309,7.92898125 131.775234,5.59116193 C131.775234,5.59116193 119.501498,2.88965142 108.755275,3.04292861 L108.755275,217.562912 L111.504182,217.562912 C111.504182,217.562912 171.928201,118.266321 161.987244,17.2799164" id="Fill-7" fill="#4B73B8" sketch:type="MSShapeGroup"></path>
                    <path d="M126.878415,218.726211 C126.878415,218.726211 196.485615,172.830982 202.634953,59.4185194 C202.634953,59.4185194 217.129065,91.0398094 214.524675,109.942856 C214.524675,109.942856 216.275626,130.486447 207.285819,148.832154 C198.296012,167.178202 189.969346,177.343764 189.969346,177.343764 C189.969346,177.343764 171.760144,201.325486 163.091829,208.136057 C157.575908,212.469559 141.747999,221.927925 141.747999,221.927925 C141.747999,221.927925 130.409015,218.624596 126.878415,218.726211" id="Fill-9" fill="#4B73B8" sketch:type="MSShapeGroup"></path>
                    <path d="M128.955094,244.293873 C128.806818,244.260686 119.979294,242.318718 108.703173,242.318718 C97.3881044,242.318718 88.5383736,244.274371 88.4502282,244.294215 L86.6661378,244.694515 L85.4314188,243.342391 C78.3644119,235.591629 75.660261,225.348402 75.5485418,224.916283 L74.7887148,221.974593 L77.6951217,221.10146 C90.2561842,217.329746 106.775932,217.220605 108.618444,217.220605 L108.717864,217.220947 C109.463684,217.220947 127.333628,217.265767 140.309111,221.162018 L143.389417,222.087156 L142.404785,225.152699 C142.268125,225.577975 138.977705,235.662109 131.97527,243.342391 L130.740551,244.696568 L128.955094,244.293873 Z" id="Fill-11" fill="#151515" sketch:type="MSShapeGroup"></path>
                    <path d="M87.148956,244.694344 C111.449757,250.849381 131.22371,244.696397 131.22371,244.696397 C131.22371,244.696397 111.449757,238.539307 87.148956,244.694344" id="Fill-13" fill="#151515" sketch:type="MSShapeGroup"></path>
                    <path d="M109.272292,220.540596 C109.272292,220.540596 91.9206291,220.459509 79.1696099,224.28836 C79.1696099,224.28836 81.7084027,234.115549 88.3285329,241.376714 C88.3285329,241.376714 97.4304005,239.324579 109.272292,239.324579 C121.114184,239.324579 130.216051,241.376714 130.216051,241.376714 C136.836181,234.115549 139.97286,224.348918 139.97286,224.348918 C127.221841,220.519725 109.272292,220.540596 109.272292,220.540596" id="Fill-15" fill="#D1D1D1" sketch:type="MSShapeGroup"></path>
                    <path d="M126.673152,270.016797 L86.5891985,244.331919 L88.0623884,242.026602 L128.146342,267.711138 L126.673152,270.016797 Z" id="Fill-17" fill="#151515" sketch:type="MSShapeGroup"></path>
                    <path d="M89.8924989,270.858076 L88.4111094,268.557892 L129.49302,242.029305 L130.974409,244.329489 L89.8924989,270.858076 Z" id="Fill-19" fill="#151515" sketch:type="MSShapeGroup"></path>
                    <mask id="mask-2" sketch:name="Clip 22" fill="white">
                        <use xlink:href="#path-1"></use>
                    </mask>
                    <g id="Clip-22"></g>
                    <path d="M130.954013,268.863933 L127.879173,268.863933 L127.879173,243.179055 L130.954013,243.179055 L130.954013,268.863933 Z" id="Fill-21" fill="#221F20" sketch:type="MSShapeGroup" mask="url(#mask-2)"></path>
                    <path d="M89.797623,268.863933 L86.7227832,268.863933 L86.7227832,243.179055 L89.797623,243.179055 L89.797623,268.863933 Z" id="Fill-23" fill="#221F20" sketch:type="MSShapeGroup" mask="url(#mask-2)"></path>
                    <path d="M136.365765,221.477468 C136.365765,221.477468 123.339377,231.099375 88.3285671,241.718953 C88.3285671,241.718953 109.176665,237.153482 130.216085,241.718953 C130.216085,241.718953 147.383941,224.558408 136.365765,221.477468" id="Fill-24" fill="#151515" sketch:type="MSShapeGroup" mask="url(#mask-2)"></path>
                    <path d="M95.251774,303.85739 C92.3211099,303.856363 90.3016235,302.467289 89.2500282,299.72917 L87.2038931,294.402103 C84.5820797,287.57511 81.9602662,280.748116 79.3299116,273.924202 C78.7610662,273.290565 78.1857295,272.652822 77.6100511,272.01508 C77.0159238,271.356467 76.4057389,270.680063 75.8010204,269.995447 C74.9175164,270.00229 74.0323042,270.004343 73.1470919,270.004343 C72.2424057,270.004343 71.3380611,270.001948 70.4333749,269.999895 L69.8276315,269.998184 C66.6530302,269.989973 64.5604308,268.707645 63.2970133,265.976369 L62.7114271,265.416633 L62.7114271,262.011006 L62.9143665,261.479668 C64.0906636,258.40078 66.4435994,256.704809 69.5396215,256.704809 L69.5949686,256.705152 C71.0442431,256.714389 72.493176,256.719179 73.9421088,256.719179 C75.4662045,256.719179 76.9899584,256.714047 78.5137124,256.703783 L78.566668,256.703783 C80.6872825,256.703783 82.5038296,257.541333 83.9664284,259.193853 C84.7901438,260.124807 85.6220589,261.048233 86.4543155,261.97166 C87.2353248,262.838634 88.0163341,263.705608 88.7908521,264.578399 C95.0963237,264.571214 101.401795,264.569503 107.70795,264.568135 C116.140869,264.566082 124.573788,264.564029 133.006366,264.547949 C137.177899,264.547949 138.718393,267.173505 139.26674,268.738437 L139.440639,269.233509 L139.440639,271.434816 L130.953056,293.532734 C130.953056,293.532734 129.040506,298.520059 128.587138,299.699062 C127.511285,302.496713 125.53143,303.857048 122.534145,303.857732 C118.050345,303.859101 113.565862,303.859785 109.082062,303.859785 C104.471852,303.859785 99.8623255,303.859101 95.251774,303.85739" id="Fill-25" fill="#151515" sketch:type="MSShapeGroup" mask="url(#mask-2)"></path>
                    <path d="M136.365765,270.8629 C133.604901,278.05119 130.843694,285.239138 128.083172,292.427428 C127.293963,294.4823 126.50817,296.537857 125.717936,298.592387 C125.10331,300.190165 124.255338,300.777955 122.533427,300.77864 C113.440101,300.781377 104.346433,300.781719 95.2531064,300.778297 C93.5704857,300.777613 92.7190967,300.183664 92.1198446,298.623521 C88.8147334,290.020154 85.5130387,281.415419 82.1990446,272.815474 C82.0709263,272.483601 81.8683285,272.160282 81.6322492,271.893416 C80.3087014,270.395542 78.9492806,268.928802 77.6363239,267.421691 C77.2970666,267.032339 76.9465349,266.905064 76.4484108,266.910196 C74.2440923,266.93312 72.0397738,266.924566 69.8351136,266.91875 C67.6864838,266.913618 66.6441131,266.188972 65.8812112,264.192263 C65.8668619,264.154286 65.8186894,264.129652 65.7862328,264.098518 L65.7862328,262.580116 C66.4521065,260.83693 67.5993634,259.771174 69.5747771,259.784176 C72.5614716,259.803677 75.548166,259.802993 78.5345188,259.782807 C79.8221934,259.774254 80.8239079,260.285406 81.6653891,261.236203 C83.3869578,263.18125 85.1440579,265.095162 86.8628934,267.042603 C87.2410987,267.470958 87.6234038,267.659133 88.2141147,267.658449 C103.146904,267.639974 118.079693,267.655712 133.012481,267.627315 C134.653421,267.624235 135.806828,268.164811 136.365765,269.758484 L136.365765,270.8629 Z" id="Fill-26" fill="#929292" sketch:type="MSShapeGroup" mask="url(#mask-2)"></path>
                    <path d="M118.507129,316.818482 C115.552892,316.816771 113.173991,314.425579 113.188681,311.47294 C113.203372,308.510721 115.58774,306.147926 118.545736,306.164691 C121.471958,306.181455 123.820453,308.543566 123.827627,311.477045 C123.83446,314.441659 121.465125,316.820193 118.507129,316.818482" id="Fill-27" fill="#151515" sketch:type="MSShapeGroup" mask="url(#mask-2)"></path>
                    <path d="M98.9346122,316.818242 C95.9831075,316.829191 93.5963485,314.448262 93.5960069,311.492544 C93.5953236,308.563855 95.9451845,306.188743 98.8652574,306.16582 C101.825303,306.142896 104.227778,308.506718 104.243152,311.457304 C104.258185,314.41747 101.892266,316.807294 98.9346122,316.818242" id="Fill-28" fill="#151515" sketch:type="MSShapeGroup" mask="url(#mask-2)"></path>
                    <path d="M122.533325,300.778571 C124.255577,300.778229 125.103208,300.190096 125.717834,298.592318 C126.508068,296.53813 127.294202,294.482231 128.083069,292.427359 C130.843592,285.239069 133.604798,278.051122 136.365663,270.862832 L136.365663,269.758415 C136.105326,269.015637 135.714138,268.504142 135.206106,268.167138 L135.206106,268.167138 C135.206106,268.167138 118.229232,288.110622 93.0326279,300.085402 C93.5645752,300.570552 94.2649554,300.777887 95.2530039,300.778229 C104.346672,300.78165 113.439998,300.781308 122.533325,300.778571" id="Fill-29" fill="#7C7C7C" sketch:type="MSShapeGroup" mask="url(#mask-2)"></path>
                    <path d="M209.423072,140.673256 C209.423072,140.673256 186.072738,185.045977 136.634438,220.540596 L142.315717,223.417964 L161.220174,210.644979 L180.124631,191.941398 L191.057395,178.48414 L200.851443,163.658335 L209.423072,147.691846 L209.423072,140.673256 Z" id="Fill-30" fill="#2A53A4" sketch:type="MSShapeGroup" mask="url(#mask-2)"></path>
                    <path d="M8.43093756,140.673256 C8.43093756,140.673256 31.7812714,185.045977 81.2195715,220.540596 L75.5382924,223.417964 L56.6338353,210.644979 L37.7293783,191.941398 L26.7966143,178.48414 L17.0025661,163.658335 L8.43093756,147.691846 L8.43093756,140.673256 Z" id="Fill-31" fill="#FEFEFE" sketch:type="MSShapeGroup" mask="url(#mask-2)"></path>
                    <path d="M193.403976,172.16539 C193.403976,172.16539 172.880103,203.142437 141.909291,221.477537 C141.909291,221.477537 130.445947,217.139929 108.894053,217.130349 C87.3421584,217.139929 75.8791555,221.477537 75.8791555,221.477537 C44.9080019,203.142437 24.3841292,172.16539 24.3841292,172.16539 L24.3858374,172.166074 C11.208782,154.553909 3.40244696,132.679406 3.40244696,108.978578 C3.40244696,50.7216125 50.5619491,3.49513054 108.735869,3.49513054 C166.909789,3.49513054 214.069291,50.7216125 214.069291,108.978578 C214.069291,132.79539 206.698217,154.509089 193.403976,172.16539 M217.471431,108.978578 C217.471431,79.8928624 206.160803,52.5479376 185.623606,31.9810808 C165.086068,11.4145662 137.780123,0.0874501123 108.735869,0.0874501123 C79.6916152,0.0874501123 52.3856707,11.4145662 31.8481321,31.9810808 C11.3105934,52.5479376 -3.41648872e-05,79.8928624 -3.41648872e-05,108.978578 C-3.41648872e-05,128.294241 4.96173241,146.830175 14.4496632,163.27326 L14.3888497,163.242468 L14.7328902,163.761489 C16.809432,167.317314 19.0988211,170.775289 21.5955911,174.119674 C22.973461,176.184811 43.2971274,206.14708 74.1473373,224.410331 L75.5525391,225.235223 L77.0742432,224.667276 C77.1845958,224.62622 88.3520725,220.546583 108.892344,220.537345 C129.375561,220.546583 140.537571,224.60227 140.712154,224.666934 L142.234199,225.24275 L143.640426,224.410331 C174.923847,205.890478 195.38349,175.340417 196.238978,174.049194 L202.79522,163.660216 C212.431085,147.12236 217.471431,128.45094 217.471431,108.978578" id="Fill-32" fill="#221F20" sketch:type="MSShapeGroup" mask="url(#mask-2)"></path>
                    <path d="M84.6338053,271.374224 L77.8578832,264.303287 L69.3146115,264.303287 C66.8666974,263.391835 69.3094868,259.798374 69.3146115,259.791531 C67.4987478,259.871591 66.4218705,260.91545 65.786062,262.579945 L65.786062,264.098689 C65.8185186,264.129481 65.8666911,264.154457 65.881382,264.192092 C66.6442839,266.189144 67.6866547,266.913447 69.8352844,266.918921 C72.0396029,266.924395 74.2442631,266.933291 76.4485816,266.910367 C76.946364,266.905235 77.2972374,267.03251 77.6361531,267.42152 C78.9494514,268.928631 80.3085306,270.395713 81.63242,271.893587 C81.8681577,272.160453 82.0710971,272.48343 82.1988738,272.815645 C85.5128679,281.41559 88.8149042,290.020326 92.1196738,298.623692 C92.3601946,299.249802 92.6427382,299.717845 93.0021528,300.056902 L95.9007018,298.670907 L84.6338053,271.374224 Z" id="Fill-33" fill="#A9A9AA" sketch:type="MSShapeGroup" mask="url(#mask-2)"></path>
                </g>
                <path d="M271.203775,386.488108 C266.759033,386.488108 263.40724,383.136869 263.40724,378.692259 C263.40724,374.102388 266.613145,370.896409 271.203775,370.896409 C275.795007,370.896409 279.001514,374.102388 279.001514,378.692259 C279.001514,383.136869 275.649119,386.488108 271.203775,386.488108 L271.203775,386.488108 Z M271.732466,363.134314 C268.891279,363.134314 265.134378,364.199357 262.638619,367.11843 L262.249184,363.814808 C260.874105,364.273494 257.044261,365.756839 254.763113,368.698214 L254.763113,405.634169 C254.763113,405.634169 259.944525,404.223755 262.762201,400.591036 L262.762201,390.936335 C265.024058,393.35875 268.878619,394.250203 271.96697,394.250203 C280.958937,394.250203 287,387.997973 287,378.692259 C287,369.677065 280.579148,363.134314 271.732466,363.134314 L271.732466,363.134314 Z M158.816852,385.549038 C154.606013,385.549038 151.665357,382.415991 151.665357,377.929791 C151.665357,373.373674 154.606013,370.192408 158.816852,370.192408 C162.927018,370.192408 165.909872,373.446606 165.909872,377.929791 C165.909872,382.415991 162.992728,385.549038 158.816852,385.549038 L158.816852,385.549038 Z M166.317392,363.128286 L165.356464,364.344617 C163.186239,363.017382 160.736296,362.840779 158.816852,362.840779 C150.072653,362.840779 143.72595,369.186434 143.72595,377.929791 C143.72595,387.164383 149.508395,392.900667 158.816852,392.900667 C162.148751,392.900667 165.733843,394.587738 165.733843,398.290978 C165.733843,401.8146 163.01865,404.091755 158.816852,404.091755 C154.947823,404.091755 151.987274,401.844737 151.694294,398.790047 C148.369027,401.401723 146.922813,405.983758 146.723875,406.660636 C149.384812,409.759929 153.645688,411.618782 158.816852,411.618782 C167.738287,411.618782 173.732328,406.262827 173.732328,398.290978 C173.732328,395.490644 173.143956,391.514966 168.237438,388.736331 C173.430305,385.857641 173.849279,379.787439 173.849279,377.929791 C173.849279,374.510443 172.890763,371.700466 170.921284,369.350379 L174.156728,365.233057 C171.293839,363.492342 167.761797,363.180122 166.317392,363.128286 L166.317392,363.128286 Z M127.184614,363.310314 C123.790623,363.310314 120.926528,364.513987 117.99371,367.193773 L117.829135,365.81651 C115.839762,364.524837 113.474819,363.963685 111.702468,363.72078 L110.390688,363.72078 L110.390688,388.251727 C110.53115,388.319234 110.678845,388.447015 110.835584,388.648933 C113.120952,391.595733 116.961648,393.080284 118.330698,393.535353 L118.330698,378.340258 C118.330698,373.963154 121.329829,370.661943 125.306164,370.661943 C129.355442,370.661943 131.871095,373.468907 131.871095,377.988257 L131.871095,388.504878 C131.957904,388.576605 132.046521,388.669427 132.139359,388.788769 C134.242669,391.5005 137.662582,392.973599 139.261315,393.546202 L139.868978,393.546202 L139.868978,377.929791 C139.868978,367.83087 133.498161,363.310314 127.184614,363.310314 L127.184614,363.310314 Z M184.800477,374.869677 C185.888604,371.813781 188.60018,370.074874 192.326939,370.074874 C196.222493,370.074874 198.753819,371.814986 199.34822,374.869677 L184.800477,374.869677 Z M192.092434,362.899245 C182.64472,362.899245 176.296208,369.151475 176.296208,378.45719 C176.296208,388.234851 182.551882,394.308669 192.621125,394.308669 C197.61626,394.308669 202.499266,392.461269 205.364567,389.486743 L205.426659,389.42225 C202.902567,386.95704 199.440455,385.787723 198.602506,385.530955 C196.853667,386.463395 194.517057,386.957643 192.738076,386.957643 C188.348192,386.957643 185.281543,384.931228 184.605759,381.634839 L207.087484,381.634839 L207.123655,381.25451 C207.681282,375.293403 206.449076,370.46545 203.55906,367.293828 C200.940924,364.418754 196.97544,362.899245 192.092434,362.899245 L192.092434,362.899245 Z M241.205836,356.823015 C241.017147,357.065919 240.841721,357.203344 240.677748,357.253975 L240.677748,375.641185 C240.677748,382.572101 237.172232,386.546574 231.061239,386.546574 C224.671734,386.546574 220.858166,382.470238 220.858166,375.641185 L220.858166,351.691883 L220.748449,351.691883 L220.838272,351.779883 C220.838272,351.779883 215.656257,353.190296 212.839787,356.823015 C212.658935,357.056276 212.489537,357.193701 212.331592,357.249153 L212.331592,375.641185 C212.331592,387.052876 219.65972,394.426204 231.002161,394.426204 C242.229459,394.426204 249.203719,387.228273 249.203719,375.641185 L249.203719,351.779883 C249.203719,351.779883 244.022909,353.190296 241.205836,356.823015 L241.205836,356.823015 Z M95.2919486,384.42131 C93.8385006,386.118628 91.7568929,387.016109 89.271985,387.016109 C84.4739787,387.016109 81.1227892,383.569034 81.1227892,378.63319 C81.1227892,373.654551 84.3980208,370.30934 89.271985,370.30934 C94.7903855,370.30934 97.3036268,374.63943 97.3036268,378.662724 C97.3036268,380.86092 96.589261,382.906019 95.2919486,384.42131 L95.2919486,384.42131 Z M97.6436288,366.052784 C97.6086641,366.073278 97.5767135,366.088346 97.5435573,366.10462 L97.4941244,366.941224 C95.5807091,364.561001 92.2409736,363.075245 88.6287543,363.075245 L88.4852783,363.075245 C79.1539127,363.075245 73.1243036,369.182215 73.1243036,378.63319 C73.1243036,383.558788 74.6193476,387.629699 77.4466688,390.405923 C80.1256913,393.036284 83.8819895,394.426807 88.3086461,394.426807 L88.4581505,394.426204 C91.6381333,394.368341 95.5270564,392.913927 97.5290891,390.217265 L97.8069985,393.546202 L105.360588,393.546202 L105.360588,363.779849 L104.152496,363.779849 C102.391599,364.065548 99.9717982,364.689988 97.6436288,366.052784 L97.6436288,366.052784 Z M48.6098011,351.633417 L48.606184,351.633417 L48.6098011,351.636431 L48.6098011,351.633417 Z M249.203719,351.779883 L249.203719,351.691883 L249.113896,351.691883 L249.203719,351.779883 Z M32.2258063,382.327388 C29.7306501,384.820927 25.8857344,386.370573 22.1927345,386.370573 C12.1596627,386.370573 8.5245354,379.401684 8.4678684,372.879427 C8.43471219,368.959803 9.83872734,365.277057 12.3188125,362.775683 C14.7404222,360.33398 18.1549099,359.043512 22.1927345,359.043512 C25.9255219,359.043512 29.3436266,360.376172 31.8176834,362.796779 L32.1088552,363.081875 L37.8762288,357.51255 L37.5699859,357.21118 C33.3241814,353.024543 28.0065267,350.811881 22.1927345,350.811881 C15.6923071,350.811881 10.1618498,352.917255 6.19998304,356.900769 C2.22605951,360.895734 -0.0333860939,366.721827 0.000372965208,372.885454 C0.0552314363,382.849362 5.90037139,394.485272 22.1927345,394.485272 C28.4683024,394.485272 33.9686177,392.333488 38.098074,388.261974 L38.3970828,387.967234 L32.5236094,382.029031 L32.2258063,382.327388 Z M57.2286094,363.36878 C53.6748656,363.36878 50.8439274,364.553165 48.6098011,366.982211 L48.6098011,351.822677 C47.753165,352.081253 43.2963663,353.54953 40.7578056,356.823015 C40.7077699,356.886905 40.6589398,356.942358 40.6113154,356.992385 L40.6113154,388.619399 C40.6589398,388.669427 40.7077699,388.724879 40.7578056,388.788769 C42.8605127,391.5005 46.280426,392.973599 47.8797614,393.546202 L48.6098011,393.546202 L48.6098011,378.340258 C48.6098011,374.063209 51.5076546,370.837943 55.3507618,370.837943 C59.3192597,370.837943 61.504556,373.356194 61.504556,377.929791 L61.504556,388.788769 C63.6072631,391.5005 67.0271764,392.973599 68.6265118,393.546202 L69.5024388,393.546202 L69.5024388,377.870723 C69.5024388,368.5192 65.1439031,363.36878 57.2286094,363.36878 L57.2286094,363.36878 Z" id="Page-1" fill="#424242" sketch:type="MSShapeGroup"></path>
            </g>
        </g>
    </g>
</svg>