<?xml version="1.0" encoding="UTF-8" standalone="no"?>
<svg width="211px" height="303px" viewBox="0 0 211 303" version="1.1" xmlns="http://www.w3.org/2000/svg" xmlns:xlink="http://www.w3.org/1999/xlink" xmlns:sketch="http://www.bohemiancoding.com/sketch/ns">
    <!-- Generator: Sketch 3.4.3 (16044) - http://www.bohemiancoding.com/sketch -->
    <title>Page 1 + Page 1</title>
    <desc>Created with Sketch.</desc>
    <defs>
        <path id="path-1" d="M0,0.0644146868 L159.883203,0.0644146868 L159.883203,233 L0,233 L0,0.0644146868 Z"></path>
    </defs>
    <g id="Entry" stroke="none" stroke-width="1" fill="none" fill-rule="evenodd" sketch:type="MSPage">
        <g sketch:type="MSArtboardGroup" transform="translate(-269.000000, -130.000000)" id="Page-1-+-Page-1">
            <g sketch:type="MSLayerGroup" transform="translate(269.000000, 130.000000)">
                <g id="Page-1" transform="translate(26.000000, 0.000000)">
                    <path d="M157.702556,80.1357705 C157.702556,37.1140567 122.887862,2.23803294 79.9418022,2.23803294 C36.9954914,2.23803294 2.18079749,37.1140567 2.18079749,80.1357705 C2.18079749,97.6384487 7.94356044,113.792444 17.6714097,126.798675 L17.6701538,126.797921 C17.6701538,126.797921 32.8214254,149.673941 55.6856013,163.21411 C55.6856013,163.21411 64.1480188,160.010737 80.0583485,160.003692 C95.9689294,160.010737 104.431347,163.21411 104.431347,163.21411 C127.295272,149.673941 142.446794,126.797921 142.446794,126.797921 L142.067014,126.987894 C151.881268,113.948952 157.702556,97.7239995 157.702556,80.1357705" id="Fill-1" fill="#F3F4F4" sketch:type="MSShapeGroup"></path>
                    <path d="M66.6176452,160.859325 C66.6176452,160.859325 15.4430141,127.106281 10.9220722,43.6985713 C10.9220722,43.6985713 0.266122449,66.9540346 2.18084772,80.8560324 C2.18084772,80.8560324 0.898084772,97.1386058 7.50731554,110.630967 C14.1165463,124.123327 20.2337206,130.425147 20.2337206,130.425147 C20.2337206,130.425147 36.0423234,148.71615 40.3907064,152.190266 C44.7390895,155.66413 55.6856515,163.213984 55.6856515,163.213984 C55.6856515,163.213984 64.021978,160.784594 66.6176452,160.859325" id="Fill-3" fill="#4B73B8" sketch:type="MSShapeGroup"></path>
                    <path d="M63.0175447,4.1119216 C53.1379843,5.83124017 40.8059278,12.7082629 40.8059278,12.7082629 C33.4974192,86.9773903 77.9206531,160.003767 77.9206531,160.003767 L79.9416264,160.003767 L79.9416264,2.2378568 C72.0410926,2.1251311 63.0175447,4.1119216 63.0175447,4.1119216" id="Fill-5" fill="#4B73B8" sketch:type="MSShapeGroup"></path>
                    <path d="M119.091667,12.708288 C119.091667,12.708288 106.759611,5.83126533 96.8800502,4.11194676 C96.8800502,4.11194676 87.8565024,2.12515626 79.9559686,2.23788197 L79.9559686,160.003792 L81.9769419,160.003792 C81.9769419,160.003792 126.400176,86.9774154 119.091667,12.708288" id="Fill-7" fill="#4B73B8" sketch:type="MSShapeGroup"></path>
                    <path d="M93.2799498,160.859325 C93.2799498,160.859325 144.454581,127.106281 148.975523,43.6985713 C148.975523,43.6985713 159.631473,66.9540346 157.716747,80.8560324 C157.716747,80.8560324 159.004031,95.9645475 152.394801,109.456657 C145.78557,122.949017 139.663874,130.425147 139.663874,130.425147 C139.663874,130.425147 126.276622,148.06219 119.903749,153.070935 C115.84849,156.257952 104.211943,163.213984 104.211943,163.213984 C104.211943,163.213984 95.875617,160.784594 93.2799498,160.859325" id="Fill-9" fill="#4B73B8" sketch:type="MSShapeGroup"></path>
                    <path d="M94.8067064,179.662727 C94.6976954,179.63832 88.2077739,178.210125 79.9176641,178.210125 C71.5989199,178.210125 65.0926719,179.648385 65.0278681,179.662979 L63.7162198,179.957374 L62.8084647,178.962972 C57.6128603,173.262776 55.6247912,165.729528 55.5426562,165.411732 L54.9840377,163.248305 L57.1208038,162.606171 C66.3555918,159.832313 78.5007724,159.752047 79.8553721,159.752047 L79.9284647,159.752298 C80.4767849,159.752298 93.6146185,159.78526 103.154085,162.650708 L105.4187,163.331088 L104.694807,165.585602 C104.594336,165.898365 102.175246,173.314609 97.0271146,178.962972 L96.1193595,179.958884 L94.8067064,179.662727 Z" id="Fill-11" fill="#151515" sketch:type="MSShapeGroup"></path>
                    <path d="M64.0711837,179.957248 C81.9369294,184.48389 96.4745746,179.958758 96.4745746,179.958758 C96.4745746,179.958758 81.9369294,175.430607 64.0711837,179.957248" id="Fill-13" fill="#151515" sketch:type="MSShapeGroup"></path>
                    <path d="M80.3360754,162.19369 C80.3360754,162.19369 67.5792779,162.134056 58.2048352,164.949934 C58.2048352,164.949934 60.0713344,172.177212 64.9383987,177.51734 C64.9383987,177.51734 71.6300157,176.008125 80.3360754,176.008125 C89.042135,176.008125 95.733752,177.51734 95.733752,177.51734 C100.600816,172.177212 102.906876,164.994471 102.906876,164.994471 C93.5324333,162.178342 80.3360754,162.19369 80.3360754,162.19369" id="Fill-15" fill="#D1D1D1" sketch:type="MSShapeGroup"></path>
                    <path d="M93.1290424,198.580314 L63.6596546,179.690707 L64.7427316,177.995292 L94.2121193,196.884648 L93.1290424,198.580314 Z" id="Fill-17" fill="#151515" sketch:type="MSShapeGroup"></path>
                    <path d="M66.0882135,199.199022 L64.9991083,197.507382 L95.2021852,177.99728 L96.2912904,179.688921 L66.0882135,199.199022 Z" id="Fill-19" fill="#151515" sketch:type="MSShapeGroup"></path>
                    <mask id="mask-2" sketch:name="Clip 22" fill="white">
                        <use xlink:href="#path-1"></use>
                    </mask>
                    <g id="Clip-22"></g>
                    <path d="M96.2762951,197.732456 L94.0156986,197.732456 L94.0156986,178.842849 L96.2762951,178.842849 L96.2762951,197.732456 Z" id="Fill-21" fill="#221F20" sketch:type="MSShapeGroup" mask="url(#mask-2)"></path>
                    <path d="M66.0184615,197.732456 L63.757865,197.732456 L63.757865,178.842849 L66.0184615,178.842849 L66.0184615,197.732456 Z" id="Fill-23" fill="#221F20" sketch:type="MSShapeGroup" mask="url(#mask-2)"></path>
                    <path d="M100.25497,162.882701 C100.25497,162.882701 90.6780785,169.959007 64.9384239,177.769036 C64.9384239,177.769036 80.2657708,174.41142 95.7337771,177.769036 C95.7337771,177.769036 108.355441,165.148538 100.25497,162.882701" id="Fill-24" fill="#151515" sketch:type="MSShapeGroup" mask="url(#mask-2)"></path>
                    <path d="M70.0283077,223.467935 C67.873708,223.46718 66.3889984,222.445603 65.6158744,220.431889 L64.111573,216.514168 C62.1840377,211.493345 60.2565024,206.472522 58.3226876,201.453964 C57.9044772,200.987964 57.4814945,200.518944 57.0582606,200.049925 C56.6214631,199.565557 56.1728603,199.068104 55.7282763,198.564613 C55.0787316,198.569645 54.4279309,198.571155 53.7771303,198.571155 C53.1120126,198.571155 52.447146,198.569394 51.7820283,198.567884 L51.3366907,198.566626 C49.0027504,198.560587 47.4642889,197.617516 46.5354349,195.608834 L46.1049168,195.197184 L46.1049168,192.69256 L46.2541162,192.301794 C47.1189199,190.037467 48.8487786,188.790187 51.1249482,188.790187 L51.1656389,188.790439 C52.2311334,188.797233 53.2963768,188.800756 54.3616201,188.800756 C55.4821224,188.800756 56.6023736,188.796981 57.7226248,188.789433 L57.7615573,188.789433 C59.3206154,188.789433 60.6561256,189.405398 61.731416,190.620722 C62.3370047,191.30538 62.9486217,191.984502 63.5604898,192.663624 C64.1346813,193.301229 64.7088728,193.938833 65.278292,194.580716 C69.914022,194.575432 74.549752,194.574173 79.1859843,194.573167 C85.3857959,194.571657 91.5856075,194.570148 97.785168,194.558321 C100.852044,194.558321 101.984603,196.489252 102.387743,197.640162 L102.515592,198.004256 L102.515592,199.623178 L96.2755918,215.874802 C96.2755918,215.874802 94.8695008,219.542665 94.5361884,220.409747 C93.7452308,222.467243 92.2896578,223.467683 90.0860785,223.468186 C86.7896264,223.469193 83.4926719,223.469696 80.1962198,223.469696 C76.806832,223.469696 73.4179466,223.469193 70.0283077,223.467935" id="Fill-25" fill="#151515" sketch:type="MSShapeGroup" mask="url(#mask-2)"></path>
                    <path d="M100.25497,199.20257 C98.2252057,204.489103 96.19519,209.775385 94.1656766,215.061919 C93.5854568,216.573148 93.0077488,218.08488 92.4267755,219.595857 C91.9749074,220.770922 91.3514851,221.203205 90.085551,221.203708 C83.4002135,221.205721 76.7146248,221.205973 70.0292873,221.203457 C68.7922386,221.202953 68.1663046,220.766141 67.7257394,219.618755 C65.2958493,213.291521 62.868471,206.963282 60.4320502,200.638565 C60.3378587,200.394493 60.1889105,200.156713 60.0153469,199.960449 C59.0422857,198.858857 58.0428509,197.780163 57.0775761,196.671777 C56.828157,196.385434 56.570449,196.291831 56.2042323,196.295606 C54.5836358,196.312464 52.9630392,196.306174 51.3421915,196.301896 C49.7625369,196.298122 48.9961947,195.765191 48.4353155,194.296737 C48.4247661,194.268808 48.3893501,194.250691 48.3654882,194.227794 L48.3654882,193.111105 C48.855033,191.829101 49.6984867,191.045305 51.1507943,191.054867 C53.3465871,191.069209 55.5423799,191.068706 57.7379215,191.05386 C58.6846091,191.04757 59.4210612,191.42349 60.0397111,192.122742 C61.305394,193.553201 62.5971994,194.960762 63.8608728,196.392983 C64.1389262,196.708011 64.4199937,196.846402 64.8542794,196.845898 C75.832741,196.832311 86.8112025,196.843885 97.7896641,196.823001 C98.9960691,196.820736 99.844044,197.218296 100.25497,198.390341 L100.25497,199.20257 Z" id="Fill-26" fill="#929292" sketch:type="MSShapeGroup" mask="url(#mask-2)"></path>
                    <path d="M87.1254505,233 C84.9535196,232.998742 83.2045714,231.240171 83.2153721,229.068691 C83.2261727,226.890166 84.9791397,225.152479 87.1538336,225.164809 C89.305168,225.177138 91.0317614,226.914322 91.0370361,229.071711 C91.0420597,231.251997 89.3001444,233.001258 87.1254505,233" id="Fill-27" fill="#151515" sketch:type="MSShapeGroup" mask="url(#mask-2)"></path>
                    <path d="M72.7358995,232.999824 C70.565978,233.007876 68.8112527,231.256853 68.8110016,229.083109 C68.8104992,226.929243 70.5380973,225.182498 72.6849105,225.165639 C74.8611115,225.148781 76.6273909,226.887222 76.6386939,229.057192 C76.6497457,231.234207 74.9103422,232.991772 72.7358995,232.999824" id="Fill-28" fill="#151515" sketch:type="MSShapeGroup" mask="url(#mask-2)"></path>
                    <path d="M90.0854757,221.203658 C91.3516609,221.203406 91.974832,220.770872 92.4267002,219.595807 C93.0076735,218.085081 93.5856327,216.573097 94.1656013,215.061868 C96.1951146,209.775335 98.2251303,204.489053 100.254895,199.20252 L100.254895,198.390291 C100.063498,197.844024 99.7758995,197.467852 99.4023987,197.220007 L99.4023987,197.220007 C99.4023987,197.220007 86.9211429,211.887181 68.39681,220.693876 C68.7878932,221.050673 69.3028069,221.203155 70.0292119,221.203406 C76.7148006,221.205922 83.4001381,221.205671 90.0854757,221.203658" id="Fill-29" fill="#7C7C7C" sketch:type="MSShapeGroup" mask="url(#mask-2)"></path>
                    <path d="M153.966091,103.456303 C153.966091,103.456303 136.799121,136.089639 100.452496,162.19369 L104.629325,164.309813 L118.527724,154.916089 L132.426122,141.160785 L140.463799,131.263821 L147.664301,120.360377 L153.966091,108.618033 L153.966091,103.456303 Z" id="Fill-30" fill="#2A53A4" sketch:type="MSShapeGroup" mask="url(#mask-2)"></path>
                    <path d="M6.19835479,103.456303 C6.19835479,103.456303 23.365325,136.089639 59.7119498,162.19369 L55.5351209,164.309813 L41.6367221,154.916089 L27.7383234,141.160785 L19.7006468,131.263821 L12.5001444,120.360377 L6.19835479,108.618033 L6.19835479,103.456303 Z" id="Fill-31" fill="#FEFEFE" sketch:type="MSShapeGroup" mask="url(#mask-2)"></path>
                    <path d="M142.188986,126.616779 C142.188986,126.616779 127.100006,149.398443 104.330524,162.882751 C104.330524,162.882751 95.9027692,159.692715 80.0579969,159.685669 C64.2132245,159.692715 55.7857206,162.882751 55.7857206,162.882751 C33.0159874,149.398443 17.9270078,126.616779 17.9270078,126.616779 L17.9282637,126.617283 C8.24060283,113.664647 2.50145055,97.5773302 2.50145055,80.146867 C2.50145055,37.3025451 37.1727221,2.57044795 79.9417017,2.57044795 C122.710681,2.57044795 157.381953,37.3025451 157.381953,80.146867 C157.381953,97.6626294 151.962801,113.631684 142.188986,126.616779 M159.883177,80.146867 C159.883177,58.7561585 151.567699,38.645692 136.468923,23.5200667 C121.369896,8.39469309 101.294794,0.0643140389 79.9417017,0.0643140389 C58.5886091,0.0643140389 38.5135071,8.39469309 23.4144804,23.5200667 C8.31545369,38.645692 -2.51177394e-05,58.7561585 -2.51177394e-05,80.146867 C-2.51177394e-05,94.3523184 3.64782418,107.984328 10.6232716,120.077179 L10.578562,120.054533 L10.8314976,120.436241 C12.3581538,123.051326 14.0412936,125.594448 15.876898,128.054032 C16.8898964,129.57281 31.831686,151.608168 54.5125024,165.039637 L55.545595,165.646292 L56.6643391,165.228603 C56.7454694,165.198409 64.9557049,162.198094 80.056741,162.1913 C95.1158305,162.198094 103.322047,165.180796 103.450399,165.228352 L104.569394,165.651828 L105.60324,165.039637 C128.602549,151.419453 143.644308,128.951812 144.273256,128.002198 L149.09335,120.361761 C156.177557,108.199211 159.883177,94.4675603 159.883177,80.146867" id="Fill-32" fill="#221F20" sketch:type="MSShapeGroup" mask="url(#mask-2)"></path>
                    <path d="M62.2220659,199.578616 L57.2404647,194.378388 L50.9595228,194.378388 C49.1598367,193.708073 50.9557551,191.065309 50.9595228,191.060277 C49.6245149,191.119156 48.8328038,191.886848 48.3653626,193.110979 L48.3653626,194.227919 C48.3892245,194.250565 48.4246405,194.268933 48.4354411,194.296612 C48.9963203,195.765317 49.7626625,196.297996 51.3423171,196.302022 C52.9629137,196.306048 54.5837614,196.31259 56.2043579,196.295731 C56.5703234,196.291957 56.8282826,196.38556 57.0774505,196.671652 C58.0429765,197.780037 59.0421601,198.858983 60.0154725,199.960575 C60.1887849,200.156838 60.3379843,200.394367 60.4319246,200.63869 C62.8683454,206.963407 65.2959749,213.291647 67.7256138,219.61888 C67.9024427,220.079345 68.1101664,220.423561 68.374405,220.672916 L70.505394,219.653604 L62.2220659,199.578616 Z" id="Fill-33" fill="#A9A9AA" sketch:type="MSShapeGroup" mask="url(#mask-2)"></path>
                </g>
                <path d="M199.386747,284.237613 C196.11901,284.237613 193.6548,281.772989 193.6548,278.504258 C193.6548,275.128698 196.011755,272.770903 199.386747,272.770903 C202.762183,272.770903 205.11958,275.128698 205.11958,278.504258 C205.11958,281.772989 202.654927,284.237613 199.386747,284.237613 L199.386747,284.237613 Z M199.775436,267.062371 C197.68662,267.062371 194.924578,267.845643 193.089716,269.992438 L192.803407,267.562832 C191.792461,267.900166 188.976791,268.991073 187.29971,271.154269 L187.29971,298.318333 C187.29971,298.318333 191.109041,297.281063 193.180573,294.609427 L193.180573,287.509003 C194.843471,289.290537 197.677312,289.946145 199.947842,289.946145 C206.558661,289.946145 211,285.348024 211,278.504258 C211,271.874152 206.279443,267.062371 199.775436,267.062371 L199.775436,267.062371 Z M116.760822,283.546986 C113.665048,283.546986 111.503103,281.242828 111.503103,277.943512 C111.503103,274.592775 113.665048,272.253155 116.760822,272.253155 C119.782581,272.253155 121.97555,274.646411 121.97555,277.943512 C121.97555,281.242828 119.83089,283.546986 116.760822,283.546986 L116.760822,283.546986 Z M122.275156,267.057939 L121.56869,267.952473 C119.973158,266.976376 118.171981,266.846495 116.760822,266.846495 C110.33216,266.846495 105.666117,271.513324 105.666117,277.943512 C105.666117,284.734971 109.917322,288.953646 116.760822,288.953646 C119.210406,288.953646 121.846135,290.19438 121.846135,292.917879 C121.846135,295.509281 119.849948,297.183985 116.760822,297.183985 C113.916344,297.183985 111.739773,295.531445 111.524376,293.284913 C109.079668,295.205636 108.016423,298.575434 107.870166,299.073235 C109.826465,301.352569 112.959025,302.719638 116.760822,302.719638 C123.319786,302.719638 127.726555,298.780671 127.726555,292.917879 C127.726555,290.858411 127.293989,287.93455 123.686758,285.891039 C127.50451,283.773945 127.812536,279.309694 127.812536,277.943512 C127.812536,275.428797 127.107843,273.362236 125.659898,271.633895 L128.03857,268.605865 C125.933798,267.325678 123.337071,267.096061 122.275156,267.057939 L122.275156,267.057939 Z M93.5050647,267.191809 C91.0098308,267.191809 88.9041725,268.077034 86.747989,270.047847 L86.6269946,269.034958 C85.1644241,268.085013 83.425738,267.672322 82.1227207,267.493681 L81.1583106,267.493681 L81.1583106,285.534644 C81.2615769,285.584291 81.3701617,285.678266 81.4853945,285.826764 C83.1655777,287.993949 85.9892252,289.085743 86.9957396,289.420417 L86.9957396,278.245384 C86.9957396,275.0263 89.2006754,272.598468 92.1240436,272.598468 C95.1010393,272.598468 96.9505262,274.662813 96.9505262,277.98651 L96.9505262,285.720821 C97.0143475,285.773571 97.0794983,285.841836 97.1477516,285.929605 C98.6940875,287.923911 101.208379,289.007282 102.383754,289.428396 L102.830503,289.428396 L102.830503,277.943512 C102.830503,270.516392 98.1467316,267.191809 93.5050647,267.191809 L93.5050647,267.191809 Z M135.863765,275.69299 C136.663747,273.445572 138.657275,272.166715 141.397157,272.166715 C144.261136,272.166715 146.122146,273.446458 146.559144,275.69299 L135.863765,275.69299 Z M141.224751,266.889493 C134.278871,266.889493 129.611498,271.487614 129.611498,278.33138 C129.611498,285.522232 134.210617,289.989143 141.61344,289.989143 C145.285822,289.989143 148.875767,288.630496 150.982312,286.44292 L151.027962,286.39549 C149.17227,284.582483 146.626954,283.722524 146.010902,283.533688 C144.72517,284.219439 143.007314,284.582927 141.699421,284.582927 C138.472016,284.582927 136.217441,283.092627 135.720611,280.66834 L152.248987,280.66834 L152.275579,280.388632 C152.685542,276.004615 151.779635,272.453959 149.654919,270.121432 C147.730087,268.006996 144.814697,266.889493 141.224751,266.889493 L141.224751,266.889493 Z M177.332514,262.42081 C177.193791,262.59945 177.064819,262.700518 176.944268,262.737753 L176.944268,276.260386 C176.944268,281.357637 174.367041,284.280611 169.874291,284.280611 C165.17678,284.280611 162.373077,281.282723 162.373077,276.260386 L162.373077,258.647186 L162.292414,258.647186 L162.358451,258.711904 C162.358451,258.711904 158.548677,259.749174 156.478031,262.42081 C156.34507,262.592358 156.22053,262.693425 156.104411,262.734207 L156.104411,276.260386 C156.104411,284.652965 161.491989,290.075582 169.830857,290.075582 C178.085073,290.075582 183.21249,284.781958 183.21249,276.260386 L183.21249,258.711904 C183.21249,258.711904 179.403602,259.749174 177.332514,262.42081 L177.332514,262.42081 Z M70.0578438,282.717614 C68.9892809,283.965884 67.4589003,284.625925 65.6320168,284.625925 C62.1045627,284.625925 59.6407963,282.090819 59.6407963,278.460817 C59.6407963,274.799342 62.0487191,272.33915 65.6320168,272.33915 C69.6890987,272.33915 71.5368128,275.523658 71.5368128,278.482538 C71.5368128,280.099172 71.011617,281.603213 70.0578438,282.717614 L70.0578438,282.717614 Z M71.7867794,269.208723 C71.7610736,269.223794 71.7375838,269.234876 71.7132076,269.246844 L71.676865,269.862114 C70.2701381,268.11161 67.8147925,267.01893 65.159119,267.01893 L65.0536367,267.01893 C58.1932947,267.01893 53.7603765,271.510221 53.7603765,278.460817 C53.7603765,282.083283 54.8595204,285.077181 56.9381433,287.118919 C58.9077382,289.053383 61.6693372,290.076025 64.9237781,290.076025 L65.0336925,290.075582 C67.3715893,290.033027 70.230693,288.963398 71.7025708,286.980173 L71.9068874,289.428396 L77.4602232,289.428396 L77.4602232,267.537122 L76.5720441,267.537122 C75.2774476,267.747236 73.49843,268.206471 71.7867794,269.208723 L71.7867794,269.208723 Z M35.7375193,258.604188 L35.73486,258.604188 L35.7375193,258.606404 L35.7375193,258.604188 Z M183.21249,258.711904 L183.21249,258.647186 L183.146453,258.647186 L183.21249,258.711904 Z M23.6921433,281.177667 C21.8577253,283.011507 19.0309755,284.151174 16.3159128,284.151174 C8.9396823,284.151174 6.26716714,279.025996 6.22550604,274.229287 C6.20112986,271.346651 7.23335007,268.638224 9.05668794,266.798621 C10.8370351,265.002903 13.3473379,264.053845 16.3159128,264.053845 C19.0602269,264.053845 21.5731889,265.033932 23.3920947,266.814136 L23.6061619,267.023806 L27.8462867,262.927919 L27.6211395,262.70628 C24.4996595,259.627273 20.5901642,258 16.3159128,258 C11.5368529,258 7.47090697,259.548369 4.55817568,262.477992 C1.63658033,265.416038 -0.0245451771,269.700761 0.000274200902,274.23372 C0.0406056901,281.561545 4.3379037,290.119023 16.3159128,290.119023 C20.9296579,290.119023 24.9734437,288.536521 28.0093854,285.54218 L28.2292142,285.325417 L23.9110857,280.958244 L23.6921433,281.177667 Z M42.0739951,267.234806 C39.4613124,267.234806 37.3800302,268.105847 35.7375193,269.892257 L35.7375193,258.743377 C35.1077275,258.933543 31.8311264,260.013368 29.9647979,262.42081 C29.928012,262.467797 29.8921125,262.508579 29.8570995,262.545371 L29.8570995,285.805044 C29.8921125,285.841836 29.928012,285.882617 29.9647979,285.929605 C31.5106906,287.923911 34.0249822,289.007282 35.2008002,289.428396 L35.7375193,289.428396 L35.7375193,278.245384 C35.7375193,275.099885 37.8679969,272.727905 40.6934172,272.727905 C43.6110237,272.727905 45.2176352,274.57992 45.2176352,277.943512 L45.2176352,285.929605 C46.7635279,287.923911 49.2778196,289.007282 50.4536376,289.428396 L51.0976118,289.428396 L51.0976118,277.90007 C51.0976118,271.022615 47.8932528,267.234806 42.0739951,267.234806 L42.0739951,267.234806 Z" id="Page-1" fill="#F1F1F1" sketch:type="MSShapeGroup"></path>
            </g>
        </g>
    </g>
</svg>