<?xml version="1.0" encoding="UTF-8" standalone="no"?>
<svg width="34px" height="34px" viewBox="0 0 34 34" version="1.1" xmlns="http://www.w3.org/2000/svg" xmlns:xlink="http://www.w3.org/1999/xlink" xmlns:sketch="http://www.bohemiancoding.com/sketch/ns">
    <!-- Generator: Sketch 3.4.3 (16044) - http://www.bohemiancoding.com/sketch -->
    <title>Shape</title>
    <desc>Created with Sketch.</desc>
    <defs></defs>
    <g id="Home" stroke="none" stroke-width="1" fill="none" fill-rule="evenodd" sketch:type="MSPage">
        <g id="Shop" sketch:type="MSArtboardGroup" transform="translate(-192.000000, -2155.000000)" fill="#C7C7C7">
            <g id="10-likes-+-Shape" sketch:type="MSLayerGroup" transform="translate(192.000000, 2154.000000)">
                <path d="M29.9282573,1.00401606 L3.32534785,1.00401606 C1.49642236,1.00401606 0.0166536511,2.49856444 0.0166536511,4.32241686 L0,34.2160405 L6.65208878,27.572219 L29.9282573,27.572219 C31.7571828,27.572219 33.2536052,26.0776706 33.2536052,24.2538182 L33.2536052,4.32241686 C33.2536685,2.49856444 31.7572461,1.00401606 29.9282573,1.00401606 L29.9282573,1.00401606 Z M11.6387491,15.9508279 L8.31340129,15.9508279 L8.31340129,12.6254704 L11.6387491,12.6254704 L11.6387491,15.9508279 L11.6387491,15.9508279 Z M18.2881151,15.9508279 L14.9655534,15.9508279 L14.9655534,12.6254704 L18.2881151,12.6254704 L18.2881151,15.9508279 L18.2881151,15.9508279 Z M24.9402039,15.9508279 L21.614856,15.9508279 L21.614856,12.6254704 L24.9402039,12.6254704 L24.9402039,15.9508279 L24.9402039,15.9508279 Z" id="Shape" sketch:type="MSShapeGroup"></path>
            </g>
        </g>
    </g>
</svg>