<?xml version="1.0" encoding="UTF-8" standalone="no"?>
<svg width="36px" height="32px" viewBox="0 0 36 32" version="1.1" xmlns="http://www.w3.org/2000/svg" xmlns:xlink="http://www.w3.org/1999/xlink" xmlns:sketch="http://www.bohemiancoding.com/sketch/ns">
    <!-- Generator: Sketch 3.4.3 (16044) - http://www.bohemiancoding.com/sketch -->
    <title>Shape</title>
    <desc>Created with Sketch.</desc>
    <defs></defs>
    <g id="Home" stroke="none" stroke-width="1" fill="none" fill-rule="evenodd" sketch:type="MSPage">
        <g id="Shop" sketch:type="MSArtboardGroup" transform="translate(-685.000000, -2153.000000)" fill="#C7C7C7">
            <path d="M720.37426,2163.59605 L710.158963,2153.37924 C709.906202,2153.12644 709.607041,2153 709.261199,2153 C708.915358,2153 708.615987,2153.12644 708.363436,2153.37924 C708.110676,2153.63218 707.984121,2153.93153 707.984121,2154.27736 L707.984121,2159.38577 L703.515012,2159.38577 C694.031021,2159.38577 688.212157,2162.06644 686.057092,2167.42765 C685.352341,2169.21006 685,2171.42531 685,2174.07265 C685,2176.28084 685.844654,2179.28065 687.533821,2183.0722 C687.573653,2183.16551 687.643255,2183.32479 687.743185,2183.55089 C687.843045,2183.77686 687.932702,2183.9764 688.012507,2184.14953 C688.09259,2184.32223 688.179103,2184.46859 688.272115,2184.58818 C688.431584,2184.81442 688.617887,2184.92779 688.830745,2184.92779 C689.030256,2184.92779 689.18658,2184.86132 689.299718,2184.72831 C689.412576,2184.59537 689.469109,2184.42889 689.469109,2184.22983 C689.469109,2184.10976 689.452478,2183.93377 689.419144,2183.70081 C689.385881,2183.46786 689.369179,2183.31193 689.369179,2183.23197 C689.302583,2182.3277 689.269319,2181.5089 689.269319,2180.77775 C689.269319,2179.4342 689.385881,2178.23023 689.618445,2177.16604 C689.851359,2176.10164 690.173861,2175.18059 690.586299,2174.40226 C690.998668,2173.62365 691.530534,2172.95233 692.182455,2172.3869 C692.834097,2171.82146 693.535634,2171.35933 694.287136,2171.00008 C695.038777,2170.64076 695.923263,2170.35805 696.940802,2170.15193 C697.958272,2169.94575 698.98238,2169.80268 700.013337,2169.72279 C701.044294,2169.6429 702.211449,2169.6032 703.515012,2169.6032 L707.984121,2169.6032 L707.984121,2174.71175 C707.984121,2175.05758 708.110397,2175.357 708.362947,2175.60966 C708.615917,2175.86218 708.915078,2175.98876 709.26071,2175.98876 C709.606482,2175.98876 709.905853,2175.86218 710.158963,2175.60966 L720.37405,2165.3925 C720.62681,2165.1397 720.753085,2164.84049 720.753085,2164.49459 C720.753016,2164.14876 720.62681,2163.84934 720.37426,2163.59605 L720.37426,2163.59605 Z" id="Shape" sketch:type="MSShapeGroup"></path>
        </g>
    </g>
</svg>