<?xml version="1.0" encoding="UTF-8" standalone="no"?>
<svg width="26px" height="33px" viewBox="0 0 26 33" version="1.1" xmlns="http://www.w3.org/2000/svg" xmlns:xlink="http://www.w3.org/1999/xlink" xmlns:sketch="http://www.bohemiancoding.com/sketch/ns">
    <!-- Generator: Sketch 3.4.3 (16044) - http://www.bohemiancoding.com/sketch -->
    <title>Shape</title>
    <desc>Created with Sketch.</desc>
    <defs></defs>
    <g id="Home" stroke="none" stroke-width="1" fill="none" fill-rule="evenodd" sketch:type="MSPage">
        <g id="Shop" sketch:type="MSArtboardGroup" transform="translate(-30.000000, -2150.000000)" fill="#C7C7C7">
            <path d="M45.275982,2150 L45.275982,2150 C44.283516,2150 43.3180684,2150.34893 42.5573876,2150.98257 C41.7389686,2151.66441 41.2138665,2152.63143 41.0786817,2153.70551 C40.6840455,2156.84206 39.7948419,2158.24739 38.1804885,2160.79841 L38.1141452,2160.90325 C36.2331232,2163.87648 34.7576559,2163.87648 32.3132249,2163.87648 C31.035677,2163.87648 30,2164.91216 30,2166.18971 L30,2177.17253 C30,2178.45017 31.035677,2179.48575 32.3132249,2179.48575 C33.4987064,2179.48575 33.8604947,2179.71846 34.6533757,2180.2282 C35.3302253,2180.66337 36.2572733,2181.25953 37.708128,2181.69821 C39.236707,2182.16049 41.1391031,2182.38515 43.5239454,2182.38515 L46.3507988,2182.38256 C49.0921553,2182.38256 51.3241397,2180.15057 51.3241397,2177.40718 C51.3241397,2177.37332 51.3237696,2177.33945 51.3231219,2177.3054 C52.438559,2176.38501 53.1345621,2174.99402 53.1345621,2173.46619 C53.1345621,2173.2815 53.1242914,2173.09783 53.103935,2172.91564 C53.2529067,2172.75288 53.3917001,2172.57957 53.5195752,2172.39674 C54.1035257,2171.5599 54.4121099,2170.57715 54.4121099,2169.55462 C54.4121099,2169.49503 54.4109996,2169.4359 54.4088714,2169.37659 C55.3731161,2168.45556 56,2167.06336 56,2165.5371 C56,2164.19284 55.4523209,2162.92991 54.4577267,2161.98093 C53.4984786,2161.06564 52.2463762,2160.56163 50.9319093,2160.56163 L49.3353215,2160.56163 C49.9113145,2158.35093 49.9923699,2156.03594 49.5670141,2153.83274 C49.3461474,2152.68862 48.8166965,2151.72233 48.0355667,2151.03855 C47.270722,2150.36882 46.2905624,2150.00009 45.275982,2150 L45.275982,2150 L45.275982,2150 Z" id="Shape" sketch:type="MSShapeGroup"></path>
        </g>
    </g>
</svg>