<?xml version="1.0" encoding="UTF-8" standalone="no"?>
<svg width="37px" height="40px" viewBox="0 0 37 40" version="1.1" xmlns="http://www.w3.org/2000/svg" xmlns:xlink="http://www.w3.org/1999/xlink" xmlns:sketch="http://www.bohemiancoding.com/sketch/ns">
    <!-- Generator: Sketch 3.4.3 (16044) - http://www.bohemiancoding.com/sketch -->
    <title>Shape</title>
    <desc>Created with Sketch.</desc>
    <defs></defs>
    <g id="Home" stroke="none" stroke-width="1" fill="none" fill-rule="evenodd" sketch:type="MSPage">
        <g id="Menu_shop" sketch:type="MSArtboardGroup" transform="translate(-78.000000, -824.000000)" fill="#666666">
            <path d="M114.529984,831.605244 C114.308052,831.253429 113.953684,831.045232 113.577107,831.045232 L87.0418173,831.045232 C86.990406,831.045232 86.939077,831.048846 86.8896399,831.05655 L85.7975823,827.416658 C85.6843952,827.040209 85.4351534,826.740134 85.1148406,826.594329 L79.6111202,824.094436 C79.0045494,823.819851 78.3200804,824.164342 78.0818611,824.864834 C77.8440531,825.565705 78.1419095,826.357598 78.7481512,826.633039 L83.7468073,828.903526 L89.865242,849.295197 C89.5951889,849.404004 89.366347,849.643588 89.2621261,849.978758 L87.4930849,855.660586 C87.3846688,856.008977 87.4293349,856.396078 87.6138396,856.698816 C87.7980976,857.001553 88.0977636,857.181788 88.4177474,857.181788 L89.3262051,857.181788 C88.7632311,857.906153 88.4177474,858.860115 88.4177474,859.909092 C88.4177474,862.164931 90.0051629,864 91.9558299,864 C93.9064969,864 95.4939124,862.164931 95.4939124,859.909092 C95.4939124,858.860115 95.1484286,857.906153 94.5854547,857.181788 L102.299284,857.181788 C101.736063,857.906153 101.390497,858.860115 101.390497,859.909092 C101.390497,862.164931 102.977584,864 104.928662,864 C106.879658,864 108.466744,862.164931 108.466744,859.909092 C108.466744,858.860115 108.121261,857.906153 107.558369,857.181788 L108.663341,857.181788 C109.206162,857.181788 109.646078,856.673041 109.646078,856.045404 C109.646078,855.417768 109.20608,854.909115 108.663341,854.909115 L89.8161339,854.909115 L90.9117287,851.390394 C91.0532125,851.459254 91.2060479,851.499961 91.3660398,851.499961 L108.663094,851.499961 C109.175891,851.499961 109.629709,851.11695 109.785917,850.552752 L114.699929,832.825326 C114.815173,832.410263 114.751916,831.957059 114.529984,831.605244 L114.529984,831.605244 Z M91.9558299,861.727231 C91.0885835,861.727231 90.3833853,860.911846 90.3833853,859.909092 C90.3833853,858.906338 91.0885835,858.090858 91.9558299,858.090858 C92.8230763,858.090858 93.5282744,858.906338 93.5282744,859.909092 C93.5282744,860.911846 92.8230763,861.727231 91.9558299,861.727231 L91.9558299,861.727231 Z M104.92858,861.727231 C104.061333,861.727231 103.356053,860.911846 103.356053,859.909092 C103.356053,858.906338 104.061333,858.090858 104.92858,858.090858 C105.795744,858.090858 106.501024,858.906338 106.501024,859.909092 C106.501024,860.911846 105.795744,861.727231 104.92858,861.727231 L104.92858,861.727231 Z M111.110518,836.840716 L105.092438,836.840716 L105.092438,833.772535 L111.960901,833.772535 L111.110518,836.840716 L111.110518,836.840716 Z M109.377588,843.09064 L105.092438,843.09064 L105.092438,839.567925 L110.354237,839.567925 L109.377588,843.09064 L109.377588,843.09064 Z M97.2953633,843.09064 L97.2953633,839.567925 L102.733689,839.567925 L102.733689,843.09064 L97.2953633,843.09064 L97.2953633,843.09064 Z M102.733689,845.818134 L102.733689,848.772658 L97.2953633,848.772658 L97.2953633,845.818134 L102.733689,845.818134 L102.733689,845.818134 Z M89.4433405,839.567925 L94.936861,839.567925 L94.936861,843.09064 L90.5004385,843.09064 L89.4433405,839.567925 L89.4433405,839.567925 Z M97.2953633,836.840716 L97.2953633,833.772535 L102.733689,833.772535 L102.733689,836.840716 L97.2953633,836.840716 L97.2953633,836.840716 Z M94.9367787,833.772535 L94.9367787,836.840716 L88.6247909,836.840716 L87.7042412,833.772535 L94.9367787,833.772535 L94.9367787,833.772535 Z M91.3189059,845.818134 L94.9367787,845.818134 L94.9367787,848.772658 L92.2053185,848.772658 L91.3189059,845.818134 L91.3189059,845.818134 Z M105.092438,848.772753 L105.092438,845.818229 L108.622048,845.818229 L107.803169,848.772753 L105.092438,848.772753 L105.092438,848.772753 Z" id="Shape" sketch:type="MSShapeGroup"></path>
        </g>
    </g>
</svg>