<?xml version="1.0" encoding="UTF-8" standalone="no"?>
<svg width="32px" height="25px" viewBox="0 0 32 25" version="1.1" xmlns="http://www.w3.org/2000/svg" xmlns:xlink="http://www.w3.org/1999/xlink" xmlns:sketch="http://www.bohemiancoding.com/sketch/ns">
    <!-- Generator: Sketch 3.4.3 (16044) - http://www.bohemiancoding.com/sketch -->
    <title>Fill 185</title>
    <desc>Created with Sketch.</desc>
    <defs></defs>
    <g id="Entry" stroke="none" stroke-width="1" fill="none" fill-rule="evenodd" sketch:type="MSPage">
        <g sketch:type="MSArtboardGroup" transform="translate(-69.000000, -871.000000)" id="Fill-185" fill="#666666">
            <path d="M85,885.916 L81.684,883.167 L70.115,895.01 L99.591,895.01 L88.235,883.147 L85,885.916 L85,885.916 Z M89.89,881.89 L100.892,893.329 C100.955,893.107 101,892.877 101,892.634 L101,872.862 L89.89,881.89 L89.89,881.89 Z M69,872.816 L69,892.634 C69,892.877 69.045,893.107 69.108,893.329 L80.147,881.927 L69,872.816 L69,872.816 Z M100,871 L70,871 L85,883.019 L100,871 L100,871 Z" sketch:type="MSShapeGroup"></path>
        </g>
    </g>
</svg>