<?xml version="1.0" encoding="utf-8"?>
<!-- Generator: Adobe Illustrator 19.1.0, SVG Export Plug-In . SVG Version: 6.00 Build 0)  -->
<svg version="1.1" id="Layer_1" xmlns="http://www.w3.org/2000/svg" xmlns:xlink="http://www.w3.org/1999/xlink" x="0px" y="0px"
	 viewBox="0 0 697.7 238.3" style="enable-background:new 0 0 697.7 238.3;" xml:space="preserve">
<style type="text/css">
	.st0{clip-path:url(#SVGID_2_);}
	.st1{clip-path:url(#SVGID_4_);enable-background:new    ;}
	.st2{clip-path:url(#SVGID_6_);}
	.st3{clip-path:url(#SVGID_8_);enable-background:new    ;}
	.st4{clip-path:url(#SVGID_10_);}
	.st5{clip-path:url(#SVGID_12_);}
	.st6{clip-path:url(#SVGID_16_);enable-background:new    ;}
	.st7{clip-path:url(#SVGID_18_);}
	.st8{clip-path:url(#SVGID_20_);}
	.st9{fill:url(#SVGID_23_);}
	.st10{fill:#22ADDB;}
	.st11{fill:#161616;}
	.st12{fill:#FBFBFB;}
	.st13{fill:#F4F4F4;}
	.st14{fill:#4C74B8;}
	.st15{fill:#D1D1D1;}
	.st16{opacity:0.15;fill:#161616;}
	.st17{fill:#939292;}
	.st18{fill:#7D7D7D;}
	.st19{fill:#2B53A4;}
	.st20{opacity:0.15;fill:#FFFFFF;}
	.st21{fill:#231F20;}
	.st22{fill:#A9A9AA;}
	.st23{fill:#FFFFFF;}
	.st24{fill:#FBFBFB;stroke:#C7C7C7;stroke-miterlimit:10;}
	.st25{fill:#FFFFFF;stroke:#C7C7C7;stroke-miterlimit:10;}
	.st26{fill:#FC6E5E;}
	.st27{fill:#F1F1F1;}
	.st28{fill:#C7C7C7;}
	.st29{fill:#666666;}
	.st30{fill:#434343;}
</style>
<g>
	<g>
		<path class="st13" d="M155.4,80.2c0-41.1-33.3-74.4-74.4-74.4C39.9,5.8,6.6,39.1,6.6,80.2c0,16.7,5.5,32.1,14.8,44.5l0,0
			c0,0,14.5,21.8,36.4,34.8c0,0,8.1-3.1,23.3-3.1c15.2,0,23.3,3.1,23.3,3.1c21.9-12.9,36.4-34.8,36.4-34.8l-0.4,0.2
			C149.8,112.4,155.4,97,155.4,80.2z"/>
		<path class="st14" d="M68.2,157.2c0,0-48.9-32.2-53.3-111.9c0,0-10.2,22.2-8.4,35.5c0,0-1.2,15.5,5.1,28.4s12.2,18.9,12.2,18.9
			S39,145.6,43.2,149s14.6,10.5,14.6,10.5S65.8,157.2,68.2,157.2z"/>
		<path class="st14" d="M118.4,15.8c0,0-11.8-6.6-21.2-8.2c0,0-8.6-1.9-16.2-1.8l0,0v0c-7.6-0.1-16.2,1.8-16.2,1.8
			c-9.4,1.6-21.2,8.2-21.2,8.2c-7,70.9,35.5,140.6,35.5,140.6h1.4l0,0.1h2l0-0.1h0.5C82.9,156.4,125.4,86.7,118.4,15.8z"/>
		<path class="st14" d="M93.7,157.2c0,0,48.9-32.2,53.3-111.9c0,0,10.2,22.2,8.4,35.5c0,0,1.2,14.4-5.1,27.3
			c-6.3,12.9-12.2,20-12.2,20s-12.8,16.8-18.9,21.6c-3.9,3-15,9.7-15,9.7S96.2,157.2,93.7,157.2z"/>
		<path class="st11" d="M95.2,175.2c-0.1,0-6.3-1.4-14.2-1.4c-8,0-14.2,1.4-14.2,1.4l-1.3,0.3l-0.9-0.9c-5-5.4-6.9-12.6-6.9-12.9
			l-0.5-2.1l2-0.6c8.8-2.6,20.4-2.7,21.7-2.7l0.1,0c0.5,0,13.1,0,22.2,2.8l2.2,0.6l-0.7,2.2c-0.1,0.3-2.4,7.4-7.3,12.8l-0.9,1
			L95.2,175.2z"/>
		<path class="st11" d="M65.8,175.5c17.1,4.3,31,0,31,0S82.9,171.1,65.8,175.5z"/>
		<path class="st15" d="M81.4,158.5c0,0-12.2-0.1-21.2,2.6c0,0,1.8,6.9,6.4,12c0,0,6.4-1.4,14.7-1.4s14.7,1.4,14.7,1.4
			c4.7-5.1,6.9-12,6.9-12C94,158.5,81.4,158.5,81.4,158.5z"/>
		
			<rect x="63.3" y="182.5" transform="matrix(0.8423 0.539 -0.539 0.8423 111.4737 -14.2086)" class="st11" width="33.5" height="1.9"/>
		
			<rect x="80.7" y="166.5" transform="matrix(0.542 0.8404 -0.8404 0.542 191.7899 15.5207)" class="st11" width="1.9" height="34.4"/>
		<rect x="94.4" y="174.4" width="2.2" height="18"/>
		<rect x="65.5" y="174.4" width="2.2" height="18"/>
		<path class="st16" d="M100.4,159.2c0,0-9.2,6.8-33.8,14.2c0,0,14.7-3.2,29.5,0C96.1,173.4,108.2,161.3,100.4,159.2z"/>
		<path class="st11" d="M71.5,217c-2.1,0-3.5-1-4.2-2.9l-1.4-3.7c-1.8-4.8-3.7-9.6-5.5-14.4c-0.4-0.4-0.8-0.9-1.2-1.3
			c-0.4-0.5-0.8-0.9-1.3-1.4c-0.6,0-1.2,0-1.9,0c-0.6,0-1.3,0-1.9,0l-0.4,0c-2.2,0-3.7-0.9-4.6-2.8l-0.4-0.4v-2.4l0.1-0.4
			c0.8-2.2,2.5-3.4,4.7-3.4l0,0c1,0,2,0,3.1,0c1.1,0,2.1,0,3.2,0l0,0c1.5,0,2.8,0.6,3.8,1.7c0.6,0.7,1.2,1.3,1.7,2
			c0.5,0.6,1.1,1.2,1.6,1.8c4.4,0,8.9,0,13.3,0c5.9,0,11.9,0,17.8,0c2.9,0,4,1.8,4.4,2.9l0.1,0.3v1.5l-6,15.5c0,0-1.3,3.5-1.7,4.3
			c-0.8,2-2.1,2.9-4.3,2.9c-3.2,0-6.3,0-9.5,0C78,217,74.7,217,71.5,217z"/>
		<path class="st17" d="M100.4,193.8c-1.9,5-3.9,10.1-5.8,15.1c-0.6,1.4-1.1,2.9-1.7,4.3c-0.4,1.1-1,1.5-2.2,1.5
			c-6.4,0-12.8,0-19.2,0c-1.2,0-1.8-0.4-2.2-1.5c-2.3-6-4.6-12.1-7-18.1c-0.1-0.2-0.2-0.5-0.4-0.6c-0.9-1.1-1.9-2.1-2.8-3.1
			c-0.2-0.3-0.5-0.4-0.8-0.4c-1.5,0-3.1,0-4.6,0c-1.5,0-2.2-0.5-2.8-1.9c0,0,0,0-0.1-0.1c0-0.4,0-0.7,0-1.1c0.5-1.2,1.3-2,2.7-2
			c2.1,0,4.2,0,6.3,0c0.9,0,1.6,0.4,2.2,1c1.2,1.4,2.4,2.7,3.7,4.1c0.3,0.3,0.5,0.4,1,0.4c10.5,0,21,0,31.5,0c1.2,0,2,0.4,2.4,1.5
			C100.4,193.3,100.4,193.6,100.4,193.8z"/>
		<path class="st11" d="M87.9,226.1c-2.1,0-3.7-1.7-3.7-3.8c0-2.1,1.7-3.7,3.8-3.7c2.1,0,3.7,1.7,3.7,3.7
			C91.6,224.4,89.9,226.1,87.9,226.1z"/>
		<path class="st11" d="M74.1,226.1c-2.1,0-3.8-1.7-3.8-3.7c0-2.1,1.7-3.7,3.7-3.7c2.1,0,3.8,1.6,3.8,3.7
			C77.8,224.4,76.2,226.1,74.1,226.1z"/>
		<path class="st18" d="M90.7,214.8c1.2,0,1.8-0.4,2.2-1.5c0.6-1.4,1.1-2.9,1.7-4.3c1.9-5,3.9-10.1,5.8-15.1c0-0.3,0-0.5,0-0.8
			c-0.2-0.5-0.5-0.9-0.8-1.1h0c0,0-11.9,14-29.7,22.4l0,0c0.4,0.3,0.9,0.5,1.6,0.5C77.9,214.8,84.3,214.8,90.7,214.8z"/>
		<path class="st19" d="M151.8,102.4c0,0-16.4,31.2-51.2,56.1l4,2l13.3-9l13.3-13.1l7.7-9.4l6.9-10.4l6-11.2V102.4z"/>
		<path class="st20" d="M10.5,102.4c0,0,16.4,31.2,51.2,56.1l-4,2l-13.3-9l-13.3-13.1l-7.7-9.4l-6.9-10.4l-6-11.2V102.4z"/>
		<path class="st21" d="M157.4,80.2c0-20.4-8-39.6-22.4-54.1C120.6,11.7,101.4,3.7,81,3.7s-39.6,8-54.1,22.4
			C12.5,40.6,4.5,59.8,4.5,80.2c0,13.6,3.5,26.6,10.2,38.1l0,0l0.2,0.4c1.5,2.5,3.1,4.9,4.8,7.3c1,1.5,15.3,22.5,37,35.3l1,0.6
			l1.1-0.4c0.1,0,7.9-2.9,22.4-2.9c14.4,0,22.3,2.9,22.4,2.9l1.1,0.4l1-0.6c22-13,36.4-34.5,37-35.4l4.6-7.3l0,0
			C153.9,107,157.4,93.8,157.4,80.2z M140.5,124.5c0,0-14.4,21.7-36.2,34.6c0,0-8.1-3-23.2-3.1c-15.2,0-23.2,3.1-23.2,3.1
			c-21.8-12.9-36.2-34.6-36.2-34.6l0,0C12.4,112.2,6.9,96.8,6.9,80.2C6.9,39.3,40.1,6.1,81,6.1c40.9,0,74.1,33.2,74.1,74.1
			C155,96.9,149.9,112.1,140.5,124.5L140.5,124.5z"/>
		<g>
			<path class="st22" d="M64,194.2l-4.8-5h-6c-1.7-0.6,0-3.2,0-3.2c-1.3,0.1-2,0.8-2.5,2c0,0.4,0,0.7,0,1.1c0,0,0.1,0,0.1,0.1
				c0.5,1.4,1.3,1.9,2.8,1.9c1.5,0,3.1,0,4.6,0c0.4,0,0.6,0.1,0.8,0.4c0.9,1.1,1.9,2.1,2.8,3.1c0.2,0.2,0.3,0.4,0.4,0.6
				c2.3,6,4.7,12.1,7,18.1c0.2,0.4,0.4,0.8,0.6,1l2-1L64,194.2z"/>
		</g>
	</g>
	<path class="st11" d="M301.9,99.8c-6,0-10.9,2-14.7,6.1V80.2c-1.5,0.4-9,2.9-13.4,8.5c-0.1,0.1-0.2,0.2-0.2,0.3v53.8
		c0.1,0.1,0.2,0.2,0.2,0.3c3.6,4.6,9.4,7.1,12.1,8.1h1.2v-25.9c0-7.3,4.9-12.8,11.5-12.8c6.7,0,10.5,4.3,10.5,12.1v18.5
		c3.6,4.6,9.4,7.1,12.1,8.1h1.5v-26.7C322.8,108.6,315.4,99.8,301.9,99.8z M259.4,132.1c-4.2,4.2-10.8,6.9-17.1,6.9
		c-17.1,0-23.2-11.9-23.3-22.9c-0.1-6.7,2.3-12.9,6.5-17.2c4.1-4.2,9.9-6.3,16.8-6.3c6.3,0,12.2,2.3,16.4,6.4l0.5,0.5l9.8-9.5
		l-0.5-0.5c-7.2-7.1-16.3-10.9-26.1-10.9c-11.1,0-20.5,3.6-27.2,10.4c-6.8,6.8-10.6,16.7-10.5,27.2c0.1,16.9,10,36.7,37.7,36.7
		c10.7,0,20-3.7,27-10.6l0.5-0.5l-10-10.1L259.4,132.1z M370.7,104.4c-0.1,0-0.1,0.1-0.2,0.1l-0.1,1.4c-3.3-4-8.9-6.6-15.1-6.6
		l-0.2,0c-15.9,0-26.1,10.4-26.1,26.5c0,8.4,2.5,15.3,7.3,20c4.6,4.5,10.9,6.8,18.5,6.8l0.3,0c5.4-0.1,12-2.6,15.4-7.2l0.5,5.7h12.8
		v-50.6h-2.1C378.7,101,374.6,102.1,370.7,104.4z M366.7,135.6c-2.5,2.9-6,4.4-10.2,4.4c-8.2,0-13.9-5.9-13.9-14.3
		c0-8.5,5.6-14.2,13.9-14.2c9.4,0,13.7,7.4,13.7,14.2C370.1,129.6,368.9,133.1,366.7,135.6z M628.4,80.1V80h-0.2L628.4,80.1z
		 M287.3,79.9L287.3,79.9L287.3,79.9L287.3,79.9z M531.3,99c-16.1,0-26.9,10.6-26.9,26.5c0,16.6,10.6,27,27.8,27
		c8.5,0,16.8-3.1,21.7-8.2l0.1-0.1c-4.3-4.2-10.2-6.2-11.6-6.6c-3,1.6-6.9,2.4-10,2.4c-7.5,0-12.7-3.4-13.8-9.1h38.2l0.1-0.6
		c0.9-10.1-1.1-18.3-6.1-23.7C546.3,101.6,539.6,99,531.3,99z M518.9,119.4c1.9-5.2,6.5-8.2,12.8-8.2c6.6,0,10.9,3,11.9,8.2H518.9z
		 M614.8,88.7c-0.3,0.4-0.6,0.6-0.9,0.7v31.3c0,11.8-6,18.5-16.4,18.5c-10.9,0-17.3-6.9-17.3-18.5V80H580l0.2,0.1
		c0,0-8.8,2.4-13.6,8.6c-0.3,0.4-0.6,0.6-0.9,0.7v31.3c0,19.4,12.5,31.9,31.7,31.9c19.1,0,30.9-12.2,30.9-31.9V80.1
		C628.4,80.1,619.6,82.5,614.8,88.7z M666.7,99.4c-4.8,0-11.2,1.8-15.5,6.8l-0.7-5.7h-12.7v71.2c0,0,8.8-2.4,13.6-8.6v-16.4
		c3.8,4.1,10.4,5.6,15.7,5.6c15.3,0,25.6-10.6,25.6-26.5C692.6,110.6,681.7,99.4,666.7,99.4z M665.8,139.2
		c-7.6,0-13.3-5.7-13.3-13.3c0-7.8,5.5-13.3,13.3-13.3c7.8,0,13.3,5.5,13.3,13.3C679,133.5,673.3,139.2,665.8,139.2z M420.9,99.7
		c-5.8,0-10.6,2-15.6,6.6L405,104c-3.4-2.2-7.4-3.2-10.4-3.6h-2.2v41.7c0.2,0.1,0.5,0.3,0.8,0.7c3.9,5,10.4,7.5,12.7,8.3v-25.8
		c0-7.4,5.1-13.1,11.9-13.1c6.9,0,11.2,4.8,11.2,12.5v17.9c0.1,0.1,0.3,0.3,0.5,0.5c3.6,4.6,9.4,7.1,12.1,8.1h1v-26.6
		C442.5,107.4,431.6,99.7,420.9,99.7z M487.4,99.4l-1.6,2.1c-3.7-2.3-7.9-2.6-11.1-2.6c-14.9,0-25.7,10.8-25.7,25.7
		c0,15.7,9.8,25.5,25.7,25.5c5.7,0,11.8,2.9,11.8,9.2c0,6-4.6,9.9-11.8,9.9c-6.6,0-11.6-3.8-12.1-9c-5.7,4.4-8.1,12.2-8.5,13.4
		c4.5,5.3,11.8,8.4,20.6,8.4c15.2,0,25.4-9.1,25.4-22.7c0-4.8-1-11.5-9.3-16.2c8.8-4.9,9.5-15.2,9.5-18.4c0-5.8-1.6-10.6-5-14.6
		l5.5-7C495.9,100,489.9,99.5,487.4,99.4z M474.7,137.6c-7.2,0-12.2-5.3-12.2-13c0-7.7,5-13.2,12.2-13.2c7,0,12.1,5.5,12.1,13.2
		C486.7,132.2,481.8,137.6,474.7,137.6z"/>
</g>
</svg>
