<?xml version="1.0" encoding="UTF-8" standalone="no"?>
<svg width="140px" height="45px" viewBox="0 0 140 45" version="1.1" xmlns="http://www.w3.org/2000/svg" xmlns:xlink="http://www.w3.org/1999/xlink" xmlns:sketch="http://www.bohemiancoding.com/sketch/ns">
    <!-- Generator: Sketch 3.4.4 (17249) - http://www.bohemiancoding.com/sketch -->
    <title>Page 1 + Page 1</title>
    <desc>Created with Sketch.</desc>
    <defs>
        <path id="path-1" d="M0,0.0124260899 L30.78521,0.0124260899 L30.78521,44.9474971 L0,44.9474971 L0,0.0124260899 Z"></path>
    </defs>
    <g id="Shop" stroke="none" stroke-width="1" fill="none" fill-rule="evenodd" sketch:type="MSPage">
        <g sketch:type="MSArtboardGroup" transform="translate(-200.000000, -16.000000)" id="Group">
            <g sketch:type="MSLayerGroup">
                <g id="Page-1-+-Page-1" transform="translate(200.000000, 16.000000)">
                    <g id="Page-1">
                        <path d="M30.3653306,15.4588082 C30.3653306,7.15958779 23.6618268,0.431733815 15.3926437,0.431733815 C7.12341231,0.431733815 0.419908456,7.15958779 0.419908456,15.4588082 C0.419908456,18.8352098 1.52951763,21.9514402 3.40259672,24.4604425 L3.4023549,24.4602968 C3.4023549,24.4602968 6.31970376,28.8732576 10.7221578,31.4852606 C10.7221578,31.4852606 12.3515804,30.8673053 15.4150845,30.8659462 C18.4786369,30.8673053 20.1080595,31.4852606 20.1080595,31.4852606 C24.5104652,28.8732576 27.4278624,24.4602968 27.4278624,24.4602968 L27.3547365,24.4969441 C29.2444527,21.9816317 30.3653306,18.8517132 30.3653306,15.4588082" id="Fill-1" fill="#F3F4F4" sketch:type="MSShapeGroup"></path>
                        <path d="M12.8271023,31.0310045 C12.8271023,31.0310045 2.97352334,24.5197819 2.10302447,8.42979143 C2.10302447,8.42979143 0.0512413772,12.9159497 0.419918129,15.5977523 C0.419918129,15.5977523 0.172924534,18.7387863 1.44551949,21.3415667 C2.71811445,23.9443472 3.89596485,25.1600168 3.89596485,25.1600168 C3.89596485,25.1600168 6.93988161,28.6884924 7.77715459,29.3586761 C8.61442757,30.0288112 10.7221675,31.4852363 10.7221675,31.4852363 C10.7221675,31.4852363 12.3273115,31.0165883 12.8271023,31.0310045" id="Fill-3" fill="#4B73B8" sketch:type="MSShapeGroup"></path>
                        <path d="M12.1339098,0.793221391 C10.231619,1.1248912 7.85710468,2.45152192 7.85710468,2.45152192 C6.44986508,16.7786094 15.0034752,30.8659608 15.0034752,30.8659608 L15.3926099,30.8659608 L15.3926099,0.431699837 C13.8713769,0.40995418 12.1339098,0.793221391 12.1339098,0.793221391" id="Fill-5" fill="#4B73B8" sketch:type="MSShapeGroup"></path>
                        <path d="M22.9308766,2.45152677 C22.9308766,2.45152677 20.5563623,1.12489606 18.6540715,0.793226244 C18.6540715,0.793226244 16.9166044,0.409959034 15.3953714,0.431704691 L15.3953714,30.8659656 L15.784506,30.8659656 C15.784506,30.8659656 24.3381162,16.7786143 22.9308766,2.45152677" id="Fill-7" fill="#4B73B8" sketch:type="MSShapeGroup"></path>
                        <path d="M17.960879,31.0310045 C17.960879,31.0310045 27.814458,24.5197819 28.6849568,8.42979143 C28.6849568,8.42979143 30.7367399,12.9159497 30.3680632,15.5977523 C30.3680632,15.5977523 30.6159273,18.5123014 29.3433323,21.1150333 C28.0707374,23.7178137 26.8920164,25.1600168 26.8920164,25.1600168 C26.8920164,25.1600168 24.3143261,28.5623384 23.0872414,29.528564 C22.3064089,30.1433642 20.0658138,31.4852363 20.0658138,31.4852363 C20.0658138,31.4852363 18.4606698,31.0165883 17.960879,31.0310045" id="Fill-9" fill="#4B73B8" sketch:type="MSShapeGroup"></path>
                        <path d="M18.2548531,34.6583257 C18.2338632,34.6536174 16.984241,34.3781077 15.387996,34.3781077 C13.7862374,34.3781077 12.5334716,34.655559 12.5209938,34.6583743 L12.2684383,34.7151654 L12.0936518,34.5233376 C11.0932479,33.4237257 10.710449,31.9705042 10.694634,31.909199 L10.5870731,31.4918571 L10.9985034,31.3679845 C12.7766445,30.832886 15.1151761,30.8174019 15.3760018,30.8174019 L15.3900756,30.8174505 C15.4956536,30.8174505 18.0253188,30.8238091 19.8621251,31.376576 L20.2981725,31.5078265 L20.1587882,31.9427397 C20.1394427,32.0030742 19.6736516,33.4337249 18.6823885,34.5233376 L18.507602,34.7154566 L18.2548531,34.6583257 Z" id="Fill-11" fill="#151515" sketch:type="MSShapeGroup"></path>
                        <path d="M12.336786,34.7151411 C15.7768017,35.5883652 18.575998,34.7154324 18.575998,34.7154324 C18.575998,34.7154324 15.7768017,33.8419171 12.336786,34.7151411" id="Fill-13" fill="#151515" sketch:type="MSShapeGroup"></path>
                        <path d="M15.4685603,31.2884138 C15.4685603,31.2884138 13.0122629,31.27691 11.2072316,31.8201146 C11.2072316,31.8201146 11.5666225,33.2143122 12.5037666,34.2444641 C12.5037666,34.2444641 13.7922249,33.9533247 15.4685603,33.9533247 C17.1448957,33.9533247 18.433354,34.2444641 18.433354,34.2444641 C19.370498,33.2143122 19.8145255,31.828706 19.8145255,31.828706 C18.0094942,31.2854529 15.4685603,31.2884138 15.4685603,31.2884138" id="Fill-15" fill="#D1D1D1" sketch:type="MSShapeGroup"></path>
                        <path d="M17.931822,38.3076742 L12.2575468,34.6637233 L12.4660912,34.3366647 L18.1403664,37.9805671 L17.931822,38.3076742 Z" id="Fill-17" fill="#151515" sketch:type="MSShapeGroup"></path>
                        <path d="M12.7251613,38.4270277 L12.5154561,38.1006973 L18.3310018,34.3370482 L18.5407069,34.6633787 L12.7251613,38.4270277 Z" id="Fill-19" fill="#151515" sketch:type="MSShapeGroup"></path>
                        <mask id="mask-2" sketch:name="Clip 22" fill="white">
                            <use xlink:href="#path-1"></use>
                        </mask>
                        <g id="Clip-22"></g>
                        <path id="Fill-21" fill="#221F20" sketch:type="MSShapeGroup" mask="url(#mask-2)" d="M18.5378196,38.1441158 L18.102546,38.1441158 L18.102546,34.5001649 L18.5378196,34.5001649 L18.5378196,38.1441158 Z"></path>
                        <path id="Fill-23" fill="#221F20" sketch:type="MSShapeGroup" mask="url(#mask-2)" d="M12.7117306,38.1441158 L12.276457,38.1441158 L12.276457,34.5001649 L12.7117306,34.5001649 L12.7117306,38.1441158 Z"></path>
                        <path d="M19.303906,31.4213293 C19.303906,31.4213293 17.4598935,32.7864032 12.5037714,34.2930181 C12.5037714,34.2930181 15.4550233,33.6453082 18.4333588,34.2930181 C18.4333588,34.2930181 20.8636365,31.8584267 19.303906,31.4213293" id="Fill-24" fill="#151515" sketch:type="MSShapeGroup" mask="url(#mask-2)"></path>
                        <path d="M13.483819,43.1086882 C13.0689549,43.1085426 12.7830768,42.9114725 12.6342133,42.5230116 L12.3445628,41.7672529 C11.9734195,40.7986975 11.6022762,39.830142 11.2299238,38.8620234 C11.1493982,38.7721284 11.0679537,38.6816509 10.9864608,38.5911735 C10.9023563,38.4977351 10.8159786,38.4017727 10.7303748,38.3046453 C10.6053062,38.3056161 10.4799958,38.3059073 10.3546853,38.3059073 C10.2266182,38.3059073 10.0985994,38.3055676 9.97053219,38.3052763 L9.88478328,38.3050336 C9.43538746,38.3038687 9.13915958,38.121943 8.96031049,37.7344528 L8.87741505,37.6550423 L8.87741505,37.171881 L8.90614311,37.0964993 C9.07265945,36.6596931 9.40574049,36.4190833 9.84401266,36.4190833 L9.85184758,36.4191318 C10.0570065,36.4204424 10.2621171,36.4211219 10.4672277,36.4211219 C10.6829784,36.4211219 10.8986806,36.4203938 11.1143829,36.4189376 L11.1218793,36.4189376 C11.422073,36.4189376 11.6792229,36.5377621 11.8862681,36.7722075 C12.0028731,36.9042832 12.1206388,37.0352911 12.2384528,37.166299 C12.3490123,37.2892979 12.4595718,37.4122967 12.5692124,37.5361208 C13.4618135,37.5351015 14.3544146,37.5348588 15.2471124,37.5346646 C16.4408745,37.5343734 17.6346365,37.5340821 18.8283502,37.5318008 C19.4188715,37.5318008 19.6369435,37.9042922 19.7145673,38.1263115 L19.7391845,38.196548 L19.7391845,38.5088506 L18.5376842,41.6439143 C18.5376842,41.6439143 18.266944,42.3514733 18.2027653,42.5187401 C18.0504679,42.9156469 17.7702001,43.1086396 17.345905,43.1087367 C16.7111794,43.1089309 16.076357,43.1090279 15.4416313,43.1090279 C14.7890111,43.1090279 14.1364876,43.1089309 13.483819,43.1086882" id="Fill-25" fill="#151515" sketch:type="MSShapeGroup" mask="url(#mask-2)"></path>
                        <path d="M19.303906,38.4277121 C18.9130787,39.4475252 18.522203,40.4672898 18.131424,41.4871029 C18.0197038,41.7786306 17.9084672,42.0702554 17.7966019,42.3617345 C17.7095955,42.5884136 17.5895567,42.6718043 17.3458035,42.6719014 C16.0585543,42.6722897 14.7712568,42.6723383 13.4840076,42.6718529 C13.2458162,42.6717558 13.1252938,42.5874914 13.0404638,42.3661516 C12.572593,41.1455795 12.1052059,39.9248133 11.6360777,38.7047266 C11.6179413,38.6576434 11.5892616,38.6117736 11.5558422,38.5739129 C11.3684811,38.3614073 11.1760418,38.1533188 10.99018,37.9395027 C10.9421548,37.8842649 10.8925336,37.8662082 10.8220193,37.8669363 C10.5099764,37.8701884 10.1979336,37.868975 9.88584245,37.8681498 C9.58168292,37.8674217 9.43412517,37.7646152 9.32612894,37.4813392 C9.32409767,37.4759513 9.31727838,37.4724565 9.31268383,37.4680394 L9.31268383,37.2526215 C9.40694475,37.0053132 9.56935017,36.8541129 9.84898928,36.8559574 C10.2717851,36.8587241 10.6945808,36.8586271 11.1173282,36.8557632 C11.2996112,36.8545498 11.4414136,36.9270676 11.5605335,37.0619587 C11.8042384,37.3379052 12.0529731,37.6094347 12.296291,37.8857211 C12.3498297,37.9464924 12.4039487,37.9731891 12.4875696,37.973092 C14.6014517,37.9704709 16.7153338,37.9727037 18.829216,37.9686749 C19.061507,37.9682381 19.2247829,38.0449303 19.303906,38.2710269 L19.303906,38.4277121 Z" id="Fill-26" fill="#929292" sketch:type="MSShapeGroup" mask="url(#mask-2)"></path>
                        <path d="M16.7758417,44.9474971 C16.3576405,44.9472544 16.0208838,44.6080124 16.0229634,44.1891173 C16.0250431,43.768863 16.3625736,43.4336498 16.7813068,43.4360283 C17.1955422,43.4384067 17.5279945,43.7735228 17.5290101,44.1896997 C17.5299774,44.6102938 17.1945749,44.9477398 16.7758417,44.9474971" id="Fill-27" fill="#151515" sketch:type="MSShapeGroup" mask="url(#mask-2)"></path>
                        <path d="M14.0051607,44.9474631 C13.5873464,44.9490164 13.2494773,44.6112306 13.249429,44.1918986 C13.2493323,43.7764012 13.581978,43.4394406 13.9953429,43.4361884 C14.4143663,43.4329363 14.7544601,43.7682951 14.7566364,44.186899 C14.7587644,44.606862 14.4238456,44.9459098 14.0051607,44.9474631" id="Fill-28" fill="#151515" sketch:type="MSShapeGroup" mask="url(#mask-2)"></path>
                        <path d="M17.345789,42.6718917 C17.5895906,42.6718432 17.709581,42.5884039 17.7965873,42.3617248 C17.9084527,42.0702942 18.0197376,41.7786209 18.1314095,41.4870931 C18.5221885,40.4672801 18.9130642,39.4475155 19.3038915,38.4277024 L19.3038915,38.2710172 C19.2670383,38.1656381 19.2116619,38.0930717 19.139745,38.0452604 L19.139745,38.0452604 C19.139745,38.0452604 16.7365026,40.8746714 13.1696772,42.5735508 C13.2449795,42.6423797 13.3441252,42.6717946 13.4839931,42.6718432 C14.7712906,42.6723285 16.0585398,42.67228 17.345789,42.6718917" id="Fill-29" fill="#7C7C7C" sketch:type="MSShapeGroup" mask="url(#mask-2)"></path>
                        <path d="M29.6458814,19.9575187 C29.6458814,19.9575187 26.3404135,26.2527409 19.3419393,31.2884138 L20.1461798,31.6966303 L22.8222904,29.8845084 L25.4984009,27.2310042 L27.0460404,25.3218035 L28.4324836,23.2184451 L29.6458814,20.9532563 L29.6458814,19.9575187 Z" id="Fill-30" fill="#2A53A4" sketch:type="MSShapeGroup" mask="url(#mask-2)"></path>
                        <path d="M1.19348156,19.9575187 C1.19348156,19.9575187 4.49894939,26.2527409 11.4974237,31.2884138 L10.6931831,31.6966303 L8.01707257,29.8845084 L5.34096202,27.2310042 L3.7933225,25.3218035 L2.40687931,23.2184451 L1.19348156,20.9532563 L1.19348156,19.9575187 Z" id="Fill-31" fill="#FEFEFE" sketch:type="MSShapeGroup" mask="url(#mask-2)"></path>
                        <path d="M27.3782219,24.4253533 C27.3782219,24.4253533 24.4728673,28.8201118 20.0886463,31.421339 C20.0886463,31.421339 18.4658979,30.8059563 15.4150168,30.8045972 C12.3641356,30.8059563 10.7414356,31.421339 10.7414356,31.421339 C6.35716631,28.8201118 3.45181166,24.4253533 3.45181166,24.4253533 L3.45205348,24.4254504 C1.58671258,21.926787 0.4816496,18.8234196 0.4816496,15.4609488 C0.4816496,7.19594866 7.15753776,0.495859234 15.3926244,0.495859234 C23.627711,0.495859234 30.3035991,7.19594866 30.3035991,15.4609488 C30.3035991,18.8398745 29.2601516,21.9204283 27.3782219,24.4253533 M30.7852052,15.4609488 C30.7852052,11.3345162 29.1840754,7.45505205 26.2768346,4.53720228 C23.3695454,1.61940104 19.5041222,0.0124066741 15.3926244,0.0124066741 C11.2811265,0.0124066741 7.41570338,1.61940104 4.50841418,4.53720228 C1.60112497,7.45505205 -4.8363735e-06,11.3345162 -4.8363735e-06,15.4609488 C-4.8363735e-06,18.2012899 0.702381687,20.8310097 2.04549097,23.163814 L2.03688223,23.1594454 L2.08558451,23.2330797 C2.37953929,23.7375498 2.70362468,24.2281377 3.05706685,24.7026105 C3.2521178,24.9955944 6.1291313,29.246385 10.4962798,31.8374189 L10.6951999,31.9544474 L10.910612,31.873872 C10.9262334,31.8680472 12.5070988,31.2892633 15.414775,31.2879527 C18.3143743,31.2892633 19.8944659,31.8646495 19.9191798,31.8738234 L20.1346402,31.9555153 L20.3337054,31.8374189 C24.7621791,29.2099804 27.6584414,24.8757991 27.7795442,24.6926113 L28.7076442,23.218712 C30.071695,20.8724624 30.7852052,18.223521 30.7852052,15.4609488" id="Fill-32" fill="#221F20" sketch:type="MSShapeGroup" mask="url(#mask-2)"></path>
                        <path d="M11.9807418,38.5002543 L11.0215439,37.4970902 L9.8121603,37.4970902 C9.46563414,37.3677812 9.81143484,36.8579718 9.8121603,36.857001 C9.55510705,36.8683592 9.40266456,37.016453 9.31265964,37.2525972 L9.31265964,37.4680637 C9.3172542,37.4724322 9.32407349,37.4759756 9.32615313,37.4813149 C9.43414935,37.7646395 9.5817071,37.8673974 9.88586663,37.8681741 C10.1979094,37.8689507 10.5100006,37.8702127 10.8220434,37.8669606 C10.8925094,37.8662325 10.942179,37.8842891 10.9901558,37.9394785 C11.176066,38.1532946 11.3684569,38.3614316 11.5558664,38.5739371 C11.5892374,38.6117979 11.6179654,38.6576191 11.6360535,38.7047509 C12.1051817,39.9248376 12.5726172,41.1456038 13.0404396,42.3661759 C13.0744877,42.455003 13.1144845,42.5214049 13.1653631,42.5695075 L13.5756811,42.3728743 L11.9807418,38.5002543 Z" id="Fill-33" fill="#A9A9AA" sketch:type="MSShapeGroup" mask="url(#mask-2)"></path>
                    </g>
                    <path d="M134.784265,27.0264109 C133.316662,27.0264109 132.209938,25.9174335 132.209938,24.4466422 C132.209938,22.9277819 133.268491,21.8668735 134.784265,21.8668735 C136.300238,21.8668735 137.358991,22.9277819 137.358991,24.4466422 C137.358991,25.9174335 136.252068,27.0264109 134.784265,27.0264109 L134.784265,27.0264109 Z M134.958833,19.2982743 C134.020705,19.2982743 132.780219,19.6507137 131.956148,20.6166809 L131.827561,19.5234606 C131.373525,19.6752469 130.108954,20.166109 129.355745,21.1394561 L129.355745,33.3621426 C129.355745,33.3621426 131.066589,32.8954147 131.996953,31.6932911 L131.996953,28.4983989 C132.743793,29.3000141 134.016525,29.5950101 135.036264,29.5950101 C138.005309,29.5950101 140,27.5260491 140,24.4466422 C140,21.4633732 137.879907,19.2982743 134.958833,19.2982743 L134.958833,19.2982743 Z M97.6753758,26.7156579 C96.2850042,26.7156579 95.3140331,25.6788837 95.3140331,24.1943299 C95.3140331,22.6866392 96.2850042,21.6339084 97.6753758,21.6339084 C99.0325059,21.6339084 100.017411,22.7107734 100.017411,24.1943299 C100.017411,25.6788837 99.0542025,26.7156579 97.6753758,26.7156579 L97.6753758,26.7156579 Z M100.151969,19.2962797 L99.8346817,19.6987827 C99.1180979,19.2595798 98.3091544,19.2011391 97.6753758,19.2011391 C94.7881402,19.2011391 92.6925307,21.3010157 92.6925307,24.1943299 C92.6925307,27.250201 94.6018285,29.1484273 97.6753758,29.1484273 C98.775531,29.1484273 99.9592876,29.7067056 99.9592876,30.9321656 C99.9592876,32.0981875 99.0627617,32.8517337 97.6753758,32.8517337 C96.3978661,32.8517337 95.4203264,32.1081604 95.3235876,31.0973155 C94.225622,31.9615599 93.7480985,33.4778273 93.6824116,33.7018168 C94.561023,34.7274214 95.9679159,35.3425449 97.6753758,35.3425449 C100.621132,35.3425449 102.600297,33.5701756 102.600297,30.9321656 C102.600297,30.0054913 102.406023,28.6898771 100.785947,27.7703832 C102.500572,26.8177795 102.638913,24.8090544 102.638913,24.1943299 C102.638913,23.0628139 102.322422,22.1329483 101.672122,21.3552679 L102.740429,19.9927814 C101.795136,19.4167514 100.628895,19.313433 100.151969,19.2962797 L100.151969,19.2962797 Z M87.2307688,19.3565156 C86.1101113,19.3565156 85.1644198,19.7548299 84.1960364,20.641613 L84.1416955,20.1858552 C83.484827,19.7584202 82.7039497,19.5727263 82.1187396,19.4923454 L81.6856045,19.4923454 L81.6856045,27.6100203 C81.7319834,27.6323594 81.7807509,27.6746441 81.8325041,27.741462 C82.5871067,28.7166042 83.855261,29.2078653 84.3073059,29.3584548 L84.3073059,24.3301597 C84.3073059,22.8817075 85.2975849,21.7892849 86.6105257,21.7892849 C87.9475516,21.7892849 88.7781917,22.7181533 88.7781917,24.2136771 L88.7781917,27.6937919 C88.8068551,27.7175272 88.8361156,27.7482435 88.8667694,27.7877359 C89.5612586,28.6850901 90.6904752,29.1725615 91.2183586,29.362045 L91.4190021,29.362045 L91.4190021,24.1943299 C91.4190021,20.8524384 89.3154305,19.3565156 87.2307688,19.3565156 L87.2307688,19.3565156 Z M106.254874,23.1816899 C106.614162,22.1704461 107.509493,21.5950144 108.740027,21.5950144 C110.026295,21.5950144 110.86211,22.170845 111.058375,23.1816899 L106.254874,23.1816899 Z M108.662596,19.2204863 C105.543068,19.2204863 103.446861,21.2894473 103.446861,24.3688542 C103.446861,27.6044355 105.512414,29.6143573 108.837164,29.6143573 C110.486501,29.6143573 112.098814,29.0030236 113.044904,28.0187064 L113.065406,27.9973645 C112.23198,27.181588 111.088829,26.7946426 110.812148,26.7096742 C110.234701,27.0182332 109.463179,27.1817874 108.87578,27.1817874 C107.42629,27.1817874 106.413717,26.5112151 106.190581,25.4203882 L113.613792,25.4203882 L113.625735,25.2945312 C113.809857,23.3219077 113.402997,21.7242622 112.448746,20.6747227 C111.584267,19.7233158 110.27491,19.2204863 108.662596,19.2204863 L108.662596,19.2204863 Z M124.879286,17.2097666 C124.816983,17.2901476 124.759059,17.3356236 124.704917,17.3523779 L124.704917,23.436994 C124.704917,25.7305429 123.547435,27.0457582 121.529654,27.0457582 C119.419912,27.0457582 118.160715,25.6968347 118.160715,23.436994 L118.160715,15.5117945 L118.124488,15.5117945 L118.154147,15.5409152 C118.154147,15.5409152 116.443104,16.0076431 115.513137,17.2097666 C115.453422,17.2869563 115.397489,17.3324323 115.345337,17.3507823 L115.345337,23.436994 C115.345337,27.2133015 117.765002,29.6532513 121.510147,29.6532513 C125.217274,29.6532513 127.520096,27.2713433 127.520096,23.436994 L127.520096,15.5409152 C127.520096,15.5409152 125.809451,16.0076431 124.879286,17.2097666 L124.879286,17.2097666 Z M76.7001717,26.342475 C76.2202596,26.9041442 75.5329363,27.2011347 74.7124479,27.2011347 C73.1282005,27.2011347 72.0216757,26.0604437 72.0216757,24.4270955 C72.0216757,22.7795858 73.1031201,21.672603 74.7124479,21.672603 C76.5345612,21.672603 77.3644051,23.1054975 77.3644051,24.4368688 C77.3644051,25.1642862 77.1285296,25.8410417 76.7001717,26.342475 L76.7001717,26.342475 Z M77.4766699,20.2640421 C77.4651249,20.2708236 77.4545752,20.27581 77.4436274,20.2811953 L77.4273052,20.5580408 C76.7955172,19.7703875 75.6927743,19.2787276 74.5000604,19.2787276 L74.4526862,19.2787276 C71.3715749,19.2787276 69.3806663,21.2996195 69.3806663,24.4270955 C69.3806663,26.0570529 69.8743129,27.4041813 70.8078623,28.3228773 C71.6924452,29.1933049 72.9327324,29.6534508 74.3943643,29.6534508 L74.4437289,29.6532513 C75.4937233,29.6341035 76.7778016,29.1528153 77.4388502,28.2604475 L77.5306127,29.362045 L80.0247225,29.362045 L80.0247225,19.5118921 L79.6258241,19.5118921 C79.044396,19.6064344 78.2454051,19.8130712 77.4766699,20.2640421 L77.4766699,20.2640421 Z M61.2862551,15.4924473 L61.2850608,15.4924473 L61.2862551,15.4934446 L61.2862551,15.4924473 Z M127.520096,15.5409152 L127.520096,15.5117945 L127.490437,15.5117945 L127.520096,15.5409152 Z M55.8764455,25.6495636 C55.0525731,26.4747146 53.7830255,26.9875169 52.5636387,26.9875169 C49.250832,26.9875169 48.0505541,24.6814023 48.0318433,22.5230849 C48.0208955,21.2260201 48.4844854,20.0073417 49.3033815,19.1795978 C50.1029696,18.3716 51.2303948,17.9445639 52.5636387,17.9445639 C53.7961629,17.9445639 54.9247824,18.385562 55.7416879,19.1865787 L55.8378296,19.2809216 L57.742151,17.4379447 L57.6410331,17.3382165 C56.2391165,15.9527926 54.4832871,15.2205882 52.5636387,15.2205882 C50.4172712,15.2205882 48.5911768,15.9172893 47.2830133,17.2354965 C45.9708687,18.5574933 45.2248253,20.4854386 45.2359722,22.5250795 C45.2540859,25.8222928 47.1840849,29.6727981 52.5636387,29.6727981 C54.6357602,29.6727981 56.4519021,28.9607388 57.8154018,27.613411 L57.9141311,27.5158768 L55.9747767,25.5508327 L55.8764455,25.6495636 Z M64.132088,19.3758628 C62.958682,19.3758628 62.0239383,19.7677946 61.2862551,20.5716038 L61.2862551,15.5550766 C61.0034035,15.6406434 59.5318191,16.1265191 58.6936151,17.2097666 C58.6770938,17.230909 58.6609707,17.249259 58.6452457,17.2658139 L58.6452457,27.7316886 C58.6609707,27.7482435 58.6770938,27.7665935 58.6936151,27.7877359 C59.3879051,28.6850901 60.5171218,29.1725615 61.0452042,29.362045 L61.2862551,29.362045 L61.2862551,24.3301597 C61.2862551,22.9148173 62.2430935,21.8475262 63.512044,21.8475262 C64.8223971,21.8475262 65.5439572,22.6808549 65.5439572,24.1943299 L65.5439572,27.7877359 C66.2382472,28.6850901 67.3674639,29.1725615 67.8955463,29.362045 L68.1847675,29.362045 L68.1847675,24.1747832 C68.1847675,21.0802175 66.7456284,19.3758628 64.132088,19.3758628 L64.132088,19.3758628 Z" id="Page-1" fill="#424242" sketch:type="MSShapeGroup"></path>
                </g>
            </g>
        </g>
    </g>
</svg>