<?xml version="1.0" encoding="UTF-8" standalone="no"?>
<svg width="40px" height="31px" viewBox="0 0 40 31" version="1.1" xmlns="http://www.w3.org/2000/svg" xmlns:xlink="http://www.w3.org/1999/xlink" xmlns:sketch="http://www.bohemiancoding.com/sketch/ns">
    <!-- Generator: Sketch 3.4.3 (16044) - http://www.bohemiancoding.com/sketch -->
    <title>Shape</title>
    <desc>Created with Sketch.</desc>
    <defs></defs>
    <g id="My-Products" stroke="none" stroke-width="1" fill="none" fill-rule="evenodd" sketch:type="MSPage">
        <g id="Menu_products" sketch:type="MSArtboardGroup" transform="translate(-76.000000, -361.000000)" fill="#666666">
            <path d="M84.0181865,361.279081 C79.5897,361.279081 76,364.868781 76,369.297267 L76,382.557231 C76,386.869291 79.4953684,390.365509 83.8074276,390.365509 L83.8074276,387.602698 L83.3757117,387.602698 C80.8287584,387.602698 78.7645109,385.53845 78.7645109,382.992347 L78.7645109,368.621649 C78.7645109,366.074696 80.8287584,364.010448 83.3757117,364.010448 L108.661681,364.010448 C111.207784,364.010448 113.272882,366.074696 113.272882,368.621649 L113.272882,382.992347 C113.272882,385.53845 111.207784,387.602698 108.661681,387.602698 L108.297952,387.602698 L108.297952,390.365509 C112.552222,390.365509 116,386.916881 116,382.664311 L116,369.086508 C116,364.774449 112.504632,361.279081 108.192572,361.279081 L84.0181865,361.279081 Z M85.5521373,385.873285 L85.5521373,365.389729 L83.9170562,365.389729 C82.0440214,365.389729 80.5253676,366.908383 80.5253676,368.782268 L80.5253676,382.482446 C80.5253676,384.356331 82.0440214,385.874984 83.9170562,385.874984 L85.5521373,385.874984 L85.5521373,385.873285 Z M100.575508,365.389729 L104.948755,365.389729 L104.948755,385.873285 L100.575508,385.873285 L100.575508,365.389729 Z M91.8621569,365.389729 L95.0796295,365.389729 L95.0796295,385.873285 L91.8621569,385.873285 L91.8621569,365.389729 Z M96.9118722,365.389729 L98.7424152,365.389729 L98.7424152,385.873285 L96.9118722,385.873285 L96.9118722,365.389729 Z M87.374182,365.389729 L90.1029999,365.389729 L90.1029999,385.873285 L87.374182,385.873285 L87.374182,365.389729 Z M87.0240503,387.304406 C86.0280445,387.304406 85.5529872,388.188233 85.5529872,389.303216 C85.5606357,390.393553 85.9991502,391.289279 86.9943061,391.289279 C87.9784142,391.289279 88.4585706,390.470888 88.4585706,389.279421 C88.4577207,388.223077 88.0548993,387.304406 87.0240503,387.304406 Z M87.0172516,390.607712 C86.6688196,390.607712 86.4546613,390.187044 86.4606102,389.303216 C86.4546613,388.407491 86.6798674,387.986823 87.0113028,387.986823 C87.374182,387.986823 87.5577462,388.437235 87.5577462,389.291318 C87.5568964,390.169197 87.3673834,390.607712 87.0172516,390.607712 Z M90.8236594,387.304406 C89.8268038,387.304406 89.3542959,388.188233 89.3542959,389.303216 C89.3593949,390.393553 89.7979094,391.289279 90.7939152,391.289279 C91.7788731,391.289279 92.2590295,390.470888 92.2590295,389.279421 C92.2590295,388.223077 91.8553582,387.304406 90.8236594,387.304406 Z M90.8185604,390.607712 C90.4684287,390.607712 90.2551203,390.187044 90.2610691,389.303216 C90.2551203,388.407491 90.4803263,387.986823 90.8117617,387.986823 C91.1729413,387.986823 91.3582051,388.437235 91.3582051,389.291318 C91.3582051,390.169197 91.1678423,390.607712 90.8185604,390.607712 Z M93.0680717,387.838952 L93.2167927,388.525618 L93.9518994,388.187384 L93.9637971,388.187384 L93.9637971,391.228091 L94.8263789,391.228091 L94.8263789,387.358795 L94.0887227,387.358795 L93.0680717,387.838952 Z M97.3826804,390.470888 L97.7413104,390.174296 C98.2988017,389.676293 98.7687601,389.161294 98.7687601,388.51457 C98.7687601,387.814306 98.2903034,387.304406 97.4175236,387.304406 C96.897425,387.304406 96.4453132,387.482021 96.1563695,387.702128 L96.41047,388.348852 C96.6127305,388.194182 96.9016742,388.028465 97.235659,388.028465 C97.6801224,388.028465 97.8696354,388.277466 97.8696354,388.592755 C97.8577377,389.043167 97.4472678,389.476582 96.6059318,390.228686 L96.1053795,390.679098 L96.1053795,391.228091 L98.8341973,391.228091 L98.8341973,390.468339 L97.3835302,390.468339 L97.3826804,390.470888 Z M101.302116,387.304406 C100.454831,387.304406 99.8497493,387.939232 99.8497493,388.692185 C99.8497493,389.439189 100.400442,389.8964 101.053115,389.8964 C101.403246,389.8964 101.650548,389.79527 101.823065,389.617655 L101.841761,389.622754 C101.768675,389.913397 101.602957,390.162398 101.354806,390.334915 C101.147446,390.477687 100.8738,390.554172 100.600153,390.571169 C100.422538,390.583916 100.317158,390.583916 100.213478,390.571169 L100.213478,391.277381 C100.317158,391.28333 100.464179,391.289279 100.617999,391.277381 C101.217133,391.253586 101.720235,391.070021 102.087363,390.738586 C102.508031,390.352761 102.761282,389.764676 102.761282,388.964982 C102.762131,388.063308 102.293023,387.304406 101.302116,387.304406 Z M101.79417,389.000675 C101.712586,389.136648 101.54007,389.256475 101.297867,389.256475 C100.928189,389.256475 100.751423,388.97263 100.751423,388.640345 C100.744625,388.235824 100.970681,387.964727 101.278321,387.964727 C101.687091,387.964727 101.842611,388.367548 101.842611,388.776319 C101.843461,388.889347 101.825614,388.947135 101.79417,389.000675 Z M105.930314,388.970931 C105.656667,388.774619 105.28359,388.692185 104.917311,388.692185 C104.82298,388.692185 104.750744,388.695584 104.66746,388.708332 L104.750744,388.119397 L106.260899,388.119397 L106.260899,387.357945 L104.121016,387.357945 L103.865216,389.38565 C104.025835,389.362704 104.174556,389.352506 104.387864,389.352506 C105.157814,389.352506 105.473103,389.598108 105.473103,389.995831 C105.473103,390.403751 105.073681,390.582217 104.701453,390.582217 C104.352171,390.582217 104.00204,390.475987 103.830373,390.392704 L103.670604,391.069172 C103.883063,391.18135 104.274836,391.288429 104.743945,391.288429 C105.782442,391.288429 106.397722,390.655302 106.397722,389.937192 C106.398572,389.48678 106.220957,389.166393 105.930314,388.970931 Z" id="Shape" sketch:type="MSShapeGroup"></path>
        </g>
    </g>
</svg>