<?xml version="1.0" encoding="UTF-8" standalone="no"?>
<svg width="40px" height="40px" viewBox="0 0 40 40" version="1.1" xmlns="http://www.w3.org/2000/svg" xmlns:xlink="http://www.w3.org/1999/xlink" xmlns:sketch="http://www.bohemiancoding.com/sketch/ns">
    <!-- Generator: Sketch 3.4.3 (16044) - http://www.bohemiancoding.com/sketch -->
    <title>Shape</title>
    <desc>Created with Sketch.</desc>
    <defs></defs>
    <g id="Home" stroke="none" stroke-width="1" fill="none" fill-rule="evenodd" sketch:type="MSPage">
        <g id="Menu_shop" sketch:type="MSArtboardGroup" transform="translate(-76.000000, -588.000000)" fill="#666666">
            <path d="M110.636333,608.110538 C109.689358,608.110538 108.922136,608.878449 108.922136,609.824735 L108.922136,618.508899 C108.922136,621.026819 107.337875,623.31035 104.980194,624.190749 C104.303193,624.443047 103.58946,624.571376 102.859658,624.571376 L85.4911013,624.571376 C82.1485661,624.571376 79.4286239,621.851434 79.4286239,618.508899 L79.4286239,601.140571 C79.4286239,597.798036 82.1485661,595.078094 85.4911013,595.078094 L94.175265,595.078094 C95.1222401,595.078094 95.8894622,594.310183 95.8894622,593.363897 C95.8894622,592.41761 95.1222401,591.6497 94.175265,591.6497 L85.4911013,591.6497 C80.2578298,591.64947 76,595.9073 76,601.140571 L76,618.508899 C76,623.74217 80.2578298,628 85.4911013,628 L102.859429,628 C104.000161,628 105.116788,627.799126 106.178548,627.402889 C109.870029,626.024552 112.35053,622.450841 112.35053,618.508899 L112.35053,609.824735 C112.35053,608.878449 111.583308,608.110538 110.636333,608.110538 Z M107.221713,588 C102.381235,588 98.4438845,591.93758 98.4438845,596.777828 C98.4438845,601.618076 102.381465,605.556804 107.221713,605.556804 C112.061961,605.556804 116.00023,601.618076 116.00023,596.777828 C116.00023,591.93758 112.061961,588 107.221713,588 Z M107.221713,602.12841 C104.271971,602.12841 101.872279,599.727799 101.872279,596.778058 C101.872279,593.828316 104.271742,591.428624 107.221713,591.428624 C110.171684,591.428624 112.571606,593.828087 112.571606,596.778058 C112.571606,599.728029 110.171454,602.12841 107.221713,602.12841 Z M89.4603619,606.206486 C89.4603619,607.153002 90.227584,607.920684 91.1745591,607.920684 L97.1745935,607.920684 C98.1215686,607.920684 98.8887907,607.152773 98.8887907,606.206486 C98.8887907,605.2602 98.1215686,604.492289 97.1745935,604.492289 L91.1747887,604.492289 C90.2278135,604.492289 89.4603619,605.259971 89.4603619,606.206486 Z M97.1745935,611.729934 L91.1747887,611.729934 C90.2278135,611.729934 89.4605915,612.497845 89.4605915,613.444131 C89.4605915,614.390418 90.2278135,615.158329 91.1747887,615.158329 L97.1748231,615.158329 C98.1217982,615.158329 98.8890203,614.390418 98.8890203,613.444131 C98.8890203,612.497845 98.1217982,611.729934 97.1745935,611.729934 Z" id="Shape" sketch:type="MSShapeGroup"></path>
        </g>
    </g>
</svg>