<?xml version="1.0" encoding="UTF-8" standalone="no"?>
<svg width="41px" height="39px" viewBox="0 0 41 39" version="1.1" xmlns="http://www.w3.org/2000/svg" xmlns:xlink="http://www.w3.org/1999/xlink" xmlns:sketch="http://www.bohemiancoding.com/sketch/ns">
    <!-- Generator: Sketch 3.4.3 (16044) - http://www.bohemiancoding.com/sketch -->
    <title>Shape</title>
    <desc>Created with Sketch.</desc>
    <defs></defs>
    <g id="My-Products" stroke="none" stroke-width="1" fill="none" fill-rule="evenodd" sketch:type="MSPage">
        <g id="Menu_products" sketch:type="MSArtboardGroup" transform="translate(-75.000000, -235.000000)" fill="#666666">
            <path d="M113.789127,235.126298 L76.5382181,235.126298 C75.7791609,235.126298 75.1636726,235.741652 75.1636726,236.500709 L75.1636726,254.574379 C75.1636726,255.333436 75.7791609,255.94879 76.5382181,255.94879 L83.3413157,255.94879 L83.3413157,261.283874 C83.3413157,264.790406 85.6774774,266.471348 87.8143124,266.968318 L87.8143124,272.466769 C87.8143124,273.225827 88.4298006,273.841315 89.1887231,273.841315 C89.9476457,273.841315 90.5631339,273.225827 90.5631339,272.466769 L90.5631339,265.75687 C90.5631339,264.997813 89.957208,264.382325 89.1981508,264.382325 C88.6790935,264.374918 86.0901373,264.19054 86.0901373,261.283739 L86.0901373,255.948655 L97.5462989,255.948655 C97.0617198,256.766433 96.7597669,257.78852 96.7597669,259.046971 C96.7597669,259.806029 97.3752551,260.421517 98.1343124,260.421517 C98.8933696,260.421517 99.5088578,259.806029 99.5088578,259.046971 C99.5088578,256.140305 102.097545,255.956062 102.60704,255.948655 L102.607309,255.948655 C103.366366,255.948655 103.981854,255.333167 103.981854,254.574244 C103.981854,254.572493 103.981585,254.570742 103.981585,254.568992 L103.981585,247.864614 C103.981585,246.978015 104.702663,246.256803 105.588993,246.256803 L106.334582,246.256803 C107.220912,246.256803 107.941989,246.978015 107.941989,247.864614 L107.941989,259.047241 C107.941989,259.060843 107.922999,260.437948 107.248386,261.787443 C106.37539,263.533705 104.857141,264.382594 102.60704,264.382594 C101.847982,264.382594 101.232629,264.998082 101.232629,265.75714 L101.232629,272.467039 C101.232629,273.226096 101.848117,273.841584 102.60704,273.841584 C103.366097,273.841584 103.981585,273.226096 103.981585,272.467039 L103.981585,267.044008 C107.227107,266.613436 108.878285,264.674581 109.707107,263.016938 C110.679767,261.071618 110.690811,259.129126 110.690811,259.047375 L110.690811,255.949059 L113.789127,255.949059 C114.548184,255.949059 115.163673,255.333571 115.163673,254.574648 L115.163673,236.500709 C115.163673,235.741652 114.548184,235.126298 113.789127,235.126298 L113.789127,235.126298 Z M106.334582,243.507847 L105.588993,243.507847 C103.186838,243.507847 101.232629,245.462325 101.232629,247.864614 L101.232629,253.199968 L81.0722248,253.199968 L77.9126289,250.039968 L77.9126289,241.03512 L81.0720901,237.875254 L109.255255,237.875254 L112.414716,241.034985 L112.414716,250.039968 L110.690811,251.764008 L110.690811,247.864614 C110.690811,245.462325 108.736602,243.507847 106.334582,243.507847 Z M95.1636726,239.689934 C91.9395649,239.689934 89.3165346,242.313099 89.3165346,245.537476 C89.3165346,248.761854 91.9395649,251.385153 95.1636726,251.385153 C98.3879151,251.385153 101.010945,248.761854 101.010945,245.537476 C101.010945,242.313099 98.3879151,239.689934 95.1636726,239.689934 Z M95.1636726,248.636332 C93.4553898,248.636332 92.0654908,247.246298 92.0654908,245.537611 C92.0654908,243.829059 93.4553898,242.439025 95.1636726,242.439025 C96.8720901,242.439025 98.2619891,243.829059 98.2619891,245.537611 C98.2619891,247.246298 96.8720901,248.636332 95.1636726,248.636332 Z M85.0999689,244.163066 L80.6269723,244.163066 C79.8679151,244.163066 79.2524268,244.778554 79.2524268,245.537611 C79.2524268,246.296668 79.8679151,246.912022 80.6269723,246.912022 L85.0999689,246.912022 C85.8590262,246.912022 86.4743797,246.296534 86.4743797,245.537611 C86.4743797,244.778689 85.8590262,244.163066 85.0999689,244.163066 Z" id="Shape" sketch:type="MSShapeGroup"></path>
        </g>
    </g>
</svg>