<?xml version="1.0" encoding="UTF-8" standalone="no"?>
<svg width="40px" height="40px" viewBox="0 0 40 40" version="1.1" xmlns="http://www.w3.org/2000/svg" xmlns:xlink="http://www.w3.org/1999/xlink" xmlns:sketch="http://www.bohemiancoding.com/sketch/ns">
    <!-- Generator: Sketch 3.4.3 (16044) - http://www.bohemiancoding.com/sketch -->
    <title>Shape</title>
    <desc>Created with Sketch.</desc>
    <defs></defs>
    <g id="Charities" stroke="none" stroke-width="1" fill="none" fill-rule="evenodd" sketch:type="MSPage">
        <g id="Menu_charities" sketch:type="MSArtboardGroup" transform="translate(-76.000000, -232.000000)" fill="#666666">
            <path d="M76,248.25 C76,250.576641 77.5967187,252.515156 79.75,253.074219 L79.75,269.5 L77.25,269.5 C76.5614844,269.5 76,270.059062 76,270.75 C76,271.440938 76.5615625,272 77.25,272 L114.75,272 C115.443359,272 116,271.440938 116,270.75 C116,270.059062 115.443359,269.5 114.75,269.5 L112.25,269.5 L112.25,253.074219 C114.403281,252.515156 116,250.576641 116,248.25 L116,247 L76,247 L76,248.25 L76,248.25 Z M101,253.25 C103.763672,253.25 106,251.01125 106,248.25 C106,250.576641 107.596719,252.515156 109.75,253.074219 L109.75,269.5 L91,269.5 L91,253.25 C93.7636719,253.25 96,251.01125 96,248.25 C96,251.01125 98.24125,253.25 101,253.25 L101,253.25 Z M89.75,253.074219 L89.75,269.5 L82.25,269.5 L82.25,253.074219 C84.4033594,252.515156 86,250.576641 86,248.25 C86,250.576641 87.5967188,252.515156 89.75,253.074219 L89.75,253.074219 Z M111,235.75 L81,235.75 L76,245.75 L116,245.75 L111,235.75 L111,235.75 Z M86.5615625,238.528359 L84.0615625,243.528359 C83.9492188,243.748125 83.7295312,243.875078 83.5,243.875078 C83.4071875,243.875078 83.3120312,243.855547 83.2216406,243.809141 C82.9139844,243.655313 82.7870312,243.279375 82.9432812,242.971719 L85.4432812,237.971719 C85.5995312,237.664063 85.9730469,237.539609 86.2807031,237.690938 C86.5908594,237.844766 86.7128906,238.220703 86.5615625,238.528359 L86.5615625,238.528359 Z M91.5615625,238.528359 L89.0615625,243.528359 C88.9492188,243.748125 88.7295312,243.875078 88.5,243.875078 C88.4071875,243.875078 88.3120312,243.855547 88.2216406,243.809141 C87.9139844,243.655313 87.7870312,243.279375 87.9432812,242.971719 L90.4432812,237.971719 C90.5995312,237.664063 90.9755469,237.539609 91.2807031,237.690938 C91.5908594,237.844766 91.7128906,238.220703 91.5615625,238.528359 L91.5615625,238.528359 Z M96.625,243.25 C96.625,243.596719 96.3467188,243.875 96,243.875 C95.6557813,243.875 95.375,243.596641 95.375,243.25 L95.375,238.25 C95.375,237.903281 95.6557813,237.625 96,237.625 C96.3467188,237.625 96.625,237.903359 96.625,238.25 L96.625,243.25 L96.625,243.25 Z M103.802734,243.796875 C103.705078,243.850625 103.602578,243.875 103.5,243.875 C103.280313,243.875 103.065469,243.757813 102.953125,243.550313 L100.21875,238.550313 C100.052734,238.247578 100.165,237.866719 100.467813,237.703125 C100.765703,237.537109 101.151406,237.644531 101.317422,237.949688 L104.051797,242.949688 C104.212891,243.252422 104.105469,243.633281 103.802734,243.796875 L103.802734,243.796875 Z M108.778281,243.809062 C108.690469,243.855469 108.597656,243.875 108.5,243.875 C108.270469,243.875 108.050781,243.748047 107.943359,243.528281 L105.443359,238.528281 C105.287109,238.220625 105.414062,237.844687 105.721641,237.690859 C106.024375,237.537031 106.405234,237.661562 106.561484,237.971641 L109.061484,242.971641 C109.212891,243.279297 109.090781,243.655312 108.778281,243.809062 L108.778281,243.809062 Z M86.625,262.190469 L86.625,259.309609 C86.25875,259.089922 86,258.708984 86,258.250078 C86,257.559141 86.5615625,257.000078 87.25,257.000078 C87.9433594,257.000078 88.5,257.559141 88.5,258.250078 C88.5,258.709062 88.2436719,259.089922 87.875,259.309609 L87.875,262.190469 C88.2436719,262.410234 88.5,262.791094 88.5,263.250078 C88.5,263.941016 87.9433594,264.500078 87.25,264.500078 C86.5614844,264.500078 86,263.941016 86,263.250078 C86,262.791016 86.2588281,262.410156 86.625,262.190469 L86.625,262.190469 Z M81,233.25 C81,232.559063 81.5615625,232 82.25,232 L109.75,232 C110.443359,232 111,232.559063 111,233.25 C111,233.940937 110.443359,234.5 109.75,234.5 L82.25,234.5 C81.5615625,234.5 81,233.940937 81,233.25 L81,233.25 Z M97.9092187,259.941875 L97.0254687,259.058047 L100.560625,255.522891 L101.444375,256.406719 L97.9092187,259.941875 L97.9092187,259.941875 Z M97.9092187,263.477031 L97.0254687,262.593203 L104.095781,255.522891 L104.979531,256.406719 L97.9092187,263.477031 L97.9092187,263.477031 Z M104.095703,259.058125 L104.979453,259.941953 L101.444297,263.477109 L100.560547,262.593281 L104.095703,259.058125 L104.095703,259.058125 Z" id="Shape" sketch:type="MSShapeGroup"></path>
        </g>
    </g>
</svg>