<?xml version="1.0" encoding="UTF-8" standalone="no"?>
<svg width="15px" height="20px" viewBox="0 0 15 20" version="1.1" xmlns="http://www.w3.org/2000/svg" xmlns:xlink="http://www.w3.org/1999/xlink">
    <!-- Generator: Sketch 3.6.1 (26313) - http://www.bohemiancoding.com/sketch -->
    <title>Combined Shape</title>
    <desc>Created with Sketch.</desc>
    <defs></defs>
    <g id="Orders" stroke="none" stroke-width="1" fill="none" fill-rule="evenodd">
        <g transform="translate(-1154.000000, -146.000000)" id="Combined-Shape" fill="#666666">
            <path d="M1168.34354,147.620872 L1165.8625,147.620872 L1165.8625,146.656457 C1165.8625,146.293883 1165.56857,146 1165.20604,146 C1164.84352,146 1164.54959,146.293883 1164.54959,146.656457 L1164.54959,147.620872 L1162.18634,147.620872 L1162.18634,146.656457 C1162.18634,146.293883 1161.8924,146 1161.52988,146 C1161.16736,146 1160.87342,146.293883 1160.87342,146.656457 L1160.87342,147.620872 L1158.51018,147.620872 L1158.51018,146.656457 C1158.51018,146.293883 1158.21624,146 1157.85372,146 C1157.4912,146 1157.19726,146.293883 1157.19726,146.656457 L1157.19726,147.620872 L1154.71622,147.620872 C1154.3537,147.620872 1154.05976,147.914808 1154.05976,148.27733 L1154.05976,165.343543 C1154.05976,165.706065 1154.3537,166 1154.71622,166 L1168.34354,166 C1168.70606,166 1169,165.706065 1169,165.343543 L1169,148.27733 C1169,147.914808 1168.70606,147.620872 1168.34354,147.620872 L1168.34354,147.620872 Z M1167.68709,164.687085 L1155.37268,164.687085 L1155.37268,148.933787 L1157.19726,148.933787 L1157.19726,149.700004 C1157.19726,150.062579 1157.4912,150.356462 1157.85372,150.356462 C1158.21624,150.356462 1158.51018,150.062579 1158.51018,149.700004 L1158.51018,148.933787 L1160.87342,148.933787 L1160.87342,149.700004 C1160.87342,150.062579 1161.16736,150.356462 1161.52988,150.356462 C1161.8924,150.356462 1162.18634,150.062579 1162.18634,149.700004 L1162.18634,148.933787 L1164.54959,148.933787 L1164.54959,149.700004 C1164.54959,150.062579 1164.84352,150.356462 1165.20604,150.356462 C1165.56857,150.356462 1165.8625,150.062579 1165.8625,149.700004 L1165.8625,148.933787 L1167.68709,148.933787 L1167.68709,164.687085 Z M1165.41611,153.339614 L1157.64365,153.339614 C1157.28113,153.339614 1156.9872,153.63355 1156.9872,153.996072 C1156.9872,154.358594 1157.28113,154.652529 1157.64365,154.652529 L1165.41611,154.652529 C1165.77863,154.652529 1166.07257,154.358594 1166.07257,153.996072 C1166.07257,153.63355 1165.77863,153.339614 1165.41611,153.339614 Z M1165.41611,157.015776 L1157.64365,157.015776 C1157.28113,157.015776 1156.9872,157.309764 1156.9872,157.672233 C1156.9872,158.034755 1157.28113,158.328691 1157.64365,158.328691 L1165.41611,158.328691 C1165.77863,158.328691 1166.07257,158.034755 1166.07257,157.672233 C1166.07257,157.309711 1165.77863,157.015776 1165.41611,157.015776 Z M1165.41611,160.691938 L1157.64365,160.691938 C1157.28113,160.691938 1156.9872,160.985926 1156.9872,161.348395 C1156.9872,161.710917 1157.28113,162.004853 1157.64365,162.004853 L1165.41611,162.004853 C1165.77863,162.004853 1166.07257,161.710917 1166.07257,161.348395 C1166.07257,160.985873 1165.77863,160.691938 1165.41611,160.691938 Z"></path>
        </g>
    </g>
</svg>