<?xml version="1.0" encoding="UTF-8" standalone="no"?>
<svg width="28px" height="40px" viewBox="0 0 28 40" version="1.1" xmlns="http://www.w3.org/2000/svg" xmlns:xlink="http://www.w3.org/1999/xlink" xmlns:sketch="http://www.bohemiancoding.com/sketch/ns">
    <!-- Generator: Sketch 3.4.3 (16044) - http://www.bohemiancoding.com/sketch -->
    <title>Shape</title>
    <desc>Created with Sketch.</desc>
    <defs></defs>
    <g id="Home" stroke="none" stroke-width="1" fill="none" fill-rule="evenodd" sketch:type="MSPage">
        <g id="Menu_shop" sketch:type="MSArtboardGroup" transform="translate(-82.000000, -470.000000)" fill="#666666">
            <path d="M82.0031017,495.370505 C82.0031017,495.755825 82.152462,497.371178 83.2437751,499.28835 C84.1676809,500.911515 85.9212162,502.809832 89.1485563,503.22936 L89.1485563,508.649293 C89.1485563,509.395152 89.7532701,510 90.4992634,510 C91.2451219,510 91.8498357,509.395152 91.8498357,508.649293 L91.8498357,501.963232 C91.8498357,501.217374 91.2451219,500.612525 90.4992634,500.612525 C88.278792,500.612525 86.6416203,499.741818 85.6335394,498.024512 C84.8899704,496.758249 84.7012836,495.688485 84.7012836,495.217239 L84.7012836,484.133872 C84.7012836,483.893872 84.7012836,483.255892 85.8106438,483.255892 C86.9197347,483.255892 86.9197347,483.893737 86.9197347,484.133872 L86.9197347,488.786801 C86.9197347,489.155286 87.0701724,489.507879 87.3365698,489.762694 C87.6028324,490.017374 87.9613509,490.153939 88.3297011,490.136162 C88.3329334,490.13468 89.119196,490.139125 90.1134048,490.700606 C91.6397347,491.562828 92.8713846,493.293064 93.6750209,495.704108 C93.9109805,496.411852 94.6759637,496.794613 95.3835731,496.558519 C96.0913172,496.322559 96.4738088,495.557576 96.2378492,494.849966 C94.4902398,489.606599 91.4176472,488.066128 89.6212836,487.617508 L89.6212836,475.122828 C89.6212836,474.830572 89.6212836,474.341279 90.7305091,474.341279 C91.8396001,474.341279 91.8396001,474.830572 91.8396001,475.122828 L91.8396001,482.493872 C91.8396001,483.239865 92.4444485,483.844579 93.1903071,483.844579 C93.9361657,483.844579 94.5408795,483.239865 94.5408795,482.493872 L94.5408795,473.482828 C94.5408795,473.190572 94.5408795,472.701279 95.6501051,472.701279 C96.759196,472.701279 96.759196,473.190572 96.759196,473.482828 L96.759196,482.493872 C96.759196,483.239865 97.3640445,483.844579 98.1099031,483.844579 C98.8557617,483.844579 99.4606102,483.239865 99.4606102,482.493872 L99.4606102,475.122828 C99.4606102,474.830572 99.4606102,474.341279 100.569701,474.341279 C101.678927,474.341279 101.678927,474.830572 101.678927,475.122828 L101.678927,484.722559 C101.678927,485.468418 102.283775,486.073266 103.029634,486.073266 C103.775627,486.073266 104.380341,485.468418 104.380341,484.722559 L104.380341,479.676633 C104.380341,479.436633 104.380341,478.798653 105.489566,478.798653 C106.598792,478.798653 106.599869,479.436498 106.599869,479.676633 L106.599869,495.35367 C106.601351,495.377508 106.696435,497.78963 105.263977,499.30532 C104.444314,500.172795 103.225593,500.612525 101.64189,500.612525 C100.895896,500.612525 100.291183,501.217374 100.291183,501.963232 L100.291183,508.649293 C100.291183,509.395152 100.895896,510 101.64189,510 C102.387748,510 102.992462,509.395152 102.992462,508.649293 L102.992462,503.228013 C104.725526,502.997441 106.145997,502.304781 107.227209,501.160673 C109.358523,498.905455 109.316906,495.694545 109.300071,495.24835 L109.300071,479.676633 C109.300071,477.569293 107.732933,476.097239 105.489432,476.097239 C105.097243,476.097239 104.726199,476.1433 104.380206,476.228822 L104.380206,475.122963 C104.380206,473.039596 102.848758,471.640135 100.569432,471.640135 C100.032597,471.640135 99.5377819,471.718653 99.0941455,471.864646 C98.5116539,470.707475 97.2701724,470 95.6503745,470 C94.0304418,470 92.789095,470.707475 92.20593,471.864512 C91.7622937,471.718519 91.2674788,471.64 90.7306438,471.64 C88.4513172,471.64 86.9198694,473.039596 86.9198694,475.122828 L86.9198694,480.686061 C86.5738761,480.600539 86.2028324,480.554613 85.8107785,480.554613 C83.5670075,480.554613 82.0000041,482.026667 82.0000041,484.134007 C81.9998694,484.133872 82.0031017,492.456162 82.0031017,495.370505 L82.0031017,495.370505 Z" id="Shape" sketch:type="MSShapeGroup"></path>
        </g>
    </g>
</svg>