<?xml version="1.0" encoding="UTF-8" standalone="no"?>
<svg width="37px" height="38px" viewBox="0 0 37 38" version="1.1" xmlns="http://www.w3.org/2000/svg" xmlns:xlink="http://www.w3.org/1999/xlink" xmlns:sketch="http://www.bohemiancoding.com/sketch/ns">
    <!-- Generator: Sketch 3.4.3 (16044) - http://www.bohemiancoding.com/sketch -->
    <title>Shape</title>
    <desc>Created with Sketch.</desc>
    <defs></defs>
    <g id="My-Products" stroke="none" stroke-width="1" fill="none" fill-rule="evenodd" sketch:type="MSPage">
        <g id="Menu_products" sketch:type="MSArtboardGroup" transform="translate(-77.000000, -591.000000)" fill="#666666">
            <path d="M80,601.784721 L80,601.784721 L80,618.783638 C80,622.647443 83.1358512,625.78418 87.0005416,625.78418 L103.999458,625.78418 C107.863263,625.78418 111,622.648329 111,618.783638 L111,601.784721 C111,597.920917 107.864149,594.78418 103.999458,594.78418 L87.0005416,594.78418 C83.1367371,594.78418 80,597.920031 80,601.784721 L80,601.784721 Z M77,601.784721 C77,596.261575 81.4814851,591.78418 87.0005416,591.78418 L103.999458,591.78418 C109.522605,591.78418 114,596.265665 114,601.784721 L114,618.783638 C114,624.306785 109.518515,628.78418 103.999458,628.78418 L87.0005416,628.78418 C81.477395,628.78418 77,624.302695 77,618.783638 L77,601.784721 Z M93.2919922,618.286133 L93.2919922,611.761719 L87,611.761719 L87,608.341797 L93.3417969,608.341797 L93.3417969,601.78418 L97.1767578,601.78418 L97.1767578,608.341797 L103.485352,608.341797 L103.485352,611.761719 L97.1601562,611.761719 L97.1601562,618.286133 L93.2919922,618.286133 Z" id="Shape" sketch:type="MSShapeGroup"></path>
        </g>
    </g>
</svg>