<?xml version="1.0" encoding="UTF-8" standalone="no"?>
<svg width="30px" height="40px" viewBox="0 0 30 40" version="1.1" xmlns="http://www.w3.org/2000/svg" xmlns:xlink="http://www.w3.org/1999/xlink" xmlns:sketch="http://www.bohemiancoding.com/sketch/ns">
    <!-- Generator: Sketch 3.4.3 (16044) - http://www.bohemiancoding.com/sketch -->
    <title>Shape</title>
    <desc>Created with Sketch.</desc>
    <defs></defs>
    <g id="Home" stroke="none" stroke-width="1" fill="none" fill-rule="evenodd" sketch:type="MSPage">
        <g id="Menu_shop" sketch:type="MSArtboardGroup" transform="translate(-80.000000, -352.000000)" fill="#666666">
            <path d="M105.668687,366.801751 C103.832054,363.694545 101.721616,361.426263 99.490101,360.108148 C101.640808,358.640269 103.055892,356.169697 103.055892,353.374276 C103.055758,352.615219 102.440539,352 101.681616,352 L88.1434343,352 C87.3845118,352 86.7691582,352.615219 86.7691582,353.374276 C86.7691582,356.169697 88.1842424,358.640269 90.3350842,360.108148 C88.103569,361.426263 85.9931313,363.694545 84.1564983,366.801751 C81.6313805,371.073266 80,376.437037 80,380.466263 C80,384.411582 81.5858586,387.535758 84.586532,389.50101 C87.1179798,391.159192 90.5920539,392 94.9125926,392 C99.2331313,392 102.707205,391.159192 105.238788,389.50101 C108.239327,387.535758 109.825455,384.411582 109.825455,380.466263 C109.82532,376.437037 108.193805,371.073266 105.668687,366.801751 L105.668687,366.801751 Z M89.6948148,354.748418 L100.130101,354.748418 C99.5212121,357.061818 97.4127946,358.772525 94.9124579,358.772525 C92.4121212,358.772525 90.3037037,357.061818 89.6948148,354.748418 L89.6948148,354.748418 Z M103.73266,387.201886 C101.685657,388.542761 98.6355556,389.251582 94.9125926,389.251582 C91.1896296,389.251582 88.1395286,388.542761 86.0925253,387.201886 C83.8422896,385.728215 82.7484175,383.524848 82.7484175,380.466263 C82.7484175,376.893603 84.229899,372.078923 86.5224242,368.200269 C89.0315152,363.955421 92.0895623,361.521077 94.9125926,361.521077 C97.7356229,361.521077 100.79367,363.955421 103.302761,368.200269 C105.595286,372.078923 107.076768,376.893603 107.076768,380.466263 C107.076768,383.524848 105.982896,385.728215 103.73266,387.201886 Z M98.6230303,371.090909 C97.1610774,371.090909 95.8412121,371.714343 94.9127273,372.710438 C93.9842424,371.714343 92.6643771,371.090909 91.2021549,371.090909 C88.3979798,371.090909 86.1164983,373.383165 86.1164983,376.200673 C86.1164983,380.814411 93.3913805,385.187609 94.2208754,385.670842 C94.4346128,385.795556 94.67367,385.857778 94.912862,385.857778 C95.1519192,385.857778 95.3911111,385.795556 95.6049832,385.670842 C96.4343434,385.187205 103.708418,380.814141 103.708418,376.200673 C103.708418,373.383165 101.427205,371.090909 98.6230303,371.090909 Z M94.9146128,382.872054 C92.5776431,381.369024 88.8651852,378.364983 88.8651852,376.200808 C88.8651852,374.898721 89.9135354,373.839461 91.2022896,373.839461 C92.4905051,373.839461 93.5387205,374.898721 93.5387205,376.200808 C93.5387205,376.959731 94.1540741,377.575084 94.9129966,377.575084 C95.6719192,377.575084 96.2872727,376.959731 96.2872727,376.200808 C96.2872727,374.898721 97.3350842,373.839461 98.623165,373.839461 C99.9116498,373.839461 100.96,374.898721 100.96,376.200808 C100.959865,378.305589 97.4992593,381.224512 94.9146128,382.872054 Z" id="Shape" sketch:type="MSShapeGroup"></path>
        </g>
    </g>
</svg>