<?xml version="1.0" encoding="UTF-8" standalone="no"?>
<svg width="42px" height="40px" viewBox="0 0 42 40" version="1.1" xmlns="http://www.w3.org/2000/svg" xmlns:xlink="http://www.w3.org/1999/xlink" xmlns:sketch="http://www.bohemiancoding.com/sketch/ns">
    <!-- Generator: Sketch 3.4.3 (16044) - http://www.bohemiancoding.com/sketch -->
    <title>Shape</title>
    <desc>Created with Sketch.</desc>
    <defs></defs>
    <g id="Home" stroke="none" stroke-width="1" fill="none" fill-rule="evenodd" sketch:type="MSPage">
        <g id="Menu_shop" sketch:type="MSArtboardGroup" transform="translate(-76.000000, -944.000000)" fill="#666666">
            <path d="M115.907187,944 L77.4201579,944 C76.6359123,944 76,944.635773 76,945.420019 L76,964.093439 C76,964.877684 76.6359123,965.513457 77.4201579,965.513457 L84.449007,965.513457 L84.449007,971.025579 C84.449007,974.648471 86.8626909,976.385193 89.0704339,976.898654 L89.0704339,982.579564 C89.0704339,983.363809 89.7063463,983.999722 90.4904526,983.999722 C91.274559,983.999722 91.9104713,983.363809 91.9104713,982.579564 L91.9104713,975.647006 C91.9104713,974.862761 91.2844386,974.226848 90.5001931,974.226848 C89.9639116,974.219195 87.2890444,974.0287 87.2890444,971.02544 L87.2890444,965.513318 L99.1253631,965.513318 C98.6247039,966.358233 98.3127311,967.414237 98.3127311,968.714448 C98.3127311,969.498694 98.9486435,970.134606 99.732889,970.134606 C100.517134,970.134606 101.153047,969.498694 101.153047,968.714448 C101.153047,965.711328 103.827636,965.520972 104.354038,965.513318 L104.354316,965.513318 C105.138561,965.513318 105.774474,964.877406 105.774474,964.0933 C105.774474,964.091491 105.774195,964.089682 105.774195,964.087873 L105.774195,957.16102 C105.774195,956.245 106.519201,955.499856 107.434942,955.499856 L108.205273,955.499856 C109.121015,955.499856 109.86602,956.245 109.86602,957.16102 L109.86602,968.714727 C109.86602,968.728781 109.8464,970.151582 109.149401,971.545858 C108.247435,973.350068 106.678805,974.227126 104.354038,974.227126 C103.569792,974.227126 102.934019,974.863039 102.934019,975.647284 L102.934019,982.579842 C102.934019,983.364088 103.569931,984 104.354038,984 C105.138283,984 105.774195,983.364088 105.774195,982.579842 L105.774195,976.976856 C109.127416,976.531996 110.833386,974.528802 111.689711,972.816152 C112.694647,970.80628 112.706058,968.799329 112.706058,968.714866 L112.706058,965.513736 L115.907187,965.513736 C116.691433,965.513736 117.327345,964.877823 117.327345,964.093717 L117.327345,945.420019 C117.327345,944.635773 116.691433,944 115.907187,944 L115.907187,944 Z M108.205273,952.659679 L107.434942,952.659679 C104.953075,952.659679 102.934019,954.679014 102.934019,957.16102 L102.934019,962.67342 L82.1046194,962.67342 L78.8401766,959.40856 L78.8401766,950.104898 L82.1044803,946.840177 L111.222865,946.840177 L114.487169,950.104759 L114.487169,959.40856 L112.706058,961.18981 L112.706058,957.16102 C112.706058,954.679014 110.687001,952.659679 108.205273,952.659679 Z M96.6636726,948.715074 C93.3325773,948.715074 90.6225053,951.425286 90.6225053,954.756659 C90.6225053,958.088033 93.3325773,960.798383 96.6636726,960.798383 C99.9949071,960.798383 102.704979,958.088033 102.704979,954.756659 C102.704979,951.425286 99.9949071,948.715074 96.6636726,948.715074 Z M96.6636726,957.958346 C94.8987028,957.958346 93.4626819,956.522186 93.4626819,954.756798 C93.4626819,952.99155 94.8987028,951.55539 96.6636726,951.55539 C98.4287816,951.55539 99.8648025,952.99155 99.8648025,954.756798 C99.8648025,956.522186 98.4287816,957.958346 96.6636726,957.958346 Z M86.2660187,953.33664 L81.6445918,953.33664 C80.8603463,953.33664 80.2244339,953.972553 80.2244339,954.756798 C80.2244339,955.541044 80.8603463,956.176817 81.6445918,956.176817 L86.2660187,956.176817 C87.0502642,956.176817 87.6860374,955.540905 87.6860374,954.756798 C87.6860374,953.972692 87.0502642,953.33664 86.2660187,953.33664 Z" id="Shape" sketch:type="MSShapeGroup"></path>
        </g>
    </g>
</svg>