<?xml version="1.0" encoding="UTF-8" standalone="no"?>
<svg width="37px" height="36px" viewBox="0 0 37 36" version="1.1" xmlns="http://www.w3.org/2000/svg" xmlns:xlink="http://www.w3.org/1999/xlink">
    <!-- Generator: Sketch 3.6.1 (26313) - http://www.bohemiancoding.com/sketch -->
    <title>Shape</title>
    <desc>Created with Sketch.</desc>
    <defs></defs>
    <g id="My-Products" stroke="none" stroke-width="1" fill="none" fill-rule="evenodd">
        <g id="Menu_products" transform="translate(-78.000000, -707.000000)" fill="#666666">
            <path d="M107.118926,742.318263 C106.909336,742.318263 106.698798,742.268185 106.505971,742.16687 L96.5000735,736.906467 L86.4941758,742.16687 C86.0501159,742.40018 85.5121202,742.361383 85.1063303,742.066503 C84.7004351,741.771728 84.4972766,741.272003 84.5820402,740.777443 L86.4929107,729.635671 L78.3979889,721.745067 C78.0387979,721.394943 77.909544,720.87118 78.0645222,720.394227 C78.2195004,719.917168 78.6319321,719.569469 79.1283894,719.497251 L90.3153896,717.871772 L95.3183385,707.734618 C95.5402631,707.284759 95.9984503,707 96.5000735,707 C97.0015914,707 97.459884,707.284759 97.6817031,707.734618 L102.684652,717.871772 L113.871547,719.497251 C114.368004,719.569469 114.78033,719.917063 114.935414,720.394227 C115.090498,720.87118 114.961244,721.394943 114.601947,721.745067 L106.50692,729.635776 L108.417896,740.777548 C108.50266,741.271897 108.299396,741.771834 107.893606,742.066608 C107.664091,742.233394 107.392299,742.318263 107.118926,742.318263 L107.118926,742.318263 Z M82.1498315,721.721768 L88.8288642,728.232117 C89.1394531,728.534799 89.2812529,728.971163 89.20777,729.39846 L87.6311042,738.591302 L95.8866973,734.250858 C96.2706636,734.04907 96.7292726,734.04907 97.1132389,734.250858 L105.368832,738.591091 L103.792061,729.39846 C103.718789,728.970846 103.860483,728.534799 104.171072,728.232117 L110.85021,721.721768 L101.620152,720.380521 C101.190957,720.318108 100.819853,720.048636 100.62787,719.659609 L96.500179,711.295637 L92.3723824,719.659609 C92.1805047,720.048531 91.809295,720.318108 91.3801003,720.380521 L82.1498315,721.721768 L82.1498315,721.721768 Z" id="Shape"></path>
        </g>
    </g>
</svg>