<?xml version="1.0" encoding="UTF-8" standalone="no"?>
<svg width="38px" height="40px" viewBox="0 0 38 40" version="1.1" xmlns="http://www.w3.org/2000/svg" xmlns:xlink="http://www.w3.org/1999/xlink">
    <!-- Generator: Sketch 3.6.1 (26313) - http://www.bohemiancoding.com/sketch -->
    <title>Combined Shape</title>
    <desc>Created with Sketch.</desc>
    <defs></defs>
    <g id="My-Products" stroke="none" stroke-width="1" fill="none" fill-rule="evenodd">
        <g id="Menu_products" transform="translate(-76.000000, -646.000000)" fill="#666666">
            <path d="M92.877005,682.853914 C92.0871163,682.853914 91.4444544,683.496576 91.4444544,684.286465 C91.4444544,685.076353 92.0871163,685.719015 92.877005,685.719015 L110.66453,685.719015 C112.087768,685.719015 113.245655,684.561128 113.245655,683.137822 L113.245655,648.775372 C113.245723,647.352135 112.087836,646.194179 110.66453,646.194179 L92.8217436,646.194179 C92.0318549,646.194179 91.3891931,646.836841 91.3891931,647.62673 C91.3891931,648.416618 92.0318549,649.05928 92.8217436,649.05928 L110.380622,649.05928 L110.380622,682.853914 L92.877005,682.853914 Z M90.3320365,679.028826 C89.3759528,679.028826 88.4578742,678.671579 87.7468717,678.023028 L77.4991366,668.675293 C76.7025371,667.948609 76.2456548,666.913434 76.2456548,665.835255 C76.2456548,664.757076 76.7024686,663.721901 77.4991366,662.99508 L87.7468717,653.647414 C88.4578742,652.998794 89.3759528,652.641615 90.3318995,652.641615 C91.3164014,652.641615 92.2543385,653.012969 92.9730105,653.687199 C93.3487469,654.03979 93.6448438,654.45675 93.8528787,654.926438 C94.0710482,655.418654 94.1816394,655.943809 94.1816394,656.487452 L94.1816394,657.80544 L103.702965,657.80544 C105.822619,657.80544 107.547089,659.52991 107.547089,661.649633 L107.547089,670.020809 C107.547089,672.140463 105.822619,673.865002 103.702965,673.865002 L94.1816394,673.865002 L94.1816394,675.182921 C94.1816394,675.726496 94.0709797,676.251719 93.8528102,676.744073 C93.6447069,677.213829 93.3486099,677.630788 92.9728736,677.983311 C92.2542701,678.657541 91.3164014,679.028826 90.3320365,679.028826 Z M90.3320365,676.095248 C90.1059236,676.095248 89.895629,676.01239 89.7238188,675.855645 L79.4760837,666.50791 C79.2873595,666.335826 79.179165,666.090608 79.179165,665.835255 C79.179165,665.579834 79.287428,665.334616 79.4760837,665.162395 L89.7237504,655.814728 C89.8954921,655.658052 90.1058551,655.575194 90.331968,655.575125 C90.7724842,655.575125 91.2479923,655.92395 91.2479923,656.487452 L91.2479923,659.896881 C91.2479923,660.361227 91.625783,660.739018 92.0901293,660.739018 L103.702965,660.739018 C103.946197,660.739018 104.174843,660.833723 104.346791,661.00567 C104.518738,661.177685 104.613511,661.406332 104.613511,661.649564 L104.613511,670.02074 C104.613511,670.522818 104.205042,670.931355 103.702965,670.931355 L92.0901293,670.931355 C91.625783,670.931355 91.2480608,671.309146 91.2480608,671.773423 L91.2480608,675.182853 C91.2480608,675.746491 90.7725526,676.095248 90.3320365,676.095248 Z" id="Combined-Shape"></path>
        </g>
    </g>
</svg>