<?xml version="1.0" encoding="UTF-8" standalone="no"?>
<svg width="40px" height="40px" viewBox="0 0 40 40" version="1.1" xmlns="http://www.w3.org/2000/svg" xmlns:xlink="http://www.w3.org/1999/xlink" xmlns:sketch="http://www.bohemiancoding.com/sketch/ns">
    <!-- Generator: Sketch 3.4.3 (16044) - http://www.bohemiancoding.com/sketch -->
    <title>Shape</title>
    <desc>Created with Sketch.</desc>
    <defs></defs>
    <g id="My-Products" stroke="none" stroke-width="1" fill="none" fill-rule="evenodd" sketch:type="MSPage">
        <g id="Menu_products" sketch:type="MSArtboardGroup" transform="translate(-76.000000, -468.000000)" fill="#666666">
            <path d="M116,488.002353 C116,476.980719 107.019281,468 95.9976471,468 C84.9760131,468 76,476.980719 76,488.002353 C76,494.073007 78.7542484,499.534183 83.039085,503.204902 C83.0910458,503.256863 83.1430065,503.308824 83.2422222,503.356078 C86.7098039,506.266209 91.1505882,508 96.0496078,508 C100.844706,508 105.28549,506.266209 108.753072,503.46 C108.956209,503.408039 109.112092,503.256863 109.211307,503.10098 C113.349739,499.378301 116,494.021046 116,488.002353 L116,488.002353 Z M78.5878758,487.887536 C78.5878758,478.299389 86.4142051,470.473059 96.0023529,470.473059 C105.590501,470.473059 113.41683,478.299389 113.41683,487.887536 C113.41683,492.584236 111.559893,496.837051 108.525382,499.971254 C108.036256,497.670432 106.568815,493.757299 102.066864,491.216488 C103.094993,489.943796 103.679237,488.281607 103.679237,486.519788 C103.679237,482.312214 100.25523,478.888207 96.0476563,478.888207 C91.8400824,478.888207 88.4160751,482.312214 88.4160751,486.519788 C88.4160751,488.281607 89.0501343,489.893981 90.028449,491.216488 C85.485768,493.757299 84.0183274,497.670495 83.5789536,499.971254 C80.4946276,496.886928 78.5878758,492.584236 78.5878758,487.887536 L78.5878758,487.887536 Z M90.5247876,486.622876 C90.5247876,483.609385 92.9888617,481.14531 96.0023529,481.14531 C99.0158442,481.14531 101.479918,483.609385 101.479918,486.622876 C101.479918,489.636367 99.0158442,492.100441 96.0023529,492.100441 C92.9888617,492.100441 90.5247876,489.636367 90.5247876,486.622876 L90.5247876,486.622876 Z M85.393942,502.014829 C85.4912864,500.629722 86.2524091,495.943418 91.416681,493.314813 C92.708851,494.319358 94.284238,494.8902 96.0056415,494.8902 C97.7270451,494.8902 99.3511043,494.270686 100.643274,493.266141 C105.758813,495.894745 106.568669,500.483706 106.714685,501.966157 C103.798456,504.307136 100.072432,505.740853 96.0587218,505.740853 C91.9919924,505.745261 88.3101712,504.360155 85.393942,502.014829 L85.393942,502.014829 Z" id="Shape" sketch:type="MSShapeGroup"></path>
        </g>
    </g>
</svg>